<svg version="1.1" xmlns="http://www.w3.org/2000/svg" xmlns:xlink="http://www.w3.org/1999/xlink" width="58.86212" height="56.89089" viewBox="0,0,58.86212,56.89089"><g transform="translate(-210.99988,-162.33311)"><g data-paper-data="{&quot;isPaintingLayer&quot;:true}" fill-rule="nonzero" stroke-width="1" stroke-linecap="butt" stroke-linejoin="miter" stroke-miterlimit="10" stroke-dasharray="" stroke-dashoffset="0" style="mix-blend-mode: normal"><path d="M269.862,186.97642v3.52003c0,2.08729 -0.5,5.05459 -1.57,9.33827c-0.44,1.99275 -1.28,4.04368 -2.49,6.10188c-0.02,0.02909 -0.04,0.05091 -0.05,0.08c-2.15,3.52731 -5.69,6.6037 -10.53,9.14191c-5.16,2.69821 -10.5,4.06549 -15.89,4.06549c-2.18,0 -4.26,-0.24728 -6.21,-0.72728c-6.91,-1.62183 -12.37,-4.7055 -16.22,-9.16372c-0.83,-0.98183 -1.65,-2.19638 -2.67,-3.97095c-0.02,-0.04364 -0.04,-0.08 -0.07,-0.12364c-1.26,-2.2982 -1.93,-4.13822 -2.11,-5.79642c-0.03,-0.28364 -0.14,-0.96728 -0.5,-2.30548c-0.13,-0.50182 -0.2,-1.01092 -0.2,-1.52001v-3.11276c-0.44,-1.2291 -0.48,-2.54548 -0.05,-3.84731c0.16,-0.50182 0.39,-0.9891 0.67,-1.44001c0,-0.88728 0.21,-1.77456 0.61,-2.61821c0.11,-0.36364 0.26,-0.72001 0.44,-1.07637c0.01,-0.00727 0.19,-0.37819 0.44,-1.40365c0.3,-1.25819 0.86,-2.88003 1.7,-4.92368c0.01,-0.02182 0.02,-0.05091 0.03,-0.07273c1.63,-3.81095 4.92,-7.42553 10.06,-11.04738c0.04,-0.02909 0.07,-0.05091 0.11,-0.07273c2.6,-1.78911 5.6,-2.92366 8.92,-3.38912c0.6,-0.08 1.21,-0.12364 1.83,-0.13818c0.38,-0.00727 1.39,-0.05091 3.04,-0.11636c0.06,0 0.12,-0.00727 0.18,-0.00727c4.87,-0.14546 9.48,0.61091 13.75,2.23275c4.93,1.83274 8.83,4.58913 11.6,8.19644c1.31,1.70911 2.43,3.78185 3.43,6.35642c1.17,2.91639 1.75,5.48369 1.75,7.84008z" fill="#00cccc" stroke="none"/><path d="M261.1922,190.83051c0,1.5782 -0.53489,4.2444 -1.599,7.99644c-0.33275,1.3651 -0.99824,2.79421 -1.99875,4.28659c-1.53314,2.2182 -4.14514,4.1804 -7.84057,5.88587c-3.69656,1.70547 -7.27615,2.55857 -10.73876,2.55857c-1.13225,0 -2.16456,-0.10618 -3.09693,-0.31928c-5.06162,-1.02328 -8.98985,-2.96366 -11.78697,-5.82187c-0.53489,-0.55346 -1.23332,-1.49238 -2.09869,-2.81457c-0.93237,-1.49238 -1.44796,-2.64366 -1.5479,-3.45458c-0.09994,-0.80946 -0.34978,-1.87565 -0.74953,-3.19785v-4.73459c0.26574,-0.08436 0.13287,-0.21237 -0.39975,-0.38328h0.59963c0,-0.21309 0.13174,-0.61819 0.39975,-1.21528c0.26461,-0.5971 0.39975,-1.0451 0.39975,-1.34401c0,-0.256 -0.09994,-0.49019 -0.29981,-0.70401c0.26461,0 0.49855,-0.064 0.69843,-0.192c-0.067,-0.08509 -0.23395,-0.128 -0.49855,-0.128c0.06587,-0.04218 0.18284,-0.10618 0.34978,-0.192c0.16581,-0.08509 0.28278,-0.14909 0.35092,-0.192c-0.06814,-0.04291 -0.14991,-0.07491 -0.25098,-0.09673c-0.09994,-0.02036 -0.18398,-0.05236 -0.24984,-0.096c0.40089,-0.68219 0.76543,-1.62038 1.09931,-2.81457c0.26461,-0.98037 0.7995,-2.32366 1.59787,-4.02986c1.19925,-2.47275 3.92937,-5.03205 8.19148,-7.67716c1.19925,-0.72437 2.49731,-1.17237 3.89643,-1.34329c0.19988,0 1.49793,-0.04291 3.89643,-0.12873c3.32974,-0.08436 6.45847,0.36291 9.3896,1.34401c3.39788,1.1091 6.05986,2.77239 7.99161,4.98987c1.00051,1.15128 1.93175,2.70839 2.79712,4.66986c1.00051,2.17457 1.49907,4.05168 1.49907,5.62914v3.51931zM254.59972,183.73008c-0.39748,-0.59637 -0.8631,-1.36438 -1.39345,-2.30329c-0.66549,-1.91929 -2.6404,-3.68804 -5.92472,-5.30987c-3.28545,-1.62038 -6.32106,-2.34475 -9.10909,-2.17457c-1.26058,0.08582 -3.38539,1.42983 -6.3733,4.03058c-1.46045,1.2371 -2.91977,3.71058 -4.37909,7.42043c-1.32758,3.45458 -1.95901,6.12006 -1.89087,7.99644c0.13174,2.38839 0.33161,4.05168 0.59735,4.98914c0.46335,1.74911 1.45932,3.3484 2.98564,4.79859c1.46045,1.27928 2.5893,2.11057 3.38539,2.4953c2.98564,1.3651 5.80547,2.04657 8.46177,2.04657c0.59622,0 1.16064,-0.04218 1.69213,-0.128c1.26058,-0.128 2.75283,-0.66037 4.47903,-1.59929c1.46045,-0.8531 2.55523,-1.64147 3.28659,-2.3673c0.99483,-1.06546 1.92494,-2.66475 2.78803,-4.79786c1.32645,-3.11276 1.99194,-6.41824 1.99194,-9.91573c0.00227,-1.87565 -0.1976,-3.60294 -0.59735,-5.18114z" fill="#ffffff" stroke="#ffffff"/></g></g></svg>