<svg version="1.1" xmlns="http://www.w3.org/2000/svg" xmlns:xlink="http://www.w3.org/1999/xlink" width="558.33726" height="403.21353" viewBox="0,0,558.33726,403.21353"><g transform="translate(74.30557,38.05212)"><g data-paper-data="{&quot;isPaintingLayer&quot;:true}" fill-rule="nonzero" stroke-linecap="butt" stroke-linejoin="miter" stroke-miterlimit="10" stroke-dasharray="" stroke-dashoffset="0" style="mix-blend-mode: normal"><path d="M-3.45836,335.31247v-335.44294h483.80481v335.44295z" fill="none" stroke="#000000" stroke-width="0.5"/><path d="M-1.45836,334.81247v-189h137v189z" fill="none" stroke="#000000" stroke-width="0.5"/><path d="M127.54164,337.81247v-252h160v252z" fill="none" stroke="#000000" stroke-width="0.5"/><path d="M127.21914,91.15122v-39h161.31438v39z" fill="none" stroke="#000000" stroke-width="0.5"/><path d="M-1.45836,171.81247v-39h129v39z" fill="none" stroke="#000000" stroke-width="0.5"/><path d="M-35.24076,21.53122c0,-32.76889 26.56444,-59.33334 59.33333,-59.33334c32.7689,0 59.33334,26.56444 59.33334,59.33334c0,32.7689 -26.56444,59.33333 -59.33334,59.33333c-32.76889,0 -59.33333,-26.56444 -59.33333,-59.33333z" fill="none" stroke="#000000" stroke-width="0.5"/><path d="M-2.96831,357.99474v-80.83333h484v80.83333z" fill="none" stroke="#000000" stroke-width="0.5"/><path d="M-3.45836,335.31247v-335.44294h483.80481v335.44295z" fill="#009dff" stroke="#000000" stroke-width="0"/><path d="M-1.45836,334.81247v-189h137v189z" fill="#5d2400" stroke="#000000" stroke-width="0"/><path d="M127.54164,337.81247v-252h160v252z" fill="#5d2400" stroke="#000000" stroke-width="0"/><path d="M127.21914,91.15122v-39h161.31438v39z" fill="#36ff00" stroke="#000000" stroke-width="0"/><path d="M-1.45836,171.81247v-39h129v39z" fill="#36ff00" stroke="#000000" stroke-width="0"/><path d="M120.69443,326.65623v-2h2v2z" fill="#000000" stroke="none" stroke-width="0"/><path d="M-74.30557,326.65623v-2h2v2z" fill="#000000" stroke="none" stroke-width="0"/><path d="M-40.99439,286.8559l36.14623,-103.08369c0,0 143.91555,1.69826 143.91555,-1.33875c0,-27.66151 0,-80.32495 0,-80.32495h133.87493l-1.33875,179.3924z" fill-opacity="0.18039" fill="#000000" stroke="none" stroke-width="0"/><path d="M315.69443,326.65623v-2h2v2z" fill="#000000" stroke="none" stroke-width="0"/><path d="M-35.24076,21.53122c0,-32.76889 26.56444,-59.33334 59.33333,-59.33334c32.7689,0 59.33334,26.56444 59.33334,59.33334c0,32.7689 -26.56444,59.33333 -59.33334,59.33333c-32.76889,0 -59.33333,-26.56444 -59.33333,-59.33333z" fill="#fff700" stroke="#000000" stroke-width="0"/><path d="M-2.96831,357.99474v-80.83333h484v80.83333z" fill="#1dff00" stroke="#000000" stroke-width="0"/><path d="M0.03169,365.16141v-72.83333h484v72.83333z" fill="#19d400" stroke="none" stroke-width="0"/><g stroke="#000000" font-family="Pixel" font-weight="normal" font-size="40" text-anchor="start"><text transform="translate(2.09258,356.06828) scale(0.43791,0.43791)" font-size="40" xml:space="preserve" data-paper-data="{&quot;index&quot;:null}" fill="#000000" fill-rule="nonzero" stroke="#000000" stroke-width="6" stroke-linecap="butt" stroke-linejoin="miter" stroke-miterlimit="10" stroke-dasharray="" stroke-dashoffset="0" font-family="Pixel" font-weight="normal" text-anchor="start" style="mix-blend-mode: normal"><tspan x="0" dy="0">1.0V Tony's Adventure</tspan></text><text transform="translate(2.09257,356.06828) scale(0.43791,0.43791)" font-size="40" xml:space="preserve" data-paper-data="{&quot;index&quot;:null}" fill="#ffffff" fill-rule="nonzero" stroke="#000000" stroke-width="0" stroke-linecap="butt" stroke-linejoin="miter" stroke-miterlimit="10" stroke-dasharray="" stroke-dashoffset="0" font-family="Pixel" font-weight="normal" text-anchor="start" style="mix-blend-mode: normal"><tspan x="0" dy="0">1.0V Tony's Adventure</tspan></text></g><path d="M131.03489,90.72914v-32.79936h153.28679v32.79936z" fill-opacity="0.18039" fill="#000000" stroke="none" stroke-width="0"/><path d="M-29.30064,172.70722v-32.79936h153.28679v32.79936z" fill-opacity="0.18039" fill="#000000" stroke="none" stroke-width="0"/></g></g></svg>