<svg version="1.1" xmlns="http://www.w3.org/2000/svg" xmlns:xlink="http://www.w3.org/1999/xlink" width="181.13661" height="53.74332" viewBox="0,0,181.13661,53.74332"><g transform="translate(-161.91151,-148.1234)"><g data-paper-data="{&quot;isPaintingLayer&quot;:true}" fill-rule="nonzero" stroke-linejoin="miter" stroke-miterlimit="10" stroke-dasharray="" stroke-dashoffset="0" style="mix-blend-mode: normal"><g><path d="M174.26646,196.79394v-44.7747h167.77385v44.7747z" fill="#38ff00" stroke="none" stroke-width="0" stroke-linecap="butt"/><path d="M200.14694,189.57733v-37.55811h141.89338v37.55811z" fill="#30d900" stroke="none" stroke-width="0" stroke-linecap="butt"/><path d="M172.58674,151.25444c1.64984,-0.00657 166.95087,-1.42379 167.96138,-0.63103c2.10613,1.65231 2.3558,14.26692 3.21612,25.33037c0.22041,2.83433 -1.08617,20.5331 -6.77116,21.89159c-0.69011,0.16492 -51.67483,1.91807 -82.62334,1.52157c-42.10447,-0.53943 -81.46463,-1.06893 -81.47307,-1.33769c0,0 -1.96716,-46.76823 -0.30991,-46.77482z" fill="none" stroke="#30d900" stroke-width="5" stroke-linecap="round"/><path d="M189.51665,188.44739c0,0 -6.11641,2.09885 -9.11586,-2.71878c-3.09567,-4.97217 -3.06251,-16.9024 -2.07213,-19.33758c2.87806,-7.07664 9.50835,-5.50904 10.1808,-5.03669c0.92787,0.65177 9.19091,4.69065 9.132,13.05371c-0.02027,2.87757 -0.35481,8.80293 -2.31421,11.39548c-2.80996,3.71794 -9.63344,1.81173 -10.52681,2.82279" fill="none" stroke="#000000" stroke-width="6" stroke-linecap="round"/><path d="M204.87757,188.37858c0,0 0,-22.35764 0,-26.00044c0,-0.50055 5.36603,-2.32485 10.55581,-2.1919c2.61114,0.06689 4.35446,9.21578 1.29512,13.40922c-2.63449,3.6111 -9.97925,0.97758 -9.97925,0.97758" fill="none" stroke="#080808" stroke-width="6" stroke-linecap="round"/><path d="M229.67011,186.52353c0,0 0.39533,-17.06655 0.39533,-22.16959c0,-0.57681 -9.3562,0.47585 -9.3562,0.18788c0,-0.70265 16.20862,-0.93939 16.20862,-0.93939" fill="none" stroke="#080808" stroke-width="6" stroke-linecap="round"/><g fill="none" stroke="#000000" stroke-width="6" stroke-linecap="round"><path d="M249.85826,163.21781v22.66591"/><path d="M242.42551,161.74601h15.89784"/><path d="M243.0579,187.07973h12.18147"/></g><path d="M274.36561,187.16969c0,0 -6.11641,2.12151 -9.11586,-2.74814c-3.09567,-5.02587 -3.06252,-17.08491 -2.07214,-19.54638c2.87806,-7.15305 9.50835,-5.56852 10.1808,-5.09107c0.92786,0.65881 9.19092,4.74129 9.132,13.19465c-0.02027,2.90864 -0.3548,8.89798 -2.3142,11.51852c-2.80996,3.75809 -9.63344,1.8313 -10.52681,2.85327" fill="none" stroke="#000000" stroke-width="6" stroke-linecap="round"/><path d="M291.58339,189.53363c0,0 -0.37279,-22.86661 -0.44703,-27.42092c-0.02049,-1.2568 12.11624,17.81709 16.2017,24.27241c0.82664,1.30614 -0.17027,-24.6668 -0.17027,-24.6668" fill="none" stroke="#000000" stroke-width="6" stroke-linecap="round"/><path d="M316.89292,186.84005c0,0 6.84518,4.59758 10.49924,4.44937c3.0729,-0.12464 5.96228,-3.14111 5.98644,-3.15648c0.86156,-0.54825 -0.88029,-4.5576 -3.78374,-7.36632c-1.73944,-1.68268 -4.40689,-2.22841 -5.75501,-3.311c-1.87656,-1.50694 -2.80093,-4.27348 -4.08325,-4.97863c-1.85879,-1.02217 0.39348,-8.86189 4.2776,-12.57653c3.84311,-3.67542 11.44995,-1.70828 11.44995,-1.70828" fill="none" stroke="#000000" stroke-width="6" stroke-linecap="round"/></g></g></g></svg>