<svg version="1.1" xmlns="http://www.w3.org/2000/svg" xmlns:xlink="http://www.w3.org/1999/xlink" width="190.1441" height="32.718" viewBox="0,0,190.1441,32.718"><defs><linearGradient x1="217.20329" y1="170.067" x2="407.34742" y2="170.067" gradientUnits="userSpaceOnUse" id="color-1"><stop offset="0" stop-color="#66b3e3"/><stop offset="1" stop-color="#1c75bc"/></linearGradient></defs><g transform="translate(-217.20331,-153.708)"><g data-paper-data="{&quot;isPaintingLayer&quot;:true}" fill-rule="nonzero" stroke-width="1" stroke-linecap="butt" stroke-linejoin="miter" stroke-miterlimit="10" stroke-dasharray="" stroke-dashoffset="0" style="mix-blend-mode: normal"><path d="M407.34742,157.25793v25.61883c0,1.95721 -5.25668,3.54924 -11.72646,3.54924h-166.69348c-6.46296,0 -11.72416,-1.59203 -11.72416,-3.54924v-25.61952c0,-1.95721 5.26121,-3.54924 11.72416,-3.54924h166.69348c6.46976,0 11.72646,1.59271 11.72646,3.54993z" fill="url(#color-1)" stroke="none"/><path d="M240.79877,173.89177c-0.2655,2.86357 -1.12647,5.03686 -2.62463,6.61846c-0.87235,0.92165 -2.1657,1.64987 -4.32002,2.42361c-0.04172,0.01517 -0.08723,0.03034 -0.13275,0.04551c-1.03165,0.32997 -2.15811,0.50065 -3.34526,0.50065c-1.80917,0 -3.48939,-0.35652 -4.99514,-1.0582c-2.22638,-1.03923 -3.33388,-2.49188 -3.88384,-3.71696c-0.07965,-0.13275 -0.16309,-0.26929 -0.24274,-0.41721c-0.22757,-0.41342 -0.38687,-0.86097 -0.46272,-1.32748c-0.10999,-0.65236 -0.28446,-1.6347 -0.52341,-2.93943c-0.04551,-0.25033 -0.06827,-0.50065 -0.06827,-0.75477v-3.29975c0,-0.40962 0.03414,-1.00889 0.28067,-2.63221c0.23895,-1.58919 0.34135,-2.08225 0.53099,-2.56774c0.49686,-1.32369 1.98364,-5.21512 5.58682,-5.98506c1.18336,-0.25033 2.51464,-0.28446 3.77385,-0.14792c0.89131,-1.42989 2.48429,-2.28327 4.29347,-2.28327c3.14045,0 4.87756,2.07088 5.20374,4.119c0.03414,0.21619 0.04931,0.43617 0.04931,0.65616v5.26822c0,0.00379 0,0.00759 0,0.00759c0,0.00379 0,0.00379 0,0.00759c0,0 0,0 0,0.00379c0,0.34515 -0.04551,0.67512 -0.12137,0.99751c0.73201,0.83063 1.13784,1.85469 1.15681,2.95081c0.02276,1.09992 -0.03034,2.29086 -0.15551,3.53111z" fill="#00cccc" stroke="none"/><path d="M236.78182,170.68196c0.02162,0.93417 -0.02238,1.94647 -0.13351,3.03577c-0.17864,1.9131 -0.67853,3.30278 -1.50158,4.1702c-0.37852,0.40052 -1.27894,0.85642 -2.702,1.36769c-0.62316,0.20026 -1.31269,0.30039 -2.0686,0.30039c-1.2008,0 -2.27986,-0.22226 -3.23603,-0.66754c-1.04568,-0.48889 -1.69046,-1.12267 -1.93509,-1.90172c-0.08875,-0.11113 -0.18926,-0.26663 -0.30001,-0.4669c-0.11189,-0.66716 -0.28939,-1.6677 -0.53403,-3.00239v-3.30278c0,-0.31139 0.07775,-0.97855 0.23364,-2.00185c0.15513,-1.02254 0.25564,-1.58957 0.30039,-1.70108c0.77829,-2.0686 1.6347,-3.20265 2.56849,-3.40329c0.42214,-0.08837 0.88941,-0.13351 1.40107,-0.13351c1.6457,0 3.13628,0.40052 4.47059,1.20118c0.08837,0.04476 0.19988,0.06675 0.33339,0.06675c0.02238,-0.06675 0.04438,-0.34439 0.06713,-0.83404c0.022,0 0.022,-0.38876 0,-1.16743c-0.02276,-0.53403 0.02996,-0.91179 0.15778,-1.13443c0.12706,-0.22188 0.38232,-0.33377 0.76387,-0.33377c0.65616,0 1.01647,0.20026 1.08019,0.60078c0,0.02238 0,0.84542 0,2.46874c0,1.22356 0,1.99085 0,2.30186c0,0.37852 0,0.54541 0,0.50027c-0.08951,0.33377 -0.24502,0.53365 -0.46727,0.6004c-0.60002,0.20026 -1.01192,0.21202 -1.23418,0.03338c-0.11151,0 -0.23326,-0.03338 -0.36714,-0.10013c-0.11151,-0.31101 -0.35577,-0.72215 -0.73391,-1.23418c-0.51203,-0.42214 -1.17919,-0.78928 -2.00147,-1.10105c-0.82342,-0.31101 -1.52395,-0.4669 -2.10198,-0.4669c-0.73429,0 -1.32331,0.56703 -1.76821,1.70146c-0.62316,1.55695 -0.90079,3.56942 -0.83404,6.03854c0.04438,1.09005 0.07775,1.77959 0.10051,2.06822c0.11075,0.91217 0.35577,1.69046 0.73391,2.33524c0.26701,0.44528 0.67816,0.81242 1.23456,1.10105c0.55565,0.28939 1.10067,0.4449 1.6347,0.4669c2.64701,0.11151 4.1922,-1.0563 4.63785,-3.50304c0.24464,-1.31193 0.26663,-2.41299 0.06675,-3.30278c-0.04513,-0.17788 -0.02314,-0.41721 0.06675,-0.7176c0.08799,-0.30001 0.47789,-0.48358 1.16743,-0.55034c0.15551,0 0.34439,0.07244 0.56741,0.21695c0.22074,0.14564 0.33263,0.29546 0.33263,0.45097z" fill="#ffffff" stroke="#ffffff"/><g><path d="M265.07748,168.45993v1.37508c0,0.81539 -0.19533,1.97456 -0.61332,3.64796c-0.17188,0.77846 -0.50002,1.57965 -0.97271,2.38367c-0.00781,0.01136 -0.01562,0.01989 -0.01954,0.03125c-0.83989,1.37793 -2.22278,2.57971 -4.1135,3.57125c-2.01574,1.05405 -4.10179,1.58817 -6.20737,1.58817c-0.85161,0 -1.66415,-0.0966 -2.42592,-0.28411c-2.69937,-0.63356 -4.83229,-1.83819 -6.33628,-3.57977c-0.32423,-0.38355 -0.64457,-0.85801 -1.04303,-1.55123c-0.00781,-0.01705 -0.01562,-0.03126 -0.02735,-0.0483c-0.49221,-0.89779 -0.75395,-1.61658 -0.82427,-2.26435c-0.01172,-0.1108 -0.05469,-0.37787 -0.19533,-0.90063c-0.05078,-0.19604 -0.07813,-0.39491 -0.07813,-0.59379v-1.21599c-0.17188,-0.48015 -0.18751,-0.99438 -0.01954,-1.50294c0.06251,-0.19604 0.15235,-0.38639 0.26173,-0.56254c0,-0.34661 0.08203,-0.69323 0.2383,-1.02279c0.04297,-0.14205 0.10157,-0.28127 0.17188,-0.42048c0.00391,-0.00284 0.07422,-0.14773 0.17188,-0.54833c0.11719,-0.49151 0.33596,-1.12507 0.6641,-1.92342c0.00391,-0.00852 0.00781,-0.01989 0.01172,-0.02841c0.63675,-1.48873 1.92198,-2.90076 3.9299,-4.31562c0.01562,-0.01136 0.02735,-0.01989 0.04297,-0.02841c1.01568,-0.69891 2.18762,-1.14212 3.48456,-1.32395c0.23439,-0.03125 0.47269,-0.0483 0.71489,-0.05398c0.14844,-0.00284 0.543,-0.01989 1.18756,-0.04545c0.02344,0 0.04687,-0.00284 0.07032,-0.00284c1.90245,-0.05683 3.70333,0.23865 5.37139,0.87221c1.92588,0.71595 3.4494,1.79273 4.5315,3.20191c0.51175,0.66765 0.94927,1.47737 1.33992,2.48311c0.45705,1.13928 0.68363,2.14218 0.68363,3.0627z" fill="#00cccc" stroke="none"/><path d="M261.69066,169.96552c0,0.61652 -0.20896,1.65806 -0.62465,3.12378c-0.12999,0.53327 -0.38996,1.09154 -0.7808,1.67454c-0.59892,0.86654 -1.61928,1.63306 -3.06289,2.2993c-1.44405,0.66624 -2.8424,0.99949 -4.19506,0.99949c-0.44231,0 -0.84557,-0.04148 -1.20981,-0.12472c-1.97731,-0.39975 -3.51185,-1.15774 -4.60453,-2.27429c-0.20896,-0.21621 -0.4818,-0.58299 -0.81985,-1.0995c-0.36423,-0.58299 -0.56564,-1.03274 -0.60468,-1.34952c-0.03904,-0.31621 -0.13664,-0.73271 -0.2928,-1.24923v-1.84955c0.10381,-0.03296 0.05191,-0.08296 -0.15616,-0.14972h0.23424c0,-0.08324 0.05146,-0.24149 0.15616,-0.47474c0.10336,-0.23325 0.15616,-0.40827 0.15616,-0.52504c0,-0.1 -0.03904,-0.19149 -0.11712,-0.27502c0.10336,0 0.19475,-0.025 0.27284,-0.07501c-0.02617,-0.03324 -0.09139,-0.05 -0.19475,-0.05c0.02573,-0.01647 0.07143,-0.04148 0.13664,-0.07501c0.06477,-0.03324 0.11047,-0.05825 0.13709,-0.07501c-0.02662,-0.01676 -0.05856,-0.02926 -0.09804,-0.03779c-0.03904,-0.00796 -0.07187,-0.02046 -0.0976,-0.0375c0.15661,-0.26649 0.29901,-0.633 0.42944,-1.0995c0.10336,-0.38298 0.31232,-0.90773 0.6242,-1.57425c0.46848,-0.96597 1.535,-1.96575 3.19997,-2.99905c0.46848,-0.28298 0.97557,-0.45798 1.52213,-0.52475c0.07808,0 0.58516,-0.01676 1.52213,-0.05029c1.30076,-0.03296 2.52298,0.14177 3.66801,0.52504c1.32737,0.43326 2.36726,1.08302 3.1219,1.94927c0.39085,0.44975 0.75463,1.05802 1.09269,1.82427c0.39085,0.84948 0.5856,1.58277 0.5856,2.19901v1.37481zM259.11533,167.19176c-0.15528,-0.23297 -0.33716,-0.53299 -0.54434,-0.89977c-0.25997,-0.74977 -1.03146,-1.44072 -2.31447,-2.07428c-1.28345,-0.633 -2.4693,-0.91597 -3.55843,-0.84948c-0.49244,0.03353 -1.32249,0.55856 -2.48971,1.57453c-0.57052,0.48327 -1.1406,1.44953 -1.71067,2.89877c-0.51861,1.34952 -0.76528,2.39078 -0.73866,3.12378c0.05146,0.93301 0.12954,1.58277 0.23335,1.94899c0.18101,0.68328 0.57007,1.30804 1.16633,1.87455c0.57052,0.49975 1.0115,0.82449 1.32249,0.97478c1.16633,0.53327 2.26788,0.79948 3.30556,0.79948c0.23291,0 0.4534,-0.01647 0.66102,-0.05c0.49244,-0.05 1.07538,-0.25797 1.74972,-0.62475c0.57052,-0.33326 0.99819,-0.64124 1.28389,-0.92477c0.38863,-0.41622 0.75197,-1.04097 1.08914,-1.87427c0.51817,-1.21599 0.77814,-2.50727 0.77814,-3.87355c0.00089,-0.73271 -0.07719,-1.40748 -0.23335,-2.02399z" fill="#ffffff" stroke="#ffffff"/></g><path d="M290.60916,161.90308c0,0.93799 -0.33614,1.82475 -0.94759,2.53224c-0.54743,0.66908 -1.24851,1.18129 -2.04884,1.51102c0.01601,0.7267 0.03842,1.61346 0.06723,2.64429v1.54624c0.08644,2.02003 0.12485,2.82676 0.14086,3.1469c0.01601,0.12165 0.02561,0.2465 0.02881,0.37455c0.01921,0.98281 -0.0096,2.38818 -0.08644,4.29937c-0.0064,0.14726 -0.02241,0.29452 -0.04802,0.43858c-0.13766,0.82274 -0.51221,1.62307 -1.11406,2.37538c-0.79713,0.99241 -1.89518,1.62307 -3.09888,1.77353c-0.14726,0.01921 -0.29452,0.02881 -0.44178,0.02881c-0.69469,0 -1.17488,-0.17927 -1.96881,-0.477c-0.9732,-0.36495 -1.72871,-1.13967 -2.07766,-2.10647c-0.79393,0.29772 -1.61667,0.41617 -2.43941,0.34894c-0.39056,-0.01921 -0.9668,0.0096 -1.6999,0.08003c-0.10884,0.01281 -0.44818,0.06403 -1.2133,0.2337c-0.03842,0.0096 -0.07683,0.01601 -0.11525,0.02241c-0.78752,0.15046 -1.54944,0.20809 -2.24092,0.17927c-0.05122,-0.0032 -0.10564,-0.0064 -0.15686,-0.01281c-2.22812,-0.19528 -4.47865,-1.7063 -4.47865,-4.63231c0,-0.493 0.08003,-0.9796 0.2369,-1.4534c0.09924,-0.29132 0.2337,-0.56663 0.40337,-0.82594c0.40337,-0.61465 1.2197,-1.53023 2.65389,-1.98482v-0.55063c0,-0.25931 0.02881,-0.51861 0.08644,-0.76832l-0.05122,-0.86115c0,-0.02241 -0.0032,-0.04482 -0.0032,-0.07043c-0.01601,-0.39056 -0.04162,-0.7395 -0.08323,-1.03723c-0.01281,-0.09284 -0.02241,-0.18568 -0.02561,-0.27851c-0.01281,-0.18248 -0.02241,-0.38096 -0.03521,-0.59865c-1.99762,-0.50581 -3.35178,-2.24412 -3.35178,-4.49785c0,-1.05644 0.43218,-2.02644 1.28053,-2.87799c0.65627,-0.66267 1.39578,-1.07884 2.1961,-1.24531c0.57624,-0.12165 1.22611,-0.15046 2.27294,-0.10244c0.10564,0 0.31693,-0.0096 0.70109,-0.03201c0.52822,-0.03521 0.89637,-0.05122 1.16528,-0.05122c0.94439,0 1.72231,0.35535 2.28254,0.68188c0.83234,-0.9764 1.9528,-1.58145 3.24934,-1.75112c0.09284,-0.0096 0.18248,-0.01921 0.27531,-0.02561l1.06604,-0.05442c0.03842,-0.0032 0.07683,-0.0032 0.11525,-0.0032c0.86115,-0.01921 2.28574,-0.11525 4.23855,-0.29452c1.06604,-0.11525 2.13208,0.14086 3.11488,0.74911c1.36696,0.84195 2.15129,2.16409 2.15129,3.62709z" fill="#00cccc" stroke="none"/><path d="M286.97468,162.15759c-0.3006,0.39408 -0.73214,0.61978 -1.29557,0.6758c-0.92006,0.05634 -1.44572,0.1034 -1.57697,0.14054c-0.01889,0.39408 -0.02817,1.02346 -0.02817,1.88686c0.00928,0.8826 0.03746,2.15897 0.08451,3.82974c0,0.35663 0,0.8634 0,1.52063c0.11301,2.66574 0.16903,3.83902 0.16903,3.51953c0.01857,0.90117 -0.0096,2.26237 -0.08451,4.08328c-0.03778,0.22537 -0.16903,0.4786 -0.39408,0.76031c-0.22537,0.28172 -0.48852,0.44082 -0.78848,0.4786c-0.03778,0 -0.28172,-0.08451 -0.73214,-0.25322c-0.05634,-0.24394 -0.13157,-0.45075 -0.22537,-0.61978c-0.37583,-0.56311 -0.8826,-1.36088 -1.52031,-2.39363c-0.41329,-0.80705 -1.06092,-2.01779 -1.94288,-3.63286c-0.61978,-0.86308 -1.5488,-2.25245 -2.78771,-4.16748c-0.13157,-0.26251 -0.35695,-0.65691 -0.6758,-1.18257h-0.05634c-0.05634,0.82626 -0.04706,1.66116 0.02817,2.50599c0,0.03778 0.01409,0.1034 0.04226,0.1972c0.02817,0.09412 0.04226,0.16871 0.04226,0.22505v1.94288c0,0.90117 -0.03778,1.61475 -0.11269,2.1404c0.01889,0.26283 0.06627,0.64731 0.14182,1.1544c0.26475,0.15046 0.58648,0.22505 0.9652,0.22505c0.15142,0 0.35919,-0.01857 0.62426,-0.05634c0.26475,-0.03746 0.46355,-0.05634 0.59609,-0.05634c0.54871,0 0.94567,0.19688 1.19249,0.59128c0.09348,0.37583 -0.1034,0.6758 -0.5916,0.90117c-0.41297,0.20681 -0.81666,0.291 -1.21074,0.25322c-0.56311,-0.03714 -1.34231,-0.00736 -2.33728,0.08932c-0.35663,0.04002 -0.89189,0.13958 -1.60514,0.29836c-0.52598,0.09892 -1.00457,0.1383 -1.43611,0.11941c-0.84483,-0.07491 -1.26708,-0.45043 -1.26708,-1.12654c0,-0.11269 0.01857,-0.22537 0.05602,-0.33806c0.2974,-0.45043 0.82818,-0.6758 1.59138,-0.6758c0.09284,0 0.2417,0 0.4469,0c0.186,0 0.32557,0 0.41905,0c0.37199,0 0.63258,-0.06531 0.78144,-0.19688c0,-0.11301 0,-0.30028 0,-0.56343v-3.04093c0.07491,-0.20681 0.10308,-0.49749 0.08483,-0.87332c-0.01921,-0.31885 -0.03778,-0.6377 -0.05634,-0.95719c-0.01921,-0.50677 -0.05666,-0.9668 -0.11301,-1.38009c-0.03778,-0.67548 -0.08451,-1.57697 -0.14054,-2.70287c0,0.05634 0.00896,-0.12197 0.02817,-0.53526c0.01857,-0.24394 -0.04226,-0.41265 -0.1828,-0.50677c-0.14086,-0.0938 -0.36175,-0.14086 -0.66171,-0.14086c-0.15046,0 -0.37583,0.01921 -0.6758,0.05666c-0.30028,0.03778 -0.52598,0.05634 -0.6758,0.05634c-0.71357,0 -1.06988,-0.37551 -1.06988,-1.12654c0,-0.0938 0.08387,-0.22537 0.25194,-0.39408c0.16807,-0.16903 0.30861,-0.26251 0.42065,-0.28172c0.24266,-0.05634 0.7379,-0.06531 1.48573,-0.02817c0.22409,0 0.55575,-0.01409 0.99465,-0.04226c0.43922,-0.02817 0.75263,-0.04226 0.93959,-0.04226c0.13061,0 0.34542,0.0954 0.64475,0.28652c0.29932,0.19112 0.50453,0.38128 0.61689,0.57208c0.01889,0 0.54871,0.94599 1.58913,2.83669c0.41361,0.76896 0.88869,1.56224 1.42523,2.37794c0.5359,0.81634 1.16144,1.80586 1.87629,2.96826c0.46995,0.80705 1.15664,2.02611 2.06005,3.65815c0.07491,-0.31885 0.11301,-0.65691 0.11301,-1.01354c0,-0.0938 0.01857,-0.31405 0.05634,-0.66171c0.03778,-0.34702 0.05666,-0.59577 0.05666,-0.74623c0,-0.15014 -0.01889,-0.38928 -0.05634,-0.71806c-0.03778,-0.32814 -0.05634,-0.50197 -0.05634,-0.52085v-1.63331c0,-0.16903 -0.04674,-2.47814 -0.13958,-6.92733c-0.07459,-0.01857 -0.15847,-0.02817 -0.25162,-0.02817c-0.16743,0 -0.41905,0.03778 -0.75391,0.11269c-0.3355,0.07523 -0.56791,0.12261 -0.69853,0.14086c-0.24234,-0.01857 -0.56823,-0.02817 -0.978,-0.02817c-0.01857,-0.01857 -0.14438,-0.10788 -0.37712,-0.26763c-0.23338,-0.15943 -0.33998,-0.2958 -0.32141,-0.40817c0,-0.13093 0.04674,-0.30989 0.14086,-0.53494c0.26251,-0.31917 0.60953,-0.50709 1.04171,-0.56343c0.35631,-0.01857 0.71357,-0.03746 1.0702,-0.05634c0.95719,-0.01857 2.46822,-0.12197 4.53339,-0.30989c0.28172,-0.03714 0.58168,0.04226 0.90117,0.23946c0.31885,0.19688 0.4786,0.40817 0.4786,0.63354c-0.00032,0.09572 -0.03842,0.18023 -0.11301,0.25483z" fill="#ffffff" stroke="#ffffff"/><path d="M315.49888,162.03446c-0.01329,0.05647 -0.02325,0.11294 -0.03986,0.16941c-0.04983,0.20927 -0.1528,0.70421 -0.25577,1.67084c0,0.01661 0,0.0299 -0.00332,0.03986c0.56802,2.28536 -0.38864,3.67717 -1.0231,4.31162c-0.03986,0.04318 -0.08304,0.08304 -0.12955,0.1229c-0.62117,0.5647 -1.70738,1.23901 -3.32838,1.23901c-0.80718,0 -1.56122,-0.17937 -2.21892,-0.50823c0.01661,0.90684 0.02657,2.15581 0.02657,3.88976c0.59791,0.20927 1.146,0.54809 1.61104,0.9932c0.92344,0.8869 1.42835,2.07277 1.42835,3.33835c0,1.88011 -1.08289,3.5144 -2.8268,4.26179c-0.04318,0.01993 -0.08969,0.03986 -0.13287,0.05647c-0.58463,0.22256 -1.24233,0.33217 -2.01298,0.33217c-0.27903,0 -0.57798,-0.01329 -0.90351,-0.04318c-0.1993,-0.00997 -0.49162,-0.00664 -0.83708,0.00332c-0.62781,0.06976 -1.51139,0.13951 -2.69393,0.20595c-0.02325,0 -0.0465,0.00332 -0.07308,0.00332c-0.15612,0.00664 -0.3056,0.00997 -0.45176,0.00997c-2.11595,0 -3.66056,-0.67099 -4.59397,-1.98972c-0.01993,-0.02657 -0.03654,-0.05315 -0.05315,-0.07972c-0.95002,-1.41838 -0.97659,-3.21212 -0.07308,-4.67701c0.00664,-0.01661 0.01661,-0.0299 0.02657,-0.0465c0.57466,-0.90351 1.41506,-1.54793 2.50459,-1.92661c0.01329,-0.6411 0.00997,-1.44496 -0.00997,-2.3983c-0.54144,0.22588 -1.16593,0.35875 -1.86682,0.35875c-1.85021,0 -3.37821,-1.0995 -3.90969,-2.77033c-0.10962,-0.33882 -0.21259,-0.83376 -0.45176,-1.94986c-0.00997,-0.03986 -0.01661,-0.07972 -0.02325,-0.11958l-0.49162,-2.74708c-0.01661,-0.05979 -0.03986,-0.12955 -0.06643,-0.20927c-0.25577,-0.72746 -0.37536,-1.34531 -0.37536,-1.94322c0,-0.74075 0.21591,-1.86018 1.23901,-2.97628c0.51487,-0.5647 1.4516,-1.29548 2.95967,-1.53132c0.18602,-0.0299 0.37536,-0.0465 0.5647,-0.0465h3.67385c0.08304,0 0.16609,0.00332 0.24913,0.00997c1.40177,0.04983 2.65739,0.0465 3.73364,-0.00332c1.50475,-0.06643 3.00618,-0.19598 4.47771,-0.38532c0.16609,-0.05315 0.34546,-0.1063 0.53812,-0.1528c0.1827,-0.0465 0.36871,-0.0764 0.55473,-0.09633c1.41506,-0.12955 2.73379,0.27903 3.76021,1.15597c1.27223,1.09285 1.8336,2.74708 1.49811,4.42788z" fill="#00cccc" stroke="none"/><path d="M311.91538,161.3183c-0.13619,0.54576 -0.25312,1.28551 -0.35044,2.22058c-0.03953,0.4677 -0.02026,0.84738 0.05846,1.13969c0.13553,0.4873 0.12656,0.80884 -0.02923,0.9643c-0.21458,0.19465 -0.50657,0.29198 -0.87661,0.29198c-0.42884,0 -0.71185,-0.12722 -0.84738,-0.38233c-0.02026,-0.7846 -0.0103,-1.52069 0.02923,-2.20763c0.0382,-0.84372 0.05846,-1.28518 0.05846,-1.32438c-0.02026,0 -0.04916,-0.0196 -0.08769,-0.05913c-1.81201,0.07873 -3.5164,0.19565 -5.11349,0.35177c-0.0392,0.19565 -0.0392,0.50756 0,0.93673c0.0774,0.60522 0.11693,0.95666 0.11693,1.05366c-0.07773,0.60522 -0.11693,1.50276 -0.11693,2.6936c0.0774,0.50756 0.11693,2.68397 0.11693,6.52888v2.13754c0,0.33184 0.04817,0.56602 0.14483,0.70255h1.79407c0.32786,-0.03886 0.59293,0.0392 0.79589,0.23385c0.20229,0.19499 0.30361,0.4285 0.30361,0.70089c0,0.42817 -0.20429,0.73045 -0.61353,0.90617c-0.25345,0.09699 -0.70122,0.11693 -1.34398,0.05846c-0.31158,-0.01993 -0.76965,-0.01993 -1.37354,0c-0.54543,0.06776 -1.42171,0.13586 -2.62949,0.20429c-1.052,0.03886 -1.69475,-0.10729 -1.9286,-0.43814c-0.15612,-0.23352 -0.15612,-0.47733 0,-0.73045c0.27238,-0.42817 0.98357,-0.64276 2.13322,-0.64276c0.40891,0 0.66169,-0.03388 0.75935,-0.10198c0.09733,-0.0681 0.14616,-0.19964 0.14616,-0.39429c0,-0.17472 0,-0.33981 0,-0.4956c0,-0.29132 0,-0.71916 0,-1.28286c0.05846,-0.99088 0.05846,-2.46872 0,-4.4322c-0.07806,-2.8185 -0.0392,-5.29652 0.11693,-7.43505c-0.0196,-0.01927 -0.04883,-0.0485 -0.08836,-0.08769c-0.70521,0.0392 -1.84124,0.0196 -3.40811,-0.05879c-0.17638,0 -0.7743,0.03953 -1.79241,0.11726c0.25312,1.77281 0.40891,3.10716 0.46737,4.00303c0,0.11693 -0.0196,0.38001 -0.05846,0.78891c-0.0196,0.29198 -0.26308,0.43814 -0.73045,0.43814c-0.25345,0 -0.39927,-0.08703 -0.43814,-0.26076c-0.0196,-0.0382 -0.13652,-0.56038 -0.35078,-1.56487c-0.11693,-0.65671 -0.28268,-1.58414 -0.4966,-2.78196c0,-0.0764 -0.06843,-0.31789 -0.20429,-0.72414c-0.11626,-0.32852 -0.17439,-0.57964 -0.17439,-0.75337c0,-0.13486 0.09201,-0.3046 0.2777,-0.5069c0.18502,-0.20263 0.46272,-0.3335 0.83276,-0.39163c0.05846,0 0.15047,0 0.2777,0c0.12623,0 0.22854,0 0.3066,0c2.31824,0 3.33104,0 3.03873,0c1.57783,0.05879 2.98027,0.05879 4.20732,0c1.75288,-0.0774 3.48617,-0.23352 5.20085,-0.46737c0.11693,-0.05846 0.29198,-0.11693 0.5255,-0.17506c0.42884,-0.03886 0.77928,0.05846 1.05233,0.29231c0.27238,0.23319 0.36971,0.5451 0.29198,0.93474z" fill="#ffffff" stroke="#ffffff"/><g stroke="none"><path d="M336.16083,174.70075c0.07429,0.28057 -0.05133,0.70621 -0.37813,1.27628c-0.32616,0.57039 -0.67114,0.9769 -1.03492,1.21985c-0.36379,0.24295 -0.92812,0.40205 -1.69235,0.47665c-0.61566,0.05611 -1.18924,-0.21521 -1.72041,-0.81334c-0.53181,-0.59813 -0.83438,-1.26193 -0.90899,-1.9911c-0.20565,-2.05646 -0.46677,-3.5336 -0.78369,-4.43111c-0.03762,-0.22414 -0.13997,-0.55572 -0.30799,-0.99539c-0.16771,-0.43903 -0.54998,-0.79931 -1.14683,-1.07988c-0.44796,-0.16802 -0.90452,-0.34561 -1.37065,-0.53277c-0.07461,-0.01849 -0.16771,-0.01849 -0.27961,0c-0.26112,0.07461 -0.8025,0.22414 -1.62285,0.4486v0.53277v2.1875c0,0.03762 0.01403,0.21521 0.04209,0.53277c0.02806,0.31819 0.04209,0.54265 0.04209,0.67305c0.0373,0.31819 0.08449,1.15959 0.14029,2.52387c0.1304,0.05643 0.27069,0.05643 0.42054,0c0.50471,-0.20565 0.9533,-0.2522 1.3461,-0.13997c0.28057,0.09374 0.42054,0.31819 0.42054,0.67305c0,0.52384 -0.27579,0.83693 -0.82737,0.93928c-0.55158,0.10298 -1.36013,0.24805 -2.42567,0.43489c-0.86021,0.16802 -1.49595,0.2522 -1.90693,0.2522c-0.63575,0 -1.07542,-0.14953 -1.31805,-0.4486c-0.05611,-0.61726 0.26144,-0.99061 0.9533,-1.12197c0.56114,-0.05611 1.12197,-0.12147 1.68247,-0.1964c0.07461,-0.0931 0.11255,-0.19608 0.11255,-0.30831c-0.01913,-0.4301 -0.12179,-1.97261 -0.30863,-4.62751c-0.05611,-0.63543 -0.07493,-1.12197 -0.05611,-1.45833c-0.33669,-0.01849 -0.56114,-0.04655 -0.67305,-0.08417c-0.28057,-0.09342 -0.45848,-0.27101 -0.53277,-0.53277v-0.08449c0.03698,-0.01849 0.06504,-0.11223 0.08417,-0.28025c0.26144,-0.41129 0.59813,-0.57007 1.00974,-0.47697c0.03698,-0.11223 0.02806,-0.41097 -0.02838,-0.89719c-0.16802,-1.77589 -0.27133,-3.19692 -0.30831,-4.26277c-0.07493,-0.07429 -0.23402,-0.09342 -0.47697,-0.05611c-0.37399,0.07493 -0.57039,0.11223 -0.58888,0.11223c-1.00974,0 -1.49595,-0.24263 -1.45833,-0.72917c0.0373,-0.4486 0.42054,-0.71928 1.1497,-0.81334c0.65424,-0.1304 2.0284,-0.33637 4.1228,-0.61694c-0.09374,0.01881 0.57007,0.04655 1.9911,0.08417c1.64485,0.13104 2.79487,0.40236 3.44943,0.81334c0.71036,0.46772 1.18701,1.08434 1.42996,1.85113c0.07429,0.24327 0.09342,0.60769 0.05611,1.09391c-0.01881,0.48622 -0.09374,0.83183 -0.22414,1.03748c-0.43042,0.78528 -1.29955,1.48639 -2.60836,2.10365c0,0.05611 0.00925,0.09374 0.02806,0.11223c0.46741,0.33669 0.78528,0.63575 0.95362,0.89719c0.48558,0.78528 0.81334,1.92606 0.98136,3.42137c0.24295,2.03829 0.43903,3.31871 0.58888,3.84223c0.01881,0.11223 0.14953,0.28982 0.39248,0.53277c0.24295,0.24359 0.43935,0.37431 0.5892,0.39248c0.579,0.03762 0.93481,-0.22414 1.06585,-0.78528c-0.01913,-0.20565 0.06504,-0.4859 0.2522,-0.84139c0.26176,-0.24295 0.57932,-0.36474 0.95362,-0.36474c0.37463,0.00064 0.61758,0.1693 0.73012,0.50535zM330.55195,164.85716c0.16802,-0.16802 0.2522,-0.42978 0.2522,-0.78528c0,-0.9533 -0.33669,-1.6356 -1.00942,-2.04721c-0.67305,-0.41097 -2.1317,-0.59813 -4.37532,-0.56082c-0.16802,0 -0.42054,0.07461 -0.75722,0.22414c0.05643,0.28057 0.05643,0.51427 0,0.70111c-0.01881,0.28057 -0.01881,0.54233 0,0.78528c0.00925,0.50471 0.02838,1.13153 0.05643,1.87919c0.0931,1.10315 0.13997,1.72041 0.13997,1.85081c0.31756,-0.01849 0.78528,-0.11223 1.40222,-0.28025c0.0931,-0.09342 0.22414,-0.1964 0.39248,-0.30863c0.1304,-0.0373 0.46709,-0.05611 1.00942,-0.05611c1.02855,0.00032 1.99174,-0.46677 2.88925,-1.40222z" fill="#faa83b"/><path d="M332.89824,181.188c-1.09965,0 -2.71835,-0.34689 -4.18561,-1.99875c-0.02423,-0.02742 -0.04814,-0.05484 -0.07237,-0.08258c-0.44764,0.25538 -0.95171,0.44062 -1.50074,0.54265c-0.55126,0.10266 -1.36173,0.24837 -2.42758,0.4352c-1.0904,0.21202 -1.90023,0.31086 -2.54555,0.31086c-2.1706,0 -3.39619,-0.95012 -4.04246,-1.74719c-0.43807,-0.5401 -0.70557,-1.1988 -0.76838,-1.8913c-0.1795,-1.97803 0.83725,-3.68505 2.56181,-4.49105c-0.02519,-0.36634 -0.05388,-0.78145 -0.08672,-1.25077c-0.55317,-0.51874 -0.96096,-1.18286 -1.17776,-1.94614c-0.08863,-0.31182 -0.13359,-0.63447 -0.13359,-0.95872v-0.08449c0,-0.39726 0.06727,-0.78464 0.19289,-1.14811c0.0915,-0.35805 0.23912,-0.70047 0.43871,-1.0142c0.10362,-0.16292 0.21457,-0.31724 0.33222,-0.46326c-0.00255,-0.02806 -0.0051,-0.05643 -0.00701,-0.08449c-0.56879,-0.2133 -1.15512,-0.55445 -1.66079,-1.1006c-0.76679,-0.82896 -1.14078,-1.91203 -1.05246,-3.05057c0.21075,-2.53471 2.28538,-3.7265 4.0584,-4.00133c0.76137,-0.14602 2.15275,-0.3539 4.24491,-0.63415c0.32808,-0.04368 0.65201,-0.04113 0.96478,0.00383c0.19799,0.00893 0.63702,0.02551 1.58427,0.05038c0.06217,0.00159 0.12466,0.0051 0.18652,0.00988c2.26784,0.18046 3.86806,0.60578 5.0353,1.33877c0.02168,0.01339 0.04304,0.0271 0.0644,0.04113c1.37607,0.90644 2.35967,2.1926 2.84429,3.7198c0.00351,0.01148 0.00701,0.02264 0.01052,0.03411c0.20405,0.66668 0.26909,1.40636 0.20405,2.32396c-0.04782,1.03588 -0.27451,1.88652 -0.69186,2.59369c-0.24199,0.42851 -0.5334,0.83183 -0.87583,1.21188c0.29205,0.83183 0.50471,1.77589 0.64308,2.84684c0.13072,-0.00988 0.26272,-0.01499 0.39599,-0.01499c1.87473,0 3.46665,1.13823 4.05553,2.90009c0.02327,0.07046 0.04464,0.14092 0.06345,0.21266c0.48143,1.81383 -0.42628,3.3981 -0.72438,3.91875c-0.60418,1.05597 -1.30147,1.83965 -2.13043,2.39314c-0.85925,0.5739 -1.93849,0.9176 -3.29862,1.05087c-0.18141,0.01722 -0.34115,0.02423 -0.49897,0.02423z" fill="#00cccc"/></g><path d="M336.16083,174.70075c0.07429,0.28057 -0.05133,0.70621 -0.37813,1.27628c-0.32616,0.57039 -0.67114,0.9769 -1.03492,1.21985c-0.36379,0.24295 -0.92812,0.40205 -1.69235,0.47665c-0.61566,0.05611 -1.18924,-0.21521 -1.72041,-0.81334c-0.53181,-0.59813 -0.83438,-1.26193 -0.90899,-1.9911c-0.20565,-2.05646 -0.46677,-3.5336 -0.78369,-4.43111c-0.03762,-0.22414 -0.13997,-0.55572 -0.30799,-0.99539c-0.16771,-0.43903 -0.54998,-0.79931 -1.14683,-1.07988c-0.44796,-0.16802 -0.90452,-0.34561 -1.37065,-0.53277c-0.07461,-0.01849 -0.16771,-0.01849 -0.27961,0c-0.26112,0.07461 -0.8025,0.22414 -1.62285,0.4486v0.53277v2.1875c0,0.03762 0.01403,0.21521 0.04209,0.53277c0.02806,0.31819 0.04209,0.54265 0.04209,0.67305c0.0373,0.31819 0.08449,1.15959 0.14029,2.52387c0.1304,0.05643 0.27069,0.05643 0.42054,0c0.50471,-0.20565 0.9533,-0.2522 1.3461,-0.13997c0.28057,0.09374 0.42054,0.31819 0.42054,0.67305c0,0.52384 -0.27579,0.83693 -0.82737,0.93928c-0.55158,0.10298 -1.36013,0.24805 -2.42567,0.43489c-0.86021,0.16802 -1.49595,0.2522 -1.90693,0.2522c-0.63575,0 -1.07542,-0.14953 -1.31805,-0.4486c-0.05611,-0.61726 0.26144,-0.99061 0.9533,-1.12197c0.56114,-0.05611 1.12197,-0.12147 1.68247,-0.1964c0.07461,-0.0931 0.11255,-0.19608 0.11255,-0.30831c-0.01913,-0.4301 -0.12179,-1.97261 -0.30863,-4.62751c-0.05611,-0.63543 -0.07493,-1.12197 -0.05611,-1.45833c-0.33669,-0.01849 -0.56114,-0.04655 -0.67305,-0.08417c-0.28057,-0.09342 -0.45848,-0.27101 -0.53277,-0.53277v-0.08449c0.03698,-0.01849 0.06504,-0.11223 0.08417,-0.28025c0.26144,-0.41129 0.59813,-0.57007 1.00974,-0.47697c0.03698,-0.11223 0.02806,-0.41097 -0.02838,-0.89719c-0.16802,-1.77589 -0.27133,-3.19692 -0.30831,-4.26277c-0.07493,-0.07429 -0.23402,-0.09342 -0.47697,-0.05611c-0.37399,0.07493 -0.57039,0.11223 -0.58888,0.11223c-1.00974,0 -1.49595,-0.24263 -1.45833,-0.72917c0.0373,-0.4486 0.42054,-0.71928 1.1497,-0.81334c0.65424,-0.1304 2.0284,-0.33637 4.1228,-0.61694c-0.09374,0.01881 0.57007,0.04655 1.9911,0.08417c1.64485,0.13104 2.79487,0.40236 3.44943,0.81334c0.71036,0.46772 1.18701,1.08434 1.42996,1.85113c0.07429,0.24327 0.09342,0.60769 0.05611,1.09391c-0.01881,0.48622 -0.09374,0.83183 -0.22414,1.03748c-0.43042,0.78528 -1.29955,1.48639 -2.60836,2.10365c0,0.05611 0.00925,0.09374 0.02806,0.11223c0.46741,0.33669 0.78528,0.63575 0.95362,0.89719c0.48558,0.78528 0.81334,1.92606 0.98136,3.42137c0.24295,2.03829 0.43903,3.31871 0.58888,3.84223c0.01881,0.11223 0.14953,0.28982 0.39248,0.53277c0.24295,0.24359 0.43935,0.37431 0.5892,0.39248c0.579,0.03762 0.93481,-0.22414 1.06585,-0.78528c-0.01913,-0.20565 0.06504,-0.4859 0.2522,-0.84139c0.26176,-0.24295 0.57932,-0.36474 0.95362,-0.36474c0.37463,0.00064 0.61758,0.1693 0.73012,0.50535zM330.55195,164.85716c0.16802,-0.16802 0.2522,-0.42978 0.2522,-0.78528c0,-0.9533 -0.33669,-1.6356 -1.00942,-2.04721c-0.67305,-0.41097 -2.1317,-0.59813 -4.37532,-0.56082c-0.16802,0 -0.42054,0.07461 -0.75722,0.22414c0.05643,0.28057 0.05643,0.51427 0,0.70111c-0.01881,0.28057 -0.01881,0.54233 0,0.78528c0.00925,0.50471 0.02838,1.13153 0.05643,1.87919c0.0931,1.10315 0.13997,1.72041 0.13997,1.85081c0.31756,-0.01849 0.78528,-0.11223 1.40222,-0.28025c0.0931,-0.09342 0.22414,-0.1964 0.39248,-0.30863c0.1304,-0.0373 0.46709,-0.05611 1.00942,-0.05611c1.02855,0.00032 1.99174,-0.46677 2.88925,-1.40222z" fill="#ffffff" stroke="#ffffff"/><g><path d="M363.3275,168.45993v1.37508c0,0.81539 -0.19533,1.97456 -0.61332,3.64796c-0.17188,0.77846 -0.50002,1.57965 -0.97271,2.38367c-0.00781,0.01136 -0.01562,0.01989 -0.01954,0.03125c-0.83989,1.37793 -2.22278,2.57971 -4.1135,3.57125c-2.01574,1.05405 -4.10179,1.58817 -6.20737,1.58817c-0.85161,0 -1.66415,-0.0966 -2.42592,-0.28411c-2.69937,-0.63356 -4.83229,-1.83819 -6.33628,-3.57977c-0.32423,-0.38355 -0.64457,-0.85801 -1.04303,-1.55123c-0.00781,-0.01705 -0.01562,-0.03126 -0.02735,-0.0483c-0.49221,-0.89779 -0.75395,-1.61658 -0.82427,-2.26435c-0.01172,-0.1108 -0.05469,-0.37787 -0.19533,-0.90063c-0.05078,-0.19604 -0.07813,-0.39491 -0.07813,-0.59379v-1.21599c-0.17188,-0.48015 -0.18751,-0.99438 -0.01954,-1.50294c0.06251,-0.19604 0.15235,-0.38639 0.26173,-0.56254c0,-0.34661 0.08203,-0.69323 0.2383,-1.02279c0.04297,-0.14205 0.10157,-0.28127 0.17188,-0.42048c0.00391,-0.00284 0.07422,-0.14773 0.17188,-0.54833c0.11719,-0.49151 0.33596,-1.12507 0.6641,-1.92342c0.00391,-0.00852 0.00781,-0.01989 0.01172,-0.02841c0.63675,-1.48873 1.92198,-2.90076 3.9299,-4.31562c0.01562,-0.01136 0.02735,-0.01989 0.04297,-0.02841c1.01568,-0.69891 2.18762,-1.14212 3.48456,-1.32395c0.23439,-0.03125 0.47269,-0.0483 0.71489,-0.05398c0.14844,-0.00284 0.543,-0.01989 1.18756,-0.04545c0.02344,0 0.04687,-0.00284 0.07032,-0.00284c1.90245,-0.05683 3.70333,0.23865 5.37139,0.87221c1.92588,0.71595 3.4494,1.79273 4.5315,3.20191c0.51175,0.66765 0.94927,1.47737 1.33992,2.48311c0.45705,1.13928 0.68363,2.14218 0.68363,3.0627z" fill="#00cccc" stroke="none"/><path d="M359.94068,169.96552c0,0.61652 -0.20896,1.65806 -0.62465,3.12378c-0.12999,0.53327 -0.38996,1.09154 -0.7808,1.67454c-0.59892,0.86654 -1.61928,1.63306 -3.06289,2.2993c-1.44405,0.66624 -2.8424,0.99949 -4.19506,0.99949c-0.44231,0 -0.84557,-0.04148 -1.20981,-0.12472c-1.97731,-0.39975 -3.51185,-1.15774 -4.60453,-2.27429c-0.20896,-0.21621 -0.4818,-0.58299 -0.81985,-1.0995c-0.36423,-0.58299 -0.56564,-1.03274 -0.60468,-1.34952c-0.03904,-0.31621 -0.13664,-0.73271 -0.2928,-1.24923v-1.84955c0.10381,-0.03296 0.05191,-0.08296 -0.15616,-0.14972h0.23424c0,-0.08324 0.05146,-0.24149 0.15616,-0.47474c0.10336,-0.23325 0.15616,-0.40827 0.15616,-0.52504c0,-0.1 -0.03904,-0.19149 -0.11712,-0.27502c0.10336,0 0.19475,-0.025 0.27284,-0.07501c-0.02617,-0.03324 -0.09139,-0.05 -0.19475,-0.05c0.02573,-0.01647 0.07143,-0.04148 0.13664,-0.07501c0.06477,-0.03324 0.11047,-0.05825 0.13709,-0.07501c-0.02662,-0.01676 -0.05856,-0.02926 -0.09804,-0.03779c-0.03904,-0.00796 -0.07187,-0.02046 -0.0976,-0.0375c0.15661,-0.26649 0.29901,-0.633 0.42944,-1.0995c0.10336,-0.38298 0.31232,-0.90773 0.6242,-1.57425c0.46848,-0.96597 1.535,-1.96575 3.19997,-2.99905c0.46848,-0.28298 0.97557,-0.45798 1.52213,-0.52475c0.07808,0 0.58516,-0.01676 1.52213,-0.05029c1.30076,-0.03296 2.52298,0.14177 3.66801,0.52504c1.32737,0.43326 2.36726,1.08302 3.1219,1.94927c0.39085,0.44975 0.75463,1.05802 1.09269,1.82427c0.39085,0.84948 0.5856,1.58277 0.5856,2.19901v1.37481zM357.36535,167.19176c-0.15528,-0.23297 -0.33716,-0.53299 -0.54434,-0.89977c-0.25997,-0.74977 -1.03146,-1.44072 -2.31447,-2.07428c-1.28345,-0.633 -2.4693,-0.91597 -3.55843,-0.84948c-0.49244,0.03353 -1.32249,0.55856 -2.48971,1.57453c-0.57052,0.48327 -1.1406,1.44953 -1.71067,2.89877c-0.51861,1.34952 -0.76528,2.39078 -0.73866,3.12378c0.05146,0.93301 0.12954,1.58277 0.23335,1.94899c0.18101,0.68328 0.57007,1.30804 1.16633,1.87455c0.57052,0.49975 1.0115,0.82449 1.32249,0.97478c1.16633,0.53327 2.26788,0.79948 3.30556,0.79948c0.23291,0 0.4534,-0.01647 0.66102,-0.05c0.49244,-0.05 1.07538,-0.25797 1.74972,-0.62475c0.57052,-0.33326 0.99819,-0.64124 1.28389,-0.92477c0.38863,-0.41622 0.75197,-1.04097 1.08914,-1.87427c0.51817,-1.21599 0.77814,-2.50727 0.77814,-3.87355c0.00089,-0.73271 -0.07719,-1.40748 -0.23335,-2.02399z" fill="#ffffff" stroke="#ffffff"/></g><g><path d="M383.60481,180.09663c-0.83262,0.59378 -1.85101,0.93545 -3.02198,1.00512c-0.48431,0.02986 -0.95536,0.05639 -1.40981,0.0763c-0.24879,0.01658 -1.37001,0.10284 -5.13173,0.40138c-0.02654,0.00332 -0.05639,0.00332 -0.08625,0.00663c-0.65018,0.03649 -1.7548,0.13933 -3.28736,0.3085c-1.18092,0.21562 -1.48943,0.2521 -1.84769,0.2521c-1.58231,0 -3.00871,-0.62364 -4.01051,-1.75149c-0.5009,-0.56393 -0.81272,-1.27049 -0.89896,-2.01687c-0.06303,-0.57056 -0.1924,-1.71831 0.47104,-2.8528c0.34499,-0.60041 0.99517,-1.43967 2.13297,-1.99364v-1.45294c0,-0.59378 -0.05307,-1.85101 -0.3085,-4.47492c-1.234,-0.48763 -2.15618,-1.4264 -2.5841,-2.67036c-0.00663,-0.01991 -0.01327,-0.03981 -0.01991,-0.06303c-0.17913,-0.54402 -0.26869,-1.09468 -0.26869,-1.6387c0,-1.68846 1.13117,-4.5479 5.37056,-4.5479c0.39143,0 0.84589,0.03981 1.45625,0.12605c0.04644,0.00332 0.08625,0.00332 0.12605,0.00332c0.45778,-0.05307 1.26718,-0.10615 3.24423,-0.12937h0.04644c1.76475,0 2.83953,0.74969 3.43331,1.38328c0.77954,0.8293 1.20746,1.93394 1.20746,3.10823c0,1.65529 -0.80277,3.09164 -2.14955,3.86455c-0.25875,0.14928 -0.53407,0.27533 -0.82267,0.37816c0.01327,0.19903 0.02986,0.40138 0.04644,0.61369c0.00663,0.08956 0.00995,0.17913 0.00995,0.26869v1.38991c0.00663,0.14264 0.04312,0.70656 0.25875,2.85612c0.03649,-0.00332 0.07298,-0.00663 0.10947,-0.00995c-0.02322,-0.12605 -0.04644,-0.24547 -0.06966,-0.36489c-0.17582,-0.88901 -0.01327,-1.80456 0.4445,-2.57415c0.34831,-0.72316 0.91555,-1.35011 1.66192,-1.80456c0.78618,-0.48099 1.69178,-0.73642 2.61064,-0.73642c0.77623,0 1.52923,0.20235 2.18272,0.58051c0.72316,0.42129 1.65529,1.25722 2.09648,2.88266c0.21894,0.81272 0.28196,1.59226 0.1924,2.32868c-0.00995,0.09952 -0.02654,0.52412 0.11279,1.54582c0.08625,0.17249 0.16586,0.35162 0.24547,0.54734c0.0763,0.18577 0.13933,0.37485 0.18245,0.56725c0.41465,1.77471 -0.24879,3.53283 -1.72495,4.5877z" fill="#00cccc" stroke="none"/><path d="M381.77669,176.33723c0.07696,0.33106 -0.02024,0.59378 -0.29225,0.78784c-0.27201,0.19472 -0.64653,0.30651 -1.12354,0.3357c-0.47701,0.02919 -0.93811,0.05374 -1.38593,0.07298c-0.29159,0.01824 -2.03278,0.15458 -5.22261,0.40835c-0.73941,0.04113 -1.94521,0.15425 -3.61808,0.33869c-0.77822,0.1443 -1.21576,0.21562 -1.31295,0.21562c-0.54502,0 -0.97294,-0.17515 -1.28376,-0.52545c-0.03914,-0.3503 -0.03914,-0.5543 0,-0.61269c0.2332,-0.42759 0.67074,-0.67107 1.31295,-0.72946c0.52512,-0.03881 1.04061,-0.07729 1.54649,-0.11677c0.01924,0 0.03848,-0.01958 0.05839,-0.05872c0.03881,-0.79713 -0.05839,-1.71135 -0.29192,-2.74267v-1.63406c0,-1.01142 -0.11677,-2.70353 -0.3503,-5.07733c-0.03914,-0.5835 -0.09753,-1.42972 -0.17481,-2.53833c-0.11677,-0.07729 -0.27267,-0.10648 -0.46673,-0.08757c-0.25311,0.03914 -0.40835,0.04843 -0.46673,0.02919c-0.29192,-0.04014 -0.59378,-0.07961 -0.90493,-0.11975c-0.38911,-0.08028 -0.63226,-0.2604 -0.72912,-0.54071c-0.05872,-0.18013 -0.0879,-0.3503 -0.0879,-0.51019c0,-0.60074 0.57355,-0.90095 1.72163,-0.90095c0.2332,0 0.6024,0.03914 1.10862,0.11677c0.40835,0.01991 0.68103,0.01991 0.81703,0c0.40835,-0.05839 1.39058,-0.0972 2.94734,-0.11677c0.3692,0 0.62728,0.07762 0.77291,0.23287c0.14596,0.15558 0.21894,0.35925 0.21894,0.61136c0,0.34997 -0.10715,0.58283 -0.3211,0.69894c-0.29159,0.17481 -0.74902,0.25244 -1.37133,0.23287c-0.77855,-0.01924 -1.27447,-0.00962 -1.4881,0.02919c0.03881,0.93214 0.12638,2.31973 0.26273,4.16343v1.42707c0,0.31082 0.11677,1.61117 0.3503,3.9017c0.05839,0.52445 0.13567,1.34911 0.2332,2.47497c0.03881,0.06834 0.0879,0.10217 0.14596,0.10217c0.69993,0.10715 1.34215,0.14132 1.92564,0.10217c0.71951,-0.05839 1.44896,-0.11677 2.18869,-0.17481c0.46673,-0.01924 0.93346,-0.04843 1.40053,-0.0879c0.62264,-0.03848 1.235,-0.13567 1.83806,-0.29159c0,-0.21396 -0.04843,-0.56393 -0.14563,-1.05056c-0.11677,-0.6024 -0.18543,-0.95271 -0.20401,-1.05023c0.0189,-0.19439 0.02919,-0.47668 0.02919,-0.84655c-0.07762,-0.50521 -0.15624,-0.95271 -0.2332,-1.34215c0.0189,0 0.05839,-0.02919 0.11677,-0.08757c-0.02024,-0.17481 0.08227,-0.3304 0.30651,-0.46673c0.22292,-0.136 0.46143,-0.20434 0.71452,-0.20434c0.136,0 0.25278,0.02919 0.34997,0.0879c0.17548,0.09753 0.31115,0.32575 0.40868,0.68534c0.0972,0.36025 0.12638,0.67604 0.08757,0.94839c-0.07762,0.69993 0,1.76077 0.2332,3.18021c0.1161,0.1569 0.24249,0.39972 0.37916,0.73012z" fill="#ffffff" stroke="#ffffff"/></g><path d="M404.11217,175.88422c-1.01274,2.80618 -3.76561,4.51184 -8.18025,5.06994c-0.20067,0.02508 -0.3982,0.04076 -0.59573,0.04703c-0.25711,0.37625 -0.59259,0.70233 -0.98765,0.95629c-1.03468,0.66157 -2.00352,0.98452 -2.95981,0.98452c-1.96589,0 -4.08229,-1.46737 -4.08229,-4.69056c0,-0.21948 0.0094,-0.5048 0.03135,-0.89986c0.00941,-0.16931 0.01882,-0.301 0.02195,-0.3982c-0.0533,-0.24456 -0.08152,-0.49226 -0.08152,-0.74309v-1.51754c0,-0.24769 0.02509,-0.4954 0.07525,-0.74309c0.00313,-0.21007 0.01254,-0.44522 0.02821,-0.70233c-0.07525,-0.27591 -0.13169,-0.59573 -0.13169,-0.95317c0,-0.16304 0.01254,-0.32608 0.03449,-0.48598c0.11915,-0.84028 0.49226,-1.6837 1.12247,-2.35781c-0.21634,-0.60513 -0.32922,-1.24475 -0.32922,-1.90006v-1.59905c0,-0.64902 0.12855,-1.45796 0.75876,-3.47089c0.26337,-0.86537 0.34803,-1.13501 0.46404,-1.38584c0.61768,-1.38584 1.54888,-2.07877 2.22613,-2.42053c1.10679,-0.55183 2.29512,-0.83401 3.53046,-0.83401c0.57064,0 1.1162,0.05957 1.63667,0.17245c0.23202,-0.15677 0.47972,-0.28846 0.74309,-0.3982c0.33549,-0.14423 0.69292,-0.24456 1.08798,-0.30727c0.98765,-0.16931 2.03174,0.04076 2.94101,0.59259c0.9563,0.58318 2.05368,1.79345 1.91886,4.28295c-0.02195,0.43895 -0.05957,1.02527 -0.11601,1.79031c-0.00313,0.01881 -0.00313,0.03762 -0.00627,0.05643c-0.05016,0.55497 -0.12228,1.38271 -0.21947,2.47697c0.02508,0.42328 0.01567,0.89673 -0.02195,1.45482c-0.01567,0.2132 -0.05017,0.42642 -0.10661,0.63335c-0.01254,0.04703 -0.02508,0.09092 -0.03762,0.13169c0.42328,0.54243 0.71174,1.08485 0.90927,1.55516c0.18499,0.37311 0.34176,0.80266 0.47971,1.32627c0.0533,0.19753 0.08779,0.39819 0.10346,0.60199c0.1411,1.75896 0.06898,2.79677 -0.2571,3.67469z" fill="#00cccc" stroke="none"/><path d="M400.93162,172.48671c0.09186,1.14034 0.07306,1.87528 -0.05518,2.20638c-0.53364,1.50781 -2.32646,2.45439 -5.37784,2.84067c-1.02998,0.12886 -2.05933,-0.35838 -3.08931,-1.46173c0,0.16555 0.03668,0.66188 0.11068,1.48963c0.05518,0.6067 0.04578,1.10304 -0.02759,1.489c-0.45997,0.2941 -0.82744,0.44146 -1.10335,0.44146c-0.42328,0 -0.63429,-0.41356 -0.63429,-1.2413c0,-0.14705 0.00909,-0.38127 0.02759,-0.70296c0.01819,-0.32138 0.02759,-0.54682 0.02759,-0.67568c0,-0.3126 -0.02759,-0.53302 -0.08278,-0.66188v-1.51691c0,-0.03669 0.00909,-0.07808 0.02759,-0.12417c0.01819,-0.04577 0.03668,-0.08716 0.05518,-0.12416c-0.0185,-0.2571 -0.00941,-0.65248 0.02759,-1.18581c0.03668,-0.3311 0.03668,-0.54211 0,-0.63429c-0.09218,-0.18342 -0.13764,-0.29379 -0.13764,-0.33079c0.07306,-0.51483 0.45055,-0.77224 1.13062,-0.77224c0.44115,0 0.70766,0.15646 0.79984,0.46874c0,0.2941 0.03668,0.72647 0.11037,1.29617c0.11068,0.66188 0.45965,1.32407 1.04816,1.98565c0.64339,0.75406 1.25918,1.10335 1.84801,1.04817c0.66188,-0.07306 1.32377,-0.22952 1.98565,-0.46875c0.9193,-0.3311 1.47081,-0.71706 1.65486,-1.15821c0.12824,-0.3311 0.19283,-0.68007 0.19283,-1.04816c0,-1.12122 -0.41356,-1.95806 -1.24099,-2.50957c-0.36809,-0.23891 -1.04816,-0.43205 -2.04114,-0.57942c-0.57002,-0.07306 -0.91961,-0.11037 -1.04785,-0.11037c-0.88261,0.0185 -1.70565,-0.26651 -2.46849,-0.85503c-0.76315,-0.5882 -1.14442,-1.26889 -1.14442,-2.04114v-1.59937c0,-0.34897 0.20223,-1.16731 0.60701,-2.45439c0.18342,-0.60701 0.2847,-0.92839 0.30351,-0.96539c0.16523,-0.38596 0.37656,-0.64338 0.63397,-0.77225c0.62489,-0.31229 1.28677,-0.46874 1.98565,-0.46874c1.36045,0 2.36253,0.55151 3.00622,1.65455c0.05518,0.05518 0.14705,0.13796 0.27591,0.24833c0.01819,-0.2571 0.05518,-0.65248 0.11037,-1.18581c-0.0185,-0.23891 -0.03699,-0.46875 -0.05518,-0.68948c0,-0.2571 0.12824,-0.43174 0.38596,-0.52392c0.07337,-0.03669 0.17464,-0.06427 0.30351,-0.08277c0.18374,-0.03669 0.38158,0.0094 0.59322,0.13764c0.21101,0.12886 0.29849,0.51515 0.2618,1.15822c-0.0185,0.40446 -0.05518,0.97448 -0.11037,1.70973c-0.05518,0.60701 -0.13764,1.5354 -0.24832,2.7858c0.03668,0.2941 0.03668,0.69888 0,1.2134c-0.09218,0.34929 -0.36809,0.52392 -0.82743,0.52392c-0.23923,0 -0.46875,-0.06428 -0.68948,-0.19282c-0.11037,-0.34897 -0.16523,-0.49665 -0.16523,-0.44146c0.03637,-0.49633 -0.06459,-1.15822 -0.30351,-1.98565c-0.20254,-0.42265 -0.48254,-1.02464 -0.84123,-1.8063c-0.35869,-0.78134 -0.83213,-1.19992 -1.42033,-1.2551c-0.73557,-0.05518 -1.2134,0.19314 -1.43413,0.74466c-0.07337,0.23923 -0.17495,0.58883 -0.30319,1.04816c-0.22073,0.68038 -0.35869,1.33317 -0.41388,1.95806c-0.0185,0.20254 -0.03699,0.28532 -0.05518,0.24832c0.05518,0.3681 0.11946,0.73557 0.19314,1.10335c0.09186,0.45965 0.3173,0.80924 0.67568,1.04785c0.35869,0.23923 1.04314,0.38597 2.05462,0.44115c2.48198,0.14767 4.01707,1.0118 4.60559,2.59266c0.09156,0.14737 0.18342,0.39537 0.2756,0.74434z" fill="#ffffff" stroke="#ffffff"/></g></g></svg>