<svg version="1.1" xmlns="http://www.w3.org/2000/svg" xmlns:xlink="http://www.w3.org/1999/xlink" width="243.48729" height="226.15437" viewBox="0,0,243.48729,226.15437"><g transform="translate(-144.46063,-128.11405)"><g data-paper-data="{&quot;isPaintingLayer&quot;:true}" fill-rule="nonzero" stroke-linejoin="miter" stroke-miterlimit="10" stroke-dasharray="" stroke-dashoffset="0" style="mix-blend-mode: normal"><path d="M254.9639,349.63004v-63.89572h130.73401v63.89572z" fill="#000000" stroke="#000000" stroke-width="4.5" stroke-linecap="butt"/><path d="M270.8164,262.3611c0,0 -0.96633,53.07954 -1.16271,63.86706c-0.03169,1.74071 0.02492,3.78181 -0.49572,5.06209c-0.51876,1.27557 -1.61431,1.79361 -1.90178,1.78836c-0.10277,-0.00188 -7.09952,-0.12924 -10.02223,-0.18245c-0.49187,-0.00896 -3.08631,-3.85796 -3.01863,-7.57579c0.19442,-10.6787 1.12919,-62.02644 1.12919,-62.02644" data-paper-data="{&quot;index&quot;:null}" fill="none" stroke="#080808" stroke-width="5" stroke-linecap="round"/><path d="M262.58255,260.4278c0,0 50.44815,9.61505 60.93975,11.61466c3.6527,0.69617 6.88785,4.02482 6.79575,4.50806c-0.54729,2.87152 -1.85746,9.74566 -1.8767,9.84665c-0.05382,0.28242 -0.78552,1.24846 -2.14036,1.4946c-1.35985,0.24704 -3.34594,-0.22693 -5.05617,-0.55288c-10.59853,-2.02 -62.74812,-11.95931 -62.74812,-11.95931" fill="none" stroke="#080808" stroke-width="5" stroke-linecap="round"/><g fill="none" stroke="#080808" stroke-width="5" stroke-linecap="round"><path d="M337.54705,324.01548c0,0 -9.54676,7.86618 -11.48698,9.46486c-0.31308,0.25797 -0.64159,0.61024 -1.07657,0.53577c-0.43338,-0.07422 -0.97363,-0.57444 -1.09103,-0.72795c-0.04199,-0.0549 -2.89993,-3.79198 -4.09375,-5.35307c-0.20092,-0.2627 -0.60538,-2.24863 0.06331,-2.7996c1.92066,-1.58255 11.15596,-9.1921 11.15596,-9.1921" data-paper-data="{&quot;index&quot;:null}"/><path d="M319.48104,325.31355c0,0 9.34172,-7.4785 11.2845,-9.03379c0.67639,-0.54148 2.53715,0.26164 2.7531,0.51215c1.28307,1.48859 4.35465,5.05215 4.39977,5.10449c0.12619,0.1464 0.505,0.77775 0.48877,1.21712c-0.01631,0.441 -0.42848,0.69029 -0.74517,0.94382c-1.96258,1.57114 -11.61935,9.30188 -11.61935,9.30188"/></g><path d="M312.32003,293.49332c0,0 13.33457,16.41805 16.10774,19.83248c0.96549,1.18874 -0.1155,4.08351 -0.49737,4.39366c-2.26908,1.84293 -7.70107,6.25473 -7.78087,6.31954c-0.22316,0.18125 -1.20578,0.69393 -1.92396,0.59555c-0.72082,-0.09875 -1.17765,-0.80994 -1.62971,-1.36652c-2.80143,-3.44922 -16.58573,-20.421 -16.58573,-20.421" fill="none" stroke="#080808" stroke-width="5" stroke-linecap="round"/><g fill="none" stroke="#080808" stroke-width="5" stroke-linecap="round"><path d="M315.32764,341.80364c0,0 -9.54676,7.86619 -11.48698,9.46486c-0.31308,0.25797 -0.64159,0.61025 -1.07656,0.53578c-0.43338,-0.07422 -0.97361,-0.57445 -1.09102,-0.72799c-0.04199,-0.0549 -2.89992,-3.79197 -4.09376,-5.35304c-0.20091,-0.26271 -0.60538,-2.24864 0.0633,-2.7996c1.92066,-1.58255 11.15596,-9.1921 11.15596,-9.1921" data-paper-data="{&quot;index&quot;:null}"/><path d="M297.26166,343.10172c0,0 9.34172,-7.47851 11.28449,-9.03381c0.67639,-0.54148 2.53716,0.26165 2.7531,0.51215c1.28307,1.48859 4.35465,5.05215 4.39977,5.10448c0.12619,0.1464 0.505,0.77773 0.48877,1.21712c-0.01631,0.441 -0.42848,0.6903 -0.74517,0.94382c-1.96258,1.57114 -11.61935,9.30188 -11.61935,9.30188"/></g><path d="M290.10061,311.28148c0,0 13.33458,16.41804 16.10774,19.83248c0.96548,1.18875 -0.11548,4.0835 -0.49736,4.39365c-2.26908,1.84293 -7.70108,6.25474 -7.78088,6.31954c-0.22316,0.18125 -1.20578,0.69393 -1.92396,0.59553c-0.72082,-0.09875 -1.17765,-0.80994 -1.62971,-1.36652c-2.80141,-3.44922 -16.58574,-20.42099 -16.58574,-20.42099" fill="none" stroke="#080808" stroke-width="5" stroke-linecap="round"/><path d="M293.76292,267.6778c0,0 20.39539,25.11161 24.63699,30.33404c1.47675,1.81822 0.01066,6.09364 -1.15016,7.03644c-6.89771,5.60225 -26.72101,21.70253 -26.96359,21.89956c-0.67839,0.55098 -3.45445,2.36918 -5.13377,2.69045c-1.6855,0.32247 -2.27431,-0.85457 -2.96574,-1.70589c-4.28483,-5.27566 -26.37902,-32.47887 -26.37902,-32.47887" fill="none" stroke="#080808" stroke-width="5" stroke-linecap="round"/><g fill="none" stroke="#080808" stroke-width="5" stroke-linecap="round"><path d="M232.5819,291.5358c-20.88107,-26.65555 -5.74714,-48.84006 8.38655,-58.54883"/><g><path d="M233.65965,238.92311c12.40083,-11.84233 37.21743,-22.1052 59.02433,3.79837" data-paper-data="{&quot;index&quot;:null}"/><path d="M290.389,293.83548c-12.40085,11.8423 -37.21743,22.1052 -59.02433,-3.79837" data-paper-data="{&quot;index&quot;:null}"/><path d="M291.46675,241.22279c20.88108,26.65553 5.74712,48.84006 -8.38657,58.54883" data-paper-data="{&quot;index&quot;:null}"/></g></g><g fill="none" stroke="#080808" stroke-width="5" stroke-linecap="round"><path d="M235.4756,291.3107c-13.28057,-17.24643 2.50487,-36.42565 15.61293,-45.93395"/><g><path d="M244.1742,250.99249c11.99429,-10.8796 34.00306,-22.3964 48.15949,-5.86135" data-paper-data="{&quot;index&quot;:null}"/><path d="M282.85269,284.48608c-11.99431,10.87959 -34.00307,22.3964 -48.15948,5.86135" data-paper-data="{&quot;index&quot;:null}"/><path d="M291.5513,244.16787c13.28057,17.24643 -2.50487,36.42565 -15.61293,45.93395" data-paper-data="{&quot;index&quot;:null}"/></g></g><text transform="translate(155.84166,195.29104) rotate(-16.94741) scale(0.54677,0.54677)" font-size="40" xml:space="preserve" fill="#ffffff" fill-rule="nonzero" stroke="#000000" stroke-width="10" stroke-linecap="butt" stroke-linejoin="miter" stroke-miterlimit="10" stroke-dasharray="" stroke-dashoffset="0" font-family="Pixel" font-weight="normal" text-anchor="start" style="mix-blend-mode: normal"><tspan x="0" dy="0">            Bot's</tspan><tspan x="0" dy="46.150000000000006px">Adventure</tspan></text><path d="M281.87774,235.25867c1.10468,1.35521 -7.72819,-3.61902 -16.05442,-3.437c-1.7569,0.03842 -3.58681,0.17332 -5.44499,0.40145c-8.26016,1.01401 -17.07908,3.86967 -22.5276,8.27664c-6.33155,5.1212 -11.0405,17.94106 -11.56329,28.00255c-0.50788,9.77515 10.51599,26.08228 9.34618,24.64714c-0.57676,-0.70757 -6.39962,-5.21725 -9.53582,-12.49391c-1.91582,-4.44511 -3.28978,-11.00806 -3.75617,-14.59696c-0.71662,-5.51439 1.93498,-10.89379 3.14319,-14.45933c2.01638,-5.95047 6.58438,-10.95159 11.3351,-14.79414c5.87724,-4.75373 13.30345,-8.53294 20.15307,-9.28272c7.69854,-0.84272 16.03712,-0.18776 17.29335,1.35337c0,0 2.11251,0.19044 3.09939,1.01804c1.40169,1.17546 4.512,5.3649 4.512,5.3649z" fill="#b9d7ff" stroke="none" stroke-width="0" stroke-linecap="butt"/><path d="M324.34029,329.8593l-9.73006,-11.98002l9.80184,-7.96096l9.73007,11.98003z" fill-opacity="0.55686" fill="#000000" stroke-opacity="0.55294" stroke="#000000" stroke-width="0" stroke-linecap="butt"/><g fill-opacity="0.55686" fill="#000000" stroke-opacity="0.55294" stroke="#000000" stroke-width="0"><path d="M316.20694,303.25992c0,0 11.55006,14.22086 13.95209,17.17835c0.83629,1.02966 1.1015,2.56115 0.87147,2.74798c-1.36688,1.11016 -5.29514,4.30066 -5.34321,4.3397c-0.13444,0.10919 -0.7632,0.37266 -1.2838,0.20506c-0.52254,-0.16823 -0.93744,-0.76864 -1.329,-1.25074c-2.42652,-2.98762 -14.9386,-18.39298 -14.9386,-18.39298" stroke-linecap="round"/><path d="M323.90336,327.22532l-8.65854,-10.66073c0,0 1.63101,-1.32469 2.59224,-2.10541c1.20479,-0.97853 4.07226,-3.30745 4.07226,-3.30745l8.65855,10.66075z" stroke-linecap="butt"/></g><path d="M302.12089,347.64748l-9.73007,-11.98003l9.80184,-7.96095l9.73006,11.98003z" fill-opacity="0.55686" fill="#000000" stroke-opacity="0.55294" stroke="#000000" stroke-width="0" stroke-linecap="butt"/><g fill-opacity="0.55686" fill="#000000" stroke-opacity="0.55294" stroke="#000000" stroke-width="0"><path d="M293.98754,321.04807c0,0 11.55004,14.22086 13.95208,17.17835c0.83629,1.02966 1.1015,2.56115 0.87147,2.74798c-1.36688,1.11016 -5.29515,4.30067 -5.34322,4.33971c-0.13444,0.10919 -0.7632,0.37266 -1.28382,0.20506c-0.52254,-0.16823 -0.93743,-0.76865 -1.32899,-1.25075c-2.42652,-2.98762 -14.9386,-18.393 -14.9386,-18.393" stroke-linecap="round"/><path d="M301.68398,345.01349l-8.65855,-10.66075c0,0 1.63101,-1.32469 2.59225,-2.1054c1.20479,-0.97853 4.07226,-3.30746 4.07226,-3.30746l8.65854,10.66074z" stroke-linecap="butt"/></g><path d="M295.94715,251.68649c9.06822,11.16515 3.98558,30.31499 -11.35241,42.77234c-15.33799,12.45736 -35.12313,13.5049 -44.19135,2.33974c-9.06822,-11.16515 -3.98556,-30.31497 11.35241,-42.77234c15.33799,-12.45736 35.12313,-13.5049 44.19135,-2.33974z" fill-opacity="0.55686" fill="#000000" stroke-opacity="0.55294" stroke="#000000" stroke-width="0" stroke-linecap="butt"/><path d="M248.03818,256.86446c-3.3789,3.72951 -6.85898,7.15179 -8.588,11.70544c-1.15393,3.03909 -4.04635,8.59321 -4.44662,12.58525c-0.68895,6.8713 2.0059,12.37988 1.16548,11.55594c-0.29807,-0.29223 -3.17964,-2.70165 -4.45447,-7.08828c-0.7339,-2.52533 -2.43461,-5.09405 -2.68855,-8.1741c-0.44082,-5.34646 0.95361,-12.77262 2.29722,-16.27774c2.29442,-5.98559 9.76486,-15.51096 11.20825,-17.10412c0.56907,-0.62811 2.47907,-1.15385 3.1435,-1.58883c2.55435,-1.67223 5.37365,-4.80496 7.94219,-5.98235c0.4083,-0.18716 1.16056,1.65582 1.53307,1.46217c3.42481,-1.78036 12.09175,-2.58673 18.71348,-2.59705c2.60306,-0.00407 11.83676,2.83098 14.94202,4.16813c4.83528,2.08214 5.03625,8.19295 5.45999,8.60839c0,0 -12.78779,-7.13871 -20.13651,-5.72467c-9.96761,1.91797 -17.57327,5.78246 -23.05057,11.82811z" fill-opacity="0.55686" fill="#000000" stroke-opacity="0.55294" stroke="#000000" stroke-width="0" stroke-linecap="butt"/><path d="M284.38741,238.42647c0.96393,1.18683 -7.10564,-2.87421 -15.01323,-2.19132c-1.66855,0.14409 -3.41232,0.38206 -5.18865,0.70809c-7.89632,1.4493 -16.43632,4.63867 -21.87574,9.05652c-6.32099,5.13384 -11.57868,17.29719 -12.69596,26.64743c-1.08547,9.08414 2.35733,11.64955 1.33655,10.39273c-0.81073,-0.99819 -2.72065,-4.11968 -3.30243,-12.8083c-0.339,-5.06261 0.88271,-9.8121 2.24879,-13.18879c2.27982,-5.63529 6.9209,-10.54899 11.66368,-14.40103c5.86743,-4.76547 13.69504,-7.8016 20.23734,-8.91907c7.35312,-1.25598 13.161,-0.21142 14.25717,1.13823z" fill-opacity="0.55686" fill="#000000" stroke-opacity="0.55294" stroke="#000000" stroke-width="0" stroke-linecap="butt"/><path d="M244.15028,299.74276l-4.22246,-30.23555" fill-opacity="0.55686" fill="#000000" stroke-opacity="0.55294" stroke="#000000" stroke-width="2.5" stroke-linecap="round"/><path d="M253.97567,302.38186l-7.16362,-42.75879" fill-opacity="0.55686" fill="#000000" stroke-opacity="0.55294" stroke="#000000" stroke-width="2.5" stroke-linecap="round"/><path d="M253.26161,253.93293l10.38671,48.95265" fill-opacity="0.55686" fill="#000000" stroke-opacity="0.55294" stroke="#000000" stroke-width="2.5" stroke-linecap="round"/><path d="M271.24574,300.55602l-10.76059,-51.36029" fill-opacity="0.55686" fill="#000000" stroke-opacity="0.55294" stroke="#000000" stroke-width="2.5" stroke-linecap="round"/><path d="M285.06326,291.14108l-12.69274,-45.95005" fill-opacity="0.55686" fill="#000000" stroke-opacity="0.55294" stroke="#000000" stroke-width="2.5" stroke-linecap="round"/><path d="M291.64064,284.2174l-11.80057,-40.12239" fill-opacity="0.55686" fill="#000000" stroke-opacity="0.55294" stroke="#000000" stroke-width="2.5" stroke-linecap="round"/><path d="M297.91192,276.63862l-9.35213,-31.26589" fill-opacity="0.55686" fill="#000000" stroke-opacity="0.55294" stroke="#000000" stroke-width="2.5" stroke-linecap="round"/><path d="M277.31798,297.18318l-10.40331,-51.19857" fill-opacity="0.55686" fill="#000000" stroke-opacity="0.55294" stroke="#000000" stroke-width="2.5" stroke-linecap="round"/><g fill-opacity="0.55686" fill="#000000" stroke-opacity="0.55294" stroke="#000000" stroke-width="2" stroke-linecap="round"><path d="M240.21667,297.14811c-13.28056,-17.24642 2.50487,-36.42566 15.61293,-45.93395"/><g><path d="M248.91529,256.82988c11.99429,-10.8796 34.00306,-22.3964 48.15948,-5.86135" data-paper-data="{&quot;index&quot;:null}"/><path d="M287.59378,290.32348c-11.99431,10.87959 -34.00306,22.39639 -48.15948,5.86135" data-paper-data="{&quot;index&quot;:null}"/><path d="M296.29238,250.00527c13.28057,17.24643 -2.50486,36.42566 -15.61292,45.93396" data-paper-data="{&quot;index&quot;:null}"/></g></g><g fill-opacity="0.55686" fill="#000000" stroke-opacity="0.55294" stroke="#000000" stroke-width="2"><g stroke-linecap="round"><path d="M252.82508,286.24447c-8.05697,-10.11557 -5.77784,-15.74535 -2.70492,-17.5649"/><g><path d="M248.60964,269.90638c2.41103,-2.63448 8.38858,-3.71064 16.63688,6.24951" data-paper-data="{&quot;index&quot;:null}"/><path d="M268.99703,291.9215c-2.41103,2.63448 -8.38858,3.71065 -16.63689,-6.24951" data-paper-data="{&quot;index&quot;:null}"/><path d="M264.78159,275.58343c8.05698,10.11555 5.77784,15.74535 2.70492,17.5649" data-paper-data="{&quot;index&quot;:null}"/></g></g><path d="M262.66827,275.52949c4.73256,5.82694 7.05059,14.26924 5.02057,15.91801c-2.03002,1.64877 -9.70699,-2.21513 -14.43956,-8.04206c-4.73256,-5.82694 -4.31193,-10.61911 -2.28191,-12.26787c2.03002,-1.64877 6.96833,-1.435 11.70091,4.39193z" stroke-linecap="butt"/></g><g fill-opacity="0.55686" fill="#000000" stroke-opacity="0.55294" stroke="#000000" stroke-width="2"><g stroke-linecap="round"><path d="M271.20355,271.31766c-8.05697,-10.11557 -5.77784,-15.74535 -2.70492,-17.5649"/><g><path d="M266.9881,254.97959c2.41104,-2.63448 8.38859,-3.71064 16.63689,6.24949" data-paper-data="{&quot;index&quot;:null}"/><path d="M287.3755,276.99471c-2.41103,2.63448 -8.38859,3.71064 -16.6369,-6.2495" data-paper-data="{&quot;index&quot;:null}"/><path d="M283.16004,260.65664c8.05698,10.11555 5.77784,15.74535 2.70492,17.5649" data-paper-data="{&quot;index&quot;:null}"/></g></g><path d="M281.04673,260.6027c4.73258,5.82693 7.05059,14.26924 5.02055,15.91801c-2.03004,1.64877 -9.70697,-2.21512 -14.43955,-8.04205c-4.73256,-5.82694 -4.31193,-10.61911 -2.28191,-12.26787c2.03004,-1.64877 6.96832,-1.43501 11.7009,4.39192z" stroke-linecap="butt"/></g><path d="M255.47,332.46871l0.69741,-38.30748l12.90832,0.23501l-0.69738,38.30746z" data-paper-data="{&quot;index&quot;:null}" fill="#b9d7ff" stroke="none" stroke-width="0" stroke-linecap="butt"/><path d="M270.8164,262.3611c0,0 -0.96633,53.07954 -1.16271,63.86706c-0.03169,1.74071 0.02492,3.78181 -0.49572,5.06209c-0.51876,1.27557 -1.61431,1.79361 -1.90178,1.78836c-0.10277,-0.00188 -7.09952,-0.12924 -10.02223,-0.18245c-0.49187,-0.00896 -3.08631,-3.85796 -3.01863,-7.57579c0.19442,-10.6787 1.12919,-62.02644 1.12919,-62.02644" data-paper-data="{&quot;index&quot;:null}" fill="none" stroke="#000000" stroke-width="4.5" stroke-linecap="round"/><g data-paper-data="{&quot;index&quot;:null}" stroke="#a2bcde" stroke-width="0"><path d="M267.73933,266.36144c0,0 -0.87713,48.18055 -1.04724,57.5244c-0.02745,1.50777 -0.00314,3.27523 -0.32297,4.3866c-0.31867,1.10723 -0.98121,1.56113 -1.15437,1.55798c-0.06191,-0.00111 -5.12176,-0.09324 -6.88239,-0.12529c-0.2963,-0.00539 -0.99589,-3.31113 -0.93727,-6.53141c0.1684,-9.24959 0.97809,-53.7256 0.97809,-53.7256" fill="none" stroke-linecap="round"/><path d="M257.88547,326.39908l0.60701,-33.34169c0,0 3.69346,0.06724 5.24532,0.09548c1.23814,0.02254 3.33898,0.0608 3.33898,0.0608l-0.60698,33.34169z" fill="#a2bcde" stroke-linecap="butt"/></g><path d="M327.74403,287.15444l-37.35526,-7.11962l2.39908,-12.58749l37.35526,7.11963z" fill="#b9d7ff" stroke="none" stroke-width="0" stroke-linecap="butt"/><path d="M262.58255,260.4278c0,0 50.44815,9.61505 60.93975,11.61466c3.6527,0.69617 6.88785,4.02482 6.79575,4.50806c-0.54729,2.87152 -1.85746,9.74566 -1.8767,9.84665c-0.05382,0.28242 -0.78552,1.24846 -2.14036,1.4946c-1.35985,0.24704 -3.34594,-0.22693 -5.05617,-0.55288c-10.59853,-2.02 -62.74812,-11.95931 -62.74812,-11.95931" fill="none" stroke="#000000" stroke-width="4.5" stroke-linecap="round"/><g stroke="#a2bcde" stroke-width="0"><path d="M267.98484,264.65413c0,0 43.6968,8.32828 52.78435,10.0603c3.16388,0.60301 6.25588,1.96564 6.2004,2.25675c-0.32968,1.72977 -1.27715,6.70098 -1.28875,6.7618c-0.03242,0.17012 -0.61254,0.72551 -1.76161,0.81032c-1.15334,0.08514 -2.87824,-0.30111 -4.35959,-0.58346c-9.18016,-1.74967 -56.51659,-10.77163 -56.51659,-10.77163" fill="none" stroke-linecap="round"/><path d="M322.21798,284.28973l-32.75755,-6.24334c0,0 0.39338,-2.06403 0.62523,-3.28049c0.2906,-1.52464 0.98221,-5.15342 0.98221,-5.15342l32.75755,6.24334z" fill="#a2bcde" stroke-linecap="butt"/></g><path d="M325.30457,333.59l-5.84627,-7.19815l13.53587,-10.99369l5.84627,7.19814z" fill="#b9d7ff" stroke="none" stroke-width="0" stroke-linecap="butt"/><g stroke="#a2bcde" stroke-width="0"><path d="M326.74935,312.46535c0,0 6.93979,8.54456 8.38304,10.32155c0.50248,0.61866 0.20183,1.91246 -0.11582,2.17046c-1.8876,1.53308 -7.31234,5.93901 -7.37873,5.99293c-0.18564,0.15077 -0.95956,0.63081 -1.45311,0.6769c-0.49536,0.04625 -0.71043,-0.34229 -0.9457,-0.63197c-1.45797,-1.79512 -8.97578,-11.05134 -8.97578,-11.05134" fill="none" stroke-linecap="round"/><path d="M325.84224,331.35746l-5.20245,-6.40546c0,0 2.25235,-1.82932 3.57978,-2.90745c1.66375,-1.35129 5.62359,-4.56743 5.62359,-4.56743l5.20245,6.40546z" fill="#a2bcde" stroke-linecap="butt"/></g><path d="M318.27005,325.1329l-9.70755,-11.99884l11.10849,-9.05313l9.70754,11.99885z" fill="#b9d7ff" stroke="none" stroke-width="0" stroke-linecap="butt"/><g fill="none" stroke="#000000" stroke-width="2.5" stroke-linecap="round"><path d="M337.54705,324.01548c0,0 -9.54676,7.86618 -11.48698,9.46486c-0.31308,0.25797 -0.64159,0.61024 -1.07657,0.53577c-0.43338,-0.07422 -0.97363,-0.57444 -1.09103,-0.72795c-0.04199,-0.0549 -2.89993,-3.79198 -4.09375,-5.35307c-0.20092,-0.2627 -0.60538,-2.24863 0.06331,-2.7996c1.92066,-1.58255 11.15596,-9.1921 11.15596,-9.1921" data-paper-data="{&quot;index&quot;:null}"/><path d="M319.48104,325.31355c0,0 9.34172,-7.4785 11.2845,-9.03379c0.67639,-0.54148 2.53715,0.26164 2.7531,0.51215c1.28307,1.48859 4.35465,5.05215 4.39977,5.10449c0.12619,0.1464 0.505,0.77775 0.48877,1.21712c-0.01631,0.441 -0.42848,0.69029 -0.74517,0.94382c-1.96258,1.57114 -11.61935,9.30188 -11.61935,9.30188"/></g><path d="M312.32003,293.49332c0,0 13.33457,16.41805 16.10774,19.83248c0.96549,1.18874 -0.1155,4.08351 -0.49737,4.39366c-2.26908,1.84293 -7.70107,6.25473 -7.78087,6.31954c-0.22316,0.18125 -1.20578,0.69393 -1.92396,0.59555c-0.72082,-0.09875 -1.17765,-0.80994 -1.62971,-1.36652c-2.80143,-3.44922 -16.58573,-20.421 -16.58573,-20.421" fill="none" stroke="#000000" stroke-width="4.5" stroke-linecap="round"/><g stroke="#a2bcde" stroke-width="0"><path d="M311.46586,297.42253c0,0 11.55005,14.22087 13.95209,17.17836c0.83629,1.02966 1.10151,2.56114 0.87147,2.74798c-1.36688,1.11016 -5.29515,4.30065 -5.34321,4.3397c-0.13444,0.10919 -0.76319,0.37265 -1.28381,0.20505c-0.52254,-0.16824 -0.93744,-0.76864 -1.329,-1.25073c-2.42652,-2.98762 -14.9386,-18.393 -14.9386,-18.393" fill="none" stroke-linecap="round"/><path d="M319.16229,321.38792l-8.65854,-10.66074c0,0 1.63101,-1.32469 2.59225,-2.1054c1.20479,-0.97853 4.07226,-3.30744 4.07226,-3.30744l8.65855,10.66073z" fill="#a2bcde" stroke-linecap="butt"/></g><path d="M303.08517,351.37815l-5.84627,-7.19816l13.53587,-10.99369l5.84627,7.19815z" fill="#b9d7ff" stroke="none" stroke-width="0" stroke-linecap="butt"/><g stroke="#a2bcde" stroke-width="0"><path d="M304.52995,330.2535c0,0 6.93981,8.54456 8.38305,10.32154c0.50248,0.61866 0.20183,1.91246 -0.11584,2.17047c-1.88759,1.53309 -7.31233,5.939 -7.37872,5.99293c-0.18565,0.15077 -0.95956,0.63081 -1.45309,0.6769c-0.49536,0.04625 -0.71044,-0.34229 -0.9457,-0.63195c-1.45797,-1.79512 -8.97579,-11.05135 -8.97579,-11.05135" fill="none" stroke-linecap="round"/><path d="M303.62284,349.14563l-5.20245,-6.40547c0,0 2.25234,-1.82933 3.57978,-2.90746c1.66375,-1.35129 5.6236,-4.56744 5.6236,-4.56744l5.20245,6.40547z" fill="#a2bcde" stroke-linecap="butt"/></g><path d="M295.57717,342.71475l-9.70005,-12.00512l11.54403,-9.41718l9.70003,12.00511z" fill="#b9d7ff" stroke="none" stroke-width="0" stroke-linecap="butt"/><g fill="none" stroke="#000000" stroke-width="2.5" stroke-linecap="round"><path d="M315.32764,341.80364c0,0 -9.54676,7.86619 -11.48698,9.46486c-0.31308,0.25797 -0.64159,0.61025 -1.07656,0.53578c-0.43338,-0.07422 -0.97361,-0.57445 -1.09102,-0.72799c-0.04199,-0.0549 -2.89992,-3.79197 -4.09376,-5.35304c-0.20091,-0.26271 -0.60538,-2.24864 0.0633,-2.7996c1.92066,-1.58255 11.15596,-9.1921 11.15596,-9.1921" data-paper-data="{&quot;index&quot;:null}"/><path d="M297.26166,343.10172c0,0 9.34172,-7.47851 11.28449,-9.03381c0.67639,-0.54148 2.53716,0.26165 2.7531,0.51215c1.28307,1.48859 4.35465,5.05215 4.39977,5.10448c0.12619,0.1464 0.505,0.77773 0.48877,1.21712c-0.01631,0.441 -0.42848,0.6903 -0.74517,0.94382c-1.96258,1.57114 -11.61935,9.30188 -11.61935,9.30188"/></g><path d="M290.10061,311.28148c0,0 13.33458,16.41804 16.10774,19.83248c0.96548,1.18875 -0.11548,4.0835 -0.49736,4.39365c-2.26908,1.84293 -7.70108,6.25474 -7.78088,6.31954c-0.22316,0.18125 -1.20578,0.69393 -1.92396,0.59553c-0.72082,-0.09875 -1.17765,-0.80994 -1.62971,-1.36652c-2.80141,-3.44922 -16.58574,-20.42099 -16.58574,-20.42099" fill="none" stroke="#000000" stroke-width="2.5" stroke-linecap="round"/><path d="M284.62024,329.89064l-22.02216,-27.13488l35.06707,-28.50195l22.02217,27.13488z" fill="#b9d7ff" stroke="none" stroke-width="0" stroke-linecap="butt"/><g stroke="#a2bcde" stroke-width="2.5"><path d="M290.99808,272.22177c0,0 16.77245,20.65089 20.26059,24.94563c1.21442,1.49524 0.12745,4.9148 -0.78085,5.65253c-5.39734,4.38366 -20.90867,16.98181 -21.09849,17.13597c-0.53084,0.43113 -2.71156,1.84335 -4.04594,2.0697c-1.33931,0.22716 -1.83235,-0.73363 -2.40094,-1.4337c-3.52369,-4.3385 -21.69316,-26.70946 -21.69316,-26.70946" fill="none" stroke-linecap="round"/><path d="M284.47266,321.40049l-12.57355,-15.48105c0,0 6.44029,-5.23074 10.2359,-8.31349c4.75729,-3.86381 16.07992,-13.05994 16.07992,-13.05994l12.57355,15.48105z" fill="#a2bcde" stroke-linecap="butt"/></g><g stroke="#a2bcde" stroke-width="0"><path d="M289.24646,315.21067c0,0 11.55006,14.22086 13.95209,17.17835c0.83629,1.02966 1.10148,2.56115 0.87147,2.74798c-1.36688,1.11016 -5.29515,4.30066 -5.34322,4.3397c-0.13444,0.10919 -0.76319,0.37265 -1.28381,0.20505c-0.52254,-0.16823 -0.93743,-0.76865 -1.329,-1.25075c-2.42652,-2.98762 -14.9386,-18.393 -14.9386,-18.393" fill="none" stroke-linecap="round"/><path d="M296.9429,339.17609l-8.65854,-10.66074c0,0 1.631,-1.32469 2.59225,-2.1054c1.20479,-0.97853 4.07226,-3.30745 4.07226,-3.30745l8.65855,10.66075z" fill="#a2bcde" stroke-linecap="butt"/></g><path d="M293.9731,267.6778c0,0 20.39539,25.11161 24.63699,30.33404c1.47675,1.81822 0.01066,6.09364 -1.15016,7.03644c-6.89771,5.60225 -26.72101,21.70253 -26.96359,21.89956c-0.67839,0.55098 -3.45445,2.36918 -5.13377,2.69045c-1.6855,0.32247 -2.27431,-0.85457 -2.96574,-1.70589c-4.28483,-5.27566 -26.37902,-32.47887 -26.37902,-32.47887" fill="none" stroke="#000000" stroke-width="4.5" stroke-linecap="round"/><path d="M291.54961,244.5287c9.35209,11.50968 4.30436,31.09283 -11.27442,43.74019c-15.57879,12.64736 -35.78924,13.56964 -45.14134,2.05997c-9.3521,-11.50967 -4.30435,-31.09282 11.27442,-43.74016c15.57879,-12.64736 35.78925,-13.56965 45.14134,-2.05998z" fill="#002a4e" stroke="none" stroke-width="0" stroke-linecap="butt"/><path d="M279.13277,287.6694c7.0404,-4.1211 12.38247,-10.77262 16.30375,-20.13507c2.89099,-6.90258 -2.06968,-24.23935 -2.06968,-24.23935c0.31971,0.49993 4.76236,7.45856 5.80867,12.61807c0.67194,3.31345 2.47985,9.66205 1.94206,12.20898c-0.64119,3.03663 -1.77209,6.54759 -3.04452,9.72871c-1.44238,3.60601 -3.06663,6.78817 -4.36558,8.37511c-2.37392,2.90025 -3.45827,7.59556 -7.44862,9.9313c-1.8553,1.08601 -13.01185,7.9804 -19.34077,8.99858c-5.84126,0.93973 -16.06165,-0.95781 -22.41194,-4.33981c-4.03194,-2.14732 -11.42166,-10.1588 -11.64655,-10.51046c-0.6341,-0.99153 10.18448,7.63447 17.05101,8.36926c3.98928,0.42689 9.60182,-2.05631 12.81295,-2.56249c4.81143,-0.75845 8.87466,-3.46275 13.21783,-6.00502z" data-paper-data="{&quot;index&quot;:null}" fill="#a2bcde" stroke="none" stroke-width="0" stroke-linecap="butt"/><path d="M301.01672,264.19695c2.11396,2.60131 -2.02694,22.28384 -14.49193,32.4019c-4.74389,3.85071 -10.51763,7.37026 -16.53962,8.39941c-3.60843,0.61667 -8.77541,1.90046 -13.71505,0.46573c-8.47753,-2.46234 -16.61571,-8.72839 -17.44306,-9.74649c-1.04172,-1.28188 7.46066,7.59687 16.65789,8.49732c9.46663,0.92683 24.23508,-3.70193 30.55756,-8.834c5.4407,-4.41632 8.57353,-10.08938 11.56279,-17.57877c0.67245,-1.68479 1.25142,-3.35653 1.72272,-4.9743c2.23357,-7.66698 -1.17891,-18.85107 -0.19521,-17.64059z" data-paper-data="{&quot;index&quot;:null}" fill="#b9d7ff" stroke="none" stroke-width="0" stroke-linecap="butt"/><path d="M243.2971,251.02706c-3.3789,3.72951 -6.85898,7.15179 -8.58799,11.70542c-1.15393,3.03909 -4.04635,8.59322 -4.44661,12.58526c-0.68895,6.8713 2.00591,12.37986 1.16547,11.55593c-0.29807,-0.29223 -3.17964,-2.70164 -4.45447,-7.08827c-0.7339,-2.52533 -2.43461,-5.09405 -2.68856,-8.17409c-0.44083,-5.34644 0.95361,-12.77262 2.29722,-16.27772c2.29442,-5.98559 12.40698,-18.23046 13.07142,-18.66545c0.66445,-0.43499 10.38308,-4.35404 10.75559,-4.54768c3.42481,-1.78036 12.09175,-2.58674 18.71347,-2.59706c2.60306,-0.00407 11.83677,2.83098 14.94203,4.16813c4.83527,2.08214 5.03625,8.19296 5.45999,8.60839c0,0 -12.78778,-7.13872 -20.13651,-5.72467c-9.96761,1.91797 -17.57328,5.78248 -23.05058,11.82812z" fill="#a2bcde" stroke="none" stroke-width="0" stroke-linecap="butt"/><g fill="none" stroke="#000000" stroke-width="2.5" stroke-linecap="round"><path d="M232.5819,291.5358c-20.88107,-26.65555 -5.74714,-48.84006 8.38655,-58.54883"/><g><path d="M233.65965,238.92311c12.40083,-11.84233 37.21743,-22.1052 59.02433,3.79837" data-paper-data="{&quot;index&quot;:null}"/><path d="M290.389,293.83548c-12.40085,11.8423 -37.21743,22.1052 -59.02433,-3.79837" data-paper-data="{&quot;index&quot;:null}"/><path d="M291.46675,241.22279c20.88108,26.65553 5.74712,48.84006 -8.38657,58.54883" data-paper-data="{&quot;index&quot;:null}"/></g></g><path d="M239.40921,293.90536l-4.22246,-30.23555" fill="none" stroke="#003b6f" stroke-width="2.5" stroke-linecap="round"/><path d="M242.07098,253.78568l7.16362,42.75877" fill="none" stroke="#003b6f" stroke-width="2.5" stroke-linecap="round"/><path d="M248.52052,248.09554l10.38671,48.95267" fill="none" stroke="#003b6f" stroke-width="2.5" stroke-linecap="round"/><path d="M266.50465,294.71863l-10.76058,-51.36029" fill="none" stroke="#003b6f" stroke-width="2.5" stroke-linecap="round"/><path d="M267.62945,239.35365l12.69273,45.95003" fill="none" stroke="#003b6f" stroke-width="2.5" stroke-linecap="round"/><path d="M275.099,238.2576l11.80057,40.1224" fill="none" stroke="#003b6f" stroke-width="2.5" stroke-linecap="round"/><path d="M293.17084,270.80123l-9.35214,-31.2659" fill="none" stroke="#003b6f" stroke-width="2.5" stroke-linecap="round"/><path d="M272.57691,291.34578l-10.4033,-51.19858" fill="none" stroke="#003b6f" stroke-width="2.5" stroke-linecap="round"/><g fill="none" stroke="#000000" stroke-width="2.5" stroke-linecap="round"><path d="M235.4756,291.3107c-13.28057,-17.24643 2.50487,-36.42565 15.61293,-45.93395"/><g><path d="M244.1742,250.99249c11.99429,-10.8796 34.00306,-22.3964 48.15949,-5.86135" data-paper-data="{&quot;index&quot;:null}"/><path d="M282.85269,284.48608c-11.99431,10.87959 -34.00307,22.3964 -48.15948,5.86135" data-paper-data="{&quot;index&quot;:null}"/><path d="M291.5513,244.16787c13.28057,17.24643 -2.50487,36.42565 -15.61293,45.93395" data-paper-data="{&quot;index&quot;:null}"/></g></g><g fill="#0088ff" stroke="#0088ff" stroke-width="2"><g stroke-linecap="round"><path d="M248.23182,280.88471c-8.05697,-10.11557 -5.77784,-15.74535 -2.70492,-17.5649"/><g><path d="M244.01638,264.54664c2.41103,-2.63448 8.38859,-3.71064 16.63689,6.24951" data-paper-data="{&quot;index&quot;:null}"/><path d="M264.40377,286.56176c-2.41103,2.63448 -8.38859,3.71065 -16.63689,-6.24949" data-paper-data="{&quot;index&quot;:null}"/><path d="M260.18832,270.22368c8.05698,10.11555 5.77784,15.74536 2.70492,17.5649" data-paper-data="{&quot;index&quot;:null}"/></g></g><path d="M258.07501,270.16974c4.73256,5.82694 7.05058,14.26924 5.02055,15.91801c-2.03002,1.64877 -8.96797,0.17317 -13.70055,-5.65377c-4.73256,-5.82694 -5.05092,-13.0074 -3.0209,-14.65617c2.03002,-1.64877 6.96833,-1.435 11.7009,4.39193z" stroke-linecap="butt"/></g><g fill="#0088ff" stroke="#0088ff" stroke-width="2"><g stroke-linecap="round"><path d="M266.46246,265.48027c-8.05696,-10.11556 -5.77784,-15.74535 -2.70492,-17.5649"/><g><path d="M262.24702,249.1422c2.41103,-2.63448 8.38857,-3.71066 16.63688,6.2495" data-paper-data="{&quot;index&quot;:null}"/><path d="M282.63441,271.15731c-2.41103,2.63448 -8.38859,3.71064 -16.63689,-6.24951" data-paper-data="{&quot;index&quot;:null}"/><path d="M278.41896,254.81924c8.05698,10.11555 5.77784,15.74535 2.70492,17.5649" data-paper-data="{&quot;index&quot;:null}"/></g></g><path d="M276.30564,254.76532c4.73258,5.82693 7.05059,14.26923 5.02056,15.918c-2.03003,1.64877 -9.81334,0.26028 -14.5459,-5.56666c-4.73256,-5.82694 -4.20558,-13.09451 -2.17555,-14.74328c2.03004,-1.64877 6.96833,-1.435 11.7009,4.39194z" stroke-linecap="butt"/></g><text transform="translate(155.84166,195.29104) rotate(-16.94737) scale(0.54677,0.54677)" font-size="40" xml:space="preserve" fill="#ffffff" fill-rule="nonzero" stroke="none" stroke-width="1" stroke-linecap="butt" stroke-linejoin="miter" stroke-miterlimit="10" stroke-dasharray="" stroke-dashoffset="0" font-family="Pixel" font-weight="normal" text-anchor="start" style="mix-blend-mode: normal"><tspan x="0" dy="0">            Bot's</tspan><tspan x="0" dy="46.150000000000006px">Adventure</tspan></text></g></g></svg>