<svg version="1.1" xmlns="http://www.w3.org/2000/svg" xmlns:xlink="http://www.w3.org/1999/xlink" width="94.84289" height="134.37133" viewBox="0,0,94.84289,134.37133"><g transform="translate(-192.61519,-114.93278)"><g data-paper-data="{&quot;isPaintingLayer&quot;:true}" fill-rule="nonzero" stroke-linejoin="miter" stroke-miterlimit="10" stroke-dasharray="" stroke-dashoffset="0" style="mix-blend-mode: normal"><path d="M275.39106,144.14605c-0.02155,1.74827 -3.60862,-7.73305 -10.11381,-12.93322c-1.37265,-1.09727 -2.8632,-2.16733 -4.43523,-3.184c-6.98807,-4.51944 -15.58596,-7.98418 -22.59274,-8.09713c-8.14236,-0.13125 -19.9771,6.68505 -26.83091,14.06964c-6.65874,7.17445 -8.65865,26.75629 -8.63582,24.90492c0.01125,-0.91279 -1.56427,-8.10727 0.69613,-15.70175c1.38082,-4.63926 4.53561,-10.55596 6.47942,-13.60872c2.98668,-4.69061 8.47112,-7.11751 11.68482,-9.07838c5.36329,-3.27245 12.07553,-4.18008 18.18493,-4.08159c7.55811,0.12184 15.67972,1.98479 21.41608,5.80235c6.44731,4.29068 12.42519,10.14097 12.40069,12.12908c0,0 1.49872,1.50093 1.72517,2.76883c0.32162,1.80084 0.02128,7.00998 0.02128,7.00998z" fill="#b9d7ff" stroke="none" stroke-width="0" stroke-linecap="butt"/><path d="M247.3014,243.96248l0.21753,-15.43203l12.62622,0.17798l-0.21753,15.43205z" fill-opacity="0.55686" fill="#000000" stroke-opacity="0.55294" stroke="#000000" stroke-width="0" stroke-linecap="butt"/><g fill-opacity="0.55686" fill="#000000" stroke-opacity="0.55294" stroke="#000000" stroke-width="0"><path d="M258.11981,218.33748c0,0 -0.25821,18.31857 -0.31192,22.12825c-0.01869,1.32636 -0.79738,2.67151 -1.0937,2.66733c-1.76074,-0.02482 -6.82092,-0.09615 -6.88284,-0.09702c-0.17318,-0.00244 -0.82457,-0.20353 -1.11653,-0.666c-0.29304,-0.4642 -0.22632,-1.19096 -0.21757,-1.81198c0.05425,-3.8485 0.33398,-23.69287 0.33398,-23.69287" stroke-linecap="round"/><path d="M248.6554,241.6613l0.19358,-13.73259c0,0 2.10098,0.02961 3.3392,0.04706c1.55195,0.02187 5.24567,0.07394 5.24567,0.07394l-0.19358,13.73261z" stroke-linecap="butt"/></g><path d="M218.84513,235.36091l0.21753,-15.43205l12.62621,0.17799l-0.21753,15.43204z" fill-opacity="0.55686" fill="#000000" stroke-opacity="0.55294" stroke="#000000" stroke-width="0" stroke-linecap="butt"/><g fill-opacity="0.55686" fill="#000000" stroke-opacity="0.55294" stroke="#000000" stroke-width="0"><path d="M229.66355,209.73589c0,0 -0.25822,18.31856 -0.31193,22.12824c-0.01869,1.32636 -0.79739,2.67151 -1.0937,2.66733c-1.76074,-0.02482 -6.82093,-0.09615 -6.88285,-0.09702c-0.17318,-0.00244 -0.82458,-0.20353 -1.11654,-0.66601c-0.29304,-0.4642 -0.2263,-1.19096 -0.21755,-1.81198c0.05425,-3.8485 0.33399,-23.69288 0.33399,-23.69288" stroke-linecap="round"/><path d="M220.19915,233.05973l0.19358,-13.73261c0,0 2.10098,0.02961 3.3392,0.04707c1.55195,0.02187 5.24568,0.07394 5.24568,0.07394l-0.19358,13.7326z" stroke-linecap="butt"/></g><path d="M275.65049,165.77368c-0.20274,14.38236 -16.38378,25.81579 -36.14136,25.53728c-19.75758,-0.27851 -35.60991,-12.16349 -35.40717,-26.54585c0.20274,-14.38236 16.38378,-25.81577 36.14136,-25.53727c19.75758,0.27851 35.60991,12.16349 35.40717,26.54585z" fill-opacity="0.55686" fill="#000000" stroke-opacity="0.55294" stroke="#000000" stroke-width="0" stroke-linecap="butt"/><path d="M235.57068,139.02131c-4.98435,0.69456 -9.84931,1.0885 -14.0963,3.47351c-2.83442,1.59175 -8.61569,3.99827 -11.483,6.80453c-4.93535,4.83029 -6.40047,10.78513 -6.51689,9.61396c-0.04129,-0.41538 -0.707,-4.11208 1.12812,-8.29538c1.05646,-2.40828 1.39895,-5.46988 3.17942,-7.99597c3.09059,-4.38488 8.92309,-9.18845 12.20192,-11.01613c5.59915,-3.12108 17.43985,-5.63861 19.56905,-5.93531c0.83945,-0.11697 2.6421,0.70458 3.43087,0.79695c3.03232,0.35512 7.20458,-0.24043 9.93043,0.50346c0.43331,0.11825 -0.17146,2.01475 0.23855,2.10508c3.76954,0.83041 10.93656,5.77004 16.02382,10.0088c1.99986,1.66629 7.26639,9.76334 8.79141,12.78078c2.37463,4.69855 -1.39019,9.51607 -1.3315,10.10658c0,0 -5.23343,-13.67845 -11.77873,-17.30642c-8.87788,-4.92089 -17.19186,-6.8335 -25.27165,-5.70759z" fill-opacity="0.55686" fill="#000000" stroke-opacity="0.55294" stroke="#000000" stroke-width="0" stroke-linecap="butt"/><path d="M275.28506,148.18612c-0.02155,1.52881 -3.60863,-6.76232 -10.11383,-11.30971c-1.37264,-0.95953 -2.86319,-1.89527 -4.43521,-2.78432c-6.98807,-3.95211 -15.58597,-6.98193 -22.59275,-7.0807c-8.14236,-0.11478 -19.97709,5.84588 -26.8309,12.30348c-6.65874,6.27384 -5.66245,10.45015 -5.63963,8.83119c0.01812,-1.28582 0.55459,-4.90572 5.68044,-11.94535c2.98668,-4.10179 6.97003,-6.96241 10.18374,-8.67714c5.36329,-2.86167 12.07553,-3.65536 18.18493,-3.56924c7.55812,0.10654 15.51114,2.79706 21.2475,6.13541c6.44731,3.75207 10.23361,8.27828 10.2091,10.01682z" fill-opacity="0.55686" fill="#000000" stroke-opacity="0.55294" stroke="#000000" stroke-width="0" stroke-linecap="butt"/><path d="M221.23973,143.52031l-16.15108,25.90676" fill-opacity="0.55686" fill="#000000" stroke-opacity="0.55294" stroke="#000000" stroke-width="2.5" stroke-linecap="round"/><path d="M210.93483,177.75324l21.9259,-37.40169" fill-opacity="0.55686" fill="#000000" stroke-opacity="0.55294" stroke="#000000" stroke-width="2.5" stroke-linecap="round"/><path d="M241.45851,140.12196l-23.42521,44.2211" fill-opacity="0.55686" fill="#000000" stroke-opacity="0.55294" stroke="#000000" stroke-width="2.5" stroke-linecap="round"/><path d="M250.039,141.1199l-24.68243,46.30818" fill-opacity="0.55686" fill="#000000" stroke-opacity="0.55294" stroke="#000000" stroke-width="2.5" stroke-linecap="round"/><path d="M261.72659,145.66962l-19.73022,43.39621" fill-opacity="0.55686" fill="#000000" stroke-opacity="0.55294" stroke="#000000" stroke-width="2.5" stroke-linecap="round"/><path d="M268.16065,149.61909l-16.67732,38.35266" fill-opacity="0.55686" fill="#000000" stroke-opacity="0.55294" stroke="#000000" stroke-width="2.5" stroke-linecap="round"/><path d="M261.15554,186.17872l12.87603,-29.9871" fill-opacity="0.55686" fill="#000000" stroke-opacity="0.55294" stroke="#000000" stroke-width="2.5" stroke-linecap="round"/><path d="M232.1787,188.73449l24.85284,-45.95496" fill-opacity="0.55686" fill="#000000" stroke-opacity="0.55294" stroke="#000000" stroke-width="2.5" stroke-linecap="round"/><g fill-opacity="0.55686" fill="#000000" stroke-opacity="0.55294" stroke="#000000" stroke-width="2" stroke-linecap="round"><path d="M203.73453,164.91355c0.87082,-21.74981 25.28263,-26.34182 41.43794,-25.2307"/><g><path d="M236.26582,139.55729c16.18021,-0.65532 40.45287,4.62299 40.71029,26.38869" data-paper-data="{&quot;index&quot;:null}"/><path d="M244.46231,190.0614c-16.18022,0.6553 -40.45287,-4.623 -40.71029,-26.38869" data-paper-data="{&quot;index&quot;:null}"/><path d="M276.99359,164.70514c-0.87082,21.74982 -25.28262,26.34183 -41.43794,25.23071" data-paper-data="{&quot;index&quot;:null}"/></g></g><g fill-opacity="0.55686" fill="#000000" stroke-opacity="0.55294" stroke="#000000" stroke-width="2"><g stroke-linecap="round"><path d="M220.40136,164.63363c0.30552,-12.9285 5.66475,-15.78639 9.18943,-15.21173"/><g><path d="M227.64502,149.39446c3.53947,-0.4751 8.81602,2.53276 8.75698,15.46471" data-paper-data="{&quot;index&quot;:null}"/><path d="M229.16875,179.36093c-3.53947,0.4751 -8.81603,-2.53275 -8.75699,-15.46472" data-paper-data="{&quot;index&quot;:null}"/><path d="M236.4124,164.12177c-0.3055,12.92849 -5.66474,15.78639 -9.18942,15.21173" data-paper-data="{&quot;index&quot;:null}"/></g></g><path d="M234.82552,162.72506c-0.10582,7.50594 -3.74154,15.47007 -6.35651,15.43321c-2.61497,-0.03686 -6.02725,-7.92494 -5.92144,-15.43089c0.10582,-7.50594 3.5019,-10.91306 6.11687,-10.8762c2.61497,0.03686 6.26689,3.36794 6.16108,10.87389z" stroke-linecap="butt"/></g><g fill-opacity="0.55686" fill="#000000" stroke-opacity="0.55294" stroke="#000000" stroke-width="2"><g stroke-linecap="round"><path d="M244.07552,164.96735c0.30552,-12.9285 5.66474,-15.78639 9.18942,-15.21173"/><g><path d="M251.31917,149.72818c3.53947,-0.47509 8.81603,2.53276 8.757,15.46471" data-paper-data="{&quot;index&quot;:null}"/><path d="M252.8429,179.69466c-3.53947,0.4751 -8.81603,-2.53276 -8.757,-15.46472" data-paper-data="{&quot;index&quot;:null}"/><path d="M260.08655,164.45549c-0.3055,12.92849 -5.66475,15.78639 -9.18943,15.21173" data-paper-data="{&quot;index&quot;:null}"/></g></g><path d="M258.49967,163.05878c-0.1058,7.50595 -3.74154,15.47007 -6.35652,15.4332c-2.61498,-0.03687 -6.02724,-7.92493 -5.92144,-15.43087c0.10582,-7.50594 3.5019,-10.91306 6.11687,-10.8762c2.61498,0.03687 6.26688,3.36793 6.16108,10.87387z" stroke-linecap="butt"/></g><path d="M192.78591,201.79629l25.10268,-28.94486l9.75343,8.45875l-25.10265,28.94486z" data-paper-data="{&quot;index&quot;:null}" fill="#b9d7ff" stroke="none" stroke-width="0" stroke-linecap="butt"/><path d="M249.52254,157.84697c0,0 -34.78272,40.10653 -41.85172,48.25751c-1.14068,1.31527 -2.40625,2.91765 -3.6268,3.56607c-1.21608,0.64601 -2.3889,0.34088 -2.6061,0.15249c-0.07765,-0.06735 -5.36435,-4.65227 -7.57273,-6.5675c-0.37165,-0.32232 0.10618,-4.93942 2.54245,-7.74859c6.9977,-8.06875 40.64556,-46.86676 40.64556,-46.86676" data-paper-data="{&quot;index&quot;:null}" fill="none" stroke="#000000" stroke-width="2.5" stroke-linecap="round"/><g data-paper-data="{&quot;index&quot;:null}" stroke="#a2bcde" stroke-width="0"><path d="M244.59609,158.9429c0,0 -31.57243,36.40489 -37.69541,43.46504c-0.98803,1.13926 -2.1029,2.51097 -3.06104,3.15857c-0.9546,0.64517 -1.75404,0.56853 -1.88488,0.45506c-0.04679,-0.04056 -3.86997,-3.35626 -5.20029,-4.50999c-0.22388,-0.19416 1.3594,-3.17921 3.46963,-5.61244c6.06121,-6.98892 35.20608,-40.59469 35.20608,-40.59469" fill="none" stroke-linecap="round"/><path d="M198.53184,198.68836l21.84863,-25.19274c0,0 2.79075,2.4203 3.96334,3.43722c0.93553,0.81135 2.5229,2.18802 2.5229,2.18802l-21.84861,25.19276z" fill="#a2bcde" stroke-linecap="butt"/></g><path d="M277.30071,213.37929l-24.09552,-29.41956l9.91342,-8.11939l24.09551,29.41957z" fill="#b9d7ff" stroke="none" stroke-width="0" stroke-linecap="butt"/><path d="M244.44485,151.08303c0,0 32.5409,39.73103 39.30837,47.9938c2.35613,2.87672 2.70361,7.50547 2.32303,7.81719c-2.2615,1.85223 -7.67531,6.2863 -7.75485,6.35145c-0.22242,0.18218 -1.40337,0.45413 -2.60076,-0.22591c-1.2018,-0.68256 -2.4217,-2.31996 -3.52486,-3.66686c-6.83644,-8.34699 -40.47484,-49.418 -40.47484,-49.418" fill="none" stroke="#000000" stroke-width="2.5" stroke-linecap="round"/><g stroke="#a2bcde" stroke-width="0"><path d="M245.8794,157.79039c0,0 28.18604,34.41392 34.04784,41.57092c2.04082,2.49175 3.53932,5.52023 3.31006,5.70801c-1.3623,1.11577 -5.27743,4.32238 -5.32534,4.36161c-0.13398,0.10974 -0.93527,0.16382 -1.87131,-0.50803c-0.93952,-0.67434 -2.01527,-2.07692 -2.97079,-3.24359c-5.92154,-7.22994 -36.45527,-44.51029 -36.45527,-44.51029" fill="none" stroke-linecap="round"/><path d="M274.89797,207.63729l-21.12982,-25.79859c0,0 1.62554,-1.33138 2.58358,-2.11604c1.20076,-0.98344 4.05864,-3.32414 4.05864,-3.32414l21.12982,25.79859z" fill="#a2bcde" stroke-linecap="butt"/></g><path d="M245.64867,247.44335l0.1307,-9.27228l17.43619,0.24579l-0.1307,9.27227z" fill="#b9d7ff" stroke="none" stroke-width="0" stroke-linecap="butt"/><g stroke="#a2bcde" stroke-width="0"><path d="M260.30499,232.16164c0,0 -0.15516,11.00664 -0.18743,13.29566c-0.01122,0.79693 -1.07165,1.59681 -1.48084,1.59105c-2.4315,-0.03428 -9.41937,-0.13278 -9.50489,-0.13398c-0.23913,-0.00338 -1.1408,-0.13139 -1.54904,-0.41255c-0.40974,-0.2822 -0.32557,-0.71825 -0.32031,-1.09139c0.0326,-2.31237 0.20068,-14.23575 0.20068,-14.23575" fill="none" stroke-linecap="round"/><path d="M247.49298,246.07521l0.11631,-8.25118c0,0 2.90135,0.04091 4.61128,0.06501c2.14316,0.0302 7.24402,0.10211 7.24402,0.10211l-0.11631,8.25117z" fill="#a2bcde" stroke-linecap="butt"/></g><path d="M245.67506,236.44306l0.24687,-15.43204l14.3292,0.17798l-0.24688,15.43204z" fill="#b9d7ff" stroke="none" stroke-width="0" stroke-linecap="butt"/><g fill="none" stroke="#000000" stroke-width="2.5" stroke-linecap="round"><path d="M261.18233,247.94854c0,0 -12.36971,-0.08711 -14.88366,-0.10481c-0.40566,-0.00286 -0.88364,0.05675 -1.16962,-0.27935c-0.28492,-0.33488 -0.37863,-1.06516 -0.37026,-1.25824c0.00299,-0.06905 0.20687,-4.76927 0.29206,-6.73267c0.01432,-0.33042 0.97762,-2.11355 1.84403,-2.10744c2.48859,0.01753 14.45475,0.1018 14.45475,0.1018" data-paper-data="{&quot;index&quot;:null}"/><path d="M246.48836,237.35831c0,0 11.96377,0.25307 14.45185,0.3057c0.86624,0.01833 1.77888,1.82789 1.78391,2.15859c0.02979,1.96501 0.10111,6.66911 0.10216,6.7382c0.00293,0.19326 -0.11132,0.92061 -0.40555,1.24732c-0.29534,0.32791 -0.77146,0.25484 -1.17704,0.24627c-2.51344,-0.05317 -14.8807,-0.31475 -14.8807,-0.31475"/></g><path d="M261.40108,208.3511c0,0 -0.29812,21.14886 -0.36012,25.54715c-0.02158,1.53128 -2.70748,3.05907 -3.19938,3.05214c-2.92291,-0.0412 -9.92011,-0.13984 -10.0229,-0.14129c-0.28747,-0.00405 -1.37019,-0.24087 -1.85813,-0.77694c-0.48973,-0.53805 -0.38414,-1.3767 -0.37404,-2.09366c0.06263,-4.44311 0.37081,-26.30525 0.37081,-26.30525" fill="none" stroke="#000000" stroke-width="2.5" stroke-linecap="round"/><g stroke="#a2bcde" stroke-width="0"><path d="M258.2258,210.81806c0,0 -0.25822,18.31857 -0.31193,22.12825c-0.01869,1.32636 -0.79737,2.67151 -1.0937,2.66733c-1.76074,-0.02482 -6.82092,-0.09616 -6.88284,-0.09703c-0.17318,-0.00244 -0.82456,-0.20353 -1.11653,-0.66601c-0.29303,-0.4642 -0.22632,-1.19096 -0.21757,-1.81197c0.05425,-3.8485 0.33399,-23.69288 0.33399,-23.69288" fill="none" stroke-linecap="round"/><path d="M248.7614,234.14187l0.19358,-13.7326c0,0 2.10098,0.02961 3.3392,0.04707c1.55195,0.02187 5.24567,0.07395 5.24567,0.07395l-0.19357,13.7326z" fill="#a2bcde" stroke-linecap="butt"/></g><path d="M217.19242,238.84175l0.13071,-9.27229l17.43619,0.24579l-0.1307,9.27228z" fill="#b9d7ff" stroke="none" stroke-width="0" stroke-linecap="butt"/><g stroke="#a2bcde" stroke-width="0"><path d="M231.84873,223.56005c0,0 -0.15515,11.00665 -0.18742,13.29566c-0.01123,0.79693 -1.07165,1.59681 -1.48086,1.59104c-2.4315,-0.03427 -9.41936,-0.13278 -9.50488,-0.13398c-0.23914,-0.00338 -1.14079,-0.13139 -1.54903,-0.41254c-0.40974,-0.2822 -0.32558,-0.71825 -0.32032,-1.09138c0.0326,-2.31237 0.20067,-14.23576 0.20067,-14.23576" fill="none" stroke-linecap="round"/><path d="M219.03673,237.47363l0.11632,-8.25118c0,0 2.90135,0.0409 4.61128,0.065c2.14316,0.0302 7.24403,0.10211 7.24403,0.10211l-0.11632,8.25118z" fill="#a2bcde" stroke-linecap="butt"/></g><path d="M216.98783,227.37953l0.25665,-15.43204l14.89685,0.17798l-0.25666,15.43203z" fill="#b9d7ff" stroke="none" stroke-width="0" stroke-linecap="butt"/><g fill="none" stroke="#000000" stroke-width="2.5" stroke-linecap="round"><path d="M232.72605,239.34695c0,0 -12.36972,-0.08711 -14.88366,-0.10481c-0.40566,-0.00286 -0.88364,0.05676 -1.16962,-0.27934c-0.28492,-0.33488 -0.37861,-1.06516 -0.37023,-1.25826c0.00299,-0.06905 0.20687,-4.76925 0.29203,-6.73266c0.01433,-0.33042 0.97762,-2.11356 1.84403,-2.10745c2.48859,0.01753 14.45475,0.1018 14.45475,0.1018" data-paper-data="{&quot;index&quot;:null}"/><path d="M218.03211,228.75674c0,0 11.96377,0.25306 14.45185,0.30568c0.86624,0.01833 1.77888,1.8279 1.78391,2.15859c0.02979,1.96501 0.10111,6.66911 0.10217,6.7382c0.00293,0.19326 -0.11131,0.9206 -0.40555,1.24732c-0.29534,0.32791 -0.77146,0.25485 -1.17704,0.24627c-2.51344,-0.05317 -14.8807,-0.31475 -14.8807,-0.31475"/></g><path d="M232.9448,199.74951c0,0 -0.29811,21.14886 -0.36012,25.54715c-0.02159,1.53128 -2.70746,3.05908 -3.19937,3.05214c-2.92291,-0.0412 -9.92012,-0.13984 -10.02291,-0.14129c-0.28747,-0.00405 -1.37019,-0.24087 -1.85812,-0.77695c-0.48973,-0.53805 -0.38414,-1.3767 -0.37404,-2.09366c0.06264,-4.4431 0.3708,-26.30525 0.3708,-26.30525" fill="none" stroke="#000000" stroke-width="2.5" stroke-linecap="round"/><path d="M216.80536,218.51303l0.50539,-34.94312l45.1849,0.62077l-0.50539,34.94313z" fill="#b9d7ff" stroke="none" stroke-width="0" stroke-linecap="butt"/><g stroke="#a2bcde" stroke-width="2.5"><path d="M258.68341,178.35579c0,0 -0.37498,26.60139 -0.45297,32.13364c-0.02715,1.92609 -3.0542,3.85271 -4.22424,3.83623c-6.95256,-0.09801 -26.93344,-0.37966 -27.17795,-0.38312c-0.68379,-0.00965 -3.26268,-0.32465 -4.43168,-1.00675c-1.17329,-0.68464 -0.93541,-1.73802 -0.9227,-2.63982c0.07878,-5.58863 0.48499,-34.40571 0.48499,-34.40571" fill="none" stroke-linecap="round"/><path d="M222.13708,211.90415l0.28111,-19.94187c0,0 8.29604,0.11694 13.18534,0.18587c6.12808,0.08639 20.7133,0.29199 20.7133,0.29199l-0.28111,19.94186z" fill="#a2bcde" stroke-linecap="butt"/></g><g stroke="#a2bcde" stroke-width="0"><path d="M229.76956,216.94208c0,0 -0.25821,7.43953 -0.31192,8.98671c-0.01869,0.53866 -0.7974,1.08495 -1.0937,1.08325c-1.76074,-0.01008 -6.82093,-0.03905 -6.88285,-0.03941c-0.17318,-0.00099 -0.82456,-0.08266 -1.11653,-0.27048c-0.29304,-0.18852 -0.2263,-0.48367 -0.21756,-0.73588c0.05425,-1.56295 0.33399,-9.62214 0.33399,-9.62214" fill="none" stroke-linecap="round"/><path d="M220.30515,226.41434l0.19358,-5.57708c0,0 2.10097,0.01203 3.3392,0.01912c1.55195,0.00888 5.24567,0.03003 5.24567,0.03003l-0.19358,5.57708z" fill="#a2bcde" stroke-linecap="butt"/></g><path d="M263.71896,176.64251c0,0 -0.45599,32.34744 -0.55082,39.0747c-0.03301,2.34214 -3.89983,4.6823 -5.39513,4.66121c-8.88527,-0.12525 -34.42059,-0.48521 -34.73307,-0.48961c-0.87386,-0.01232 -4.16991,-0.39763 -5.66444,-1.22812c-1.50004,-0.83354 -1.19695,-2.11426 -1.18149,-3.21088c0.0958,-6.79582 0.58975,-41.83757 0.58975,-41.83757" fill="none" stroke="#000000" stroke-width="2.5" stroke-linecap="round"/><path d="M276.86686,157.46148c-0.20589,14.82875 -16.63804,26.61705 -36.70223,26.32989c-20.06419,-0.28716 -36.16252,-12.54101 -35.95664,-27.36976c0.20588,-14.82875 16.63804,-26.61703 36.70221,-26.32987c20.06419,0.28716 36.16253,12.54101 35.95665,27.36976z" fill="#002a4e" stroke="none" stroke-width="0" stroke-linecap="butt"/><path d="M239.67257,182.59874c8.04485,1.3532 16.40944,-0.3243 25.4225,-4.99299c6.64497,-3.44206 13.95733,-19.92543 13.95733,-19.92543c-0.07531,0.58862 -1.12936,8.77694 -3.63549,13.4067c-1.60944,2.97324 -4.29381,9.00378 -6.33985,10.61306c-2.43944,1.9187 -5.55881,3.88727 -8.57524,5.512c-3.41932,1.84174 -6.70636,3.24164 -8.72075,3.6262c-3.68144,0.70282 -7.52465,3.60996 -12.08429,2.84298c-2.12,-0.35659 -15.10162,-2.22173 -20.61059,-5.49941c-5.08449,-3.02513 -11.70933,-11.03565 -14.41274,-17.70316c-1.71645,-4.23336 -2.24838,-15.11954 -2.1954,-15.53358c0.14937,-1.16743 2.91805,12.38926 7.71528,17.35673c2.78707,2.88597 8.68594,4.58016 11.47436,6.25116c4.17807,2.50376 9.03,3.03469 13.9928,3.86947z" data-paper-data="{&quot;index&quot;:null}" fill="#a2bcde" stroke="none" stroke-width="0" stroke-linecap="butt"/><path d="M271.51693,178.62381c-0.04631,3.35164 -15.84641,15.79776 -31.89938,15.56691c-6.1094,-0.08785 -12.79659,-1.09026 -18.07709,-4.16269c-3.16412,-1.84103 -7.95191,-4.16974 -10.82181,-8.43848c-4.92538,-7.32613 -7.15097,-17.3531 -7.13283,-18.66486c0.02282,-1.65163 0.85226,10.61356 7.33152,17.20286c6.66905,6.78232 20.96896,12.70221 29.11133,12.81931c7.00678,0.10076 13.04878,-2.24284 20.14548,-6.07212c1.59645,-0.86142 3.1128,-1.77279 4.51194,-2.7118c6.63078,-4.45019 11.18514,-15.2199 11.16359,-13.66026z" data-paper-data="{&quot;index&quot;:null}" fill="#b9d7ff" stroke="none" stroke-width="0" stroke-linecap="butt"/><path d="M235.67667,131.50188c-4.98435,0.69456 -9.84931,1.0885 -14.09629,3.4735c-2.83442,1.59175 -8.61569,3.99828 -11.483,6.80455c-4.93535,4.83029 -6.40046,10.78512 -6.51689,9.61395c-0.04129,-0.41538 -0.707,-4.11207 1.12812,-8.29537c1.05646,-2.40828 1.39895,-5.46988 3.17941,-7.99597c3.09058,-4.38487 8.92309,-9.18845 12.20191,-11.01612c5.59915,-3.12108 21.21115,-6.03074 21.99993,-5.93837c0.78878,0.09237 10.75897,3.31822 11.16897,3.40855c3.76954,0.83041 10.93656,5.77003 16.02382,10.00879c1.99986,1.66629 7.2664,9.76335 8.79142,12.78079c2.37462,4.69855 -1.3902,9.51608 -1.3315,10.10658c0,0 -5.23342,-13.67845 -11.77873,-17.30642c-8.87788,-4.92089 -17.19188,-6.83349 -25.27167,-5.70759z" fill="#a2bcde" stroke="none" stroke-width="0" stroke-linecap="butt"/><g fill="none" stroke="#000000" stroke-width="2" stroke-linecap="round"><path d="M201.47593,155.71102c1.07351,-33.84354 26.9128,-41.15923 43.98362,-39.54417"/><g><path d="M236.04473,116.03415c17.10956,-1.13328 42.7324,6.90788 42.85152,40.76821" data-paper-data="{&quot;index&quot;:null}"/><path d="M244.35464,194.54869c-17.10956,1.13324 -42.7324,-6.90788 -42.85152,-40.76821" data-paper-data="{&quot;index&quot;:null}"/><path d="M278.92346,154.87182c-1.07349,33.84353 -26.91282,41.15922 -43.98363,39.54415" data-paper-data="{&quot;index&quot;:null}"/></g></g><path d="M205.19464,161.90765l16.15108,-25.90676" fill="none" stroke="#003b6f" stroke-width="2.5" stroke-linecap="round"/><path d="M211.04085,170.23381l21.92589,-37.40167" fill="none" stroke="#003b6f" stroke-width="2.5" stroke-linecap="round"/><path d="M218.13928,176.82364l23.42522,-44.22111" fill="none" stroke="#003b6f" stroke-width="2.5" stroke-linecap="round"/><path d="M250.14499,133.60047l-24.68243,46.30817" fill="none" stroke="#003b6f" stroke-width="2.5" stroke-linecap="round"/><path d="M261.83258,138.1502l-19.73021,43.39619" fill="none" stroke="#003b6f" stroke-width="2.5" stroke-linecap="round"/><path d="M268.26666,142.09966l-16.67733,38.35267" fill="none" stroke="#003b6f" stroke-width="2.5" stroke-linecap="round"/><path d="M274.13757,148.67219l-12.87603,29.98711" fill="none" stroke="#003b6f" stroke-width="2.5" stroke-linecap="round"/><path d="M257.13755,135.2601l-24.85285,45.95497" fill="none" stroke="#003b6f" stroke-width="2.5" stroke-linecap="round"/><g fill="none" stroke="#000000" stroke-width="2" stroke-linecap="round"><path d="M203.84054,157.39412c0.87082,-21.74982 25.28262,-26.34182 41.43794,-25.2307"/><g><path d="M236.37182,132.03786c16.18021,-0.65532 40.45287,4.62299 40.7103,26.3887" data-paper-data="{&quot;index&quot;:null}"/><path d="M244.56829,182.54196c-16.18022,0.6553 -40.45288,-4.623 -40.71029,-26.38869" data-paper-data="{&quot;index&quot;:null}"/><path d="M277.09958,157.18571c-0.87082,21.74982 -25.28262,26.34182 -41.43794,25.2307" data-paper-data="{&quot;index&quot;:null}"/></g></g><g fill="#0088ff" stroke="#0088ff" stroke-width="2"><g stroke-linecap="round"><path d="M220.31443,157.57548c0.30552,-12.9285 5.66474,-15.78639 9.18942,-15.21173"/><g><path d="M227.55808,142.33632c3.53947,-0.4751 8.81603,2.53276 8.75699,15.46472" data-paper-data="{&quot;index&quot;:null}"/><path d="M229.08182,172.30279c-3.53947,0.4751 -8.81604,-2.53276 -8.757,-15.46471" data-paper-data="{&quot;index&quot;:null}"/><path d="M236.32548,157.06362c-0.3055,12.92849 -5.66475,15.7864 -9.18943,15.21173" data-paper-data="{&quot;index&quot;:null}"/></g></g><path d="M234.73859,155.66691c-0.10582,7.50594 -3.74155,15.47006 -6.35652,15.4332c-2.61497,-0.03686 -6.9919,-5.61853 -6.88609,-13.12448c0.10582,-7.50594 4.46657,-13.21946 7.08154,-13.1826c2.61497,0.03686 6.26689,3.36794 6.16108,10.87388z" stroke-linecap="butt"/></g><g fill="#0088ff" stroke="#0088ff" stroke-width="2"><g stroke-linecap="round"><path d="M244.1815,157.44792c0.30552,-12.92849 5.66475,-15.78639 9.18942,-15.21173"/><g><path d="M251.42516,142.20876c3.53947,-0.4751 8.81603,2.53274 8.75699,15.46471" data-paper-data="{&quot;index&quot;:null}"/><path d="M252.9489,172.17522c-3.53947,0.4751 -8.81603,-2.53276 -8.75699,-15.46472" data-paper-data="{&quot;index&quot;:null}"/><path d="M260.19255,156.93606c-0.3055,12.92849 -5.66474,15.78639 -9.18942,15.21173" data-paper-data="{&quot;index&quot;:null}"/></g></g><path d="M258.60564,155.53936c-0.1058,7.50595 -3.74153,15.47006 -6.35651,15.43319c-2.61498,-0.03686 -7.69639,-6.09384 -7.59057,-13.59979c0.10582,-7.50594 5.17104,-12.74415 7.78602,-12.70729c2.61498,0.03687 6.26688,3.36794 6.16107,10.87389z" stroke-linecap="butt"/></g></g></g></svg>