<svg version="1.1" xmlns="http://www.w3.org/2000/svg" xmlns:xlink="http://www.w3.org/1999/xlink" width="143.67336" height="50.20155" viewBox="0,0,143.67336,50.20155"><g transform="translate(-166.35071,-150.2114)"><g data-paper-data="{&quot;isPaintingLayer&quot;:true}" fill-rule="nonzero" stroke-linejoin="miter" stroke-miterlimit="10" stroke-dasharray="" stroke-dashoffset="0" style="mix-blend-mode: normal"><path d="M173.64302,196.90652v-42.859h132.78297l-1.98132,42.734z" fill="#30d900" stroke="none" stroke-width="0" stroke-linecap="butt"/><path d="M186.9469,190.52325v-36.47575h118.68656v36.47575z" fill="#39ff00" stroke="none" stroke-width="0" stroke-linecap="butt"/><path d="M172.41733,153.31543c1.2289,-0.00629 134.35405,-1.36287 135.10674,-0.60403c1.56876,1.58161 1.5865,43.90118 -2.64799,45.20155c-0.51403,0.15786 -48.49022,1.83601 -71.54234,1.45647c-31.36169,-0.51635 -60.67927,-1.02319 -60.68556,-1.28045c0,0 -1.46524,-44.76724 -0.23084,-44.77355z" fill="none" stroke="#080808" stroke-width="5" stroke-linecap="round"/><g fill="none" stroke="#080808" stroke-width="6" stroke-linecap="round"><path d="M179.01939,190.80119c0,0 6.02068,-23.78904 7.25161,-28.65271c0.15009,-0.59305 5.76192,15.65373 5.9859,16.34148c2.00906,6.16909 3.74809,11.71871 3.74809,11.71871"/><path d="M174.87174,180.92584h24.49086"/></g><path d="M220.47767,177.1574c0,0 2.67281,9.13395 0.27453,11.83228c-3.27532,3.6851 -13.14953,1.95654 -13.14953,1.54272c0,-4.7718 0,-23.22151 0,-26c0,-0.33825 4.28767,-2.06335 8.50839,-0.81049c2.84317,0.84395 5.65903,2.96842 7.26324,4.33352c0.46254,0.3936 0.72615,6.48581 -3.65374,8.63747c-3.61808,1.77742 -11.99289,-0.2855 -11.99289,-0.2855" fill="none" stroke="#080808" stroke-width="5" stroke-linecap="round"/><path d="M242.39818,191.14826c0,0 -6.11641,2.09885 -9.11586,-2.71878c-3.09567,-4.97217 -3.06251,-16.9024 -2.07213,-19.33758c2.87806,-7.07664 9.50835,-5.50904 10.1808,-5.03669c0.92787,0.65177 9.19091,4.69065 9.132,13.05371c-0.02027,2.87757 -0.35481,8.80293 -2.31421,11.39548c-2.80996,3.71794 -9.63344,1.81173 -10.52681,2.82279" fill="none" stroke="#000000" stroke-width="6" stroke-linecap="round"/><path d="M279.02241,167.16295c0,0 -0.0349,18.29609 -4.08341,23.57654c-1.58448,2.06663 -8.37711,2.73383 -10.42382,-0.54892c-4.36385,-6.99925 -3.99628,-23.53319 -3.99628,-23.53319" fill="none" stroke="#000000" stroke-width="5" stroke-linecap="round"/><path d="M295.02706,188.89856c0,0 0.39533,-17.06655 0.39533,-22.16959c0,-0.57681 -9.3562,-0.27415 -9.3562,-0.56212c0,-0.70265 16.20862,-0.18939 16.20862,-0.18939" fill="none" stroke="#080808" stroke-width="6" stroke-linecap="round"/></g></g></svg>