<svg version="1.1" xmlns="http://www.w3.org/2000/svg" xmlns:xlink="http://www.w3.org/1999/xlink" width="90.15999" height="50.20155" viewBox="0,0,90.15999,50.20155"><g transform="translate(-169.75939,-150.21137)"><g data-paper-data="{&quot;isPaintingLayer&quot;:true}" fill-rule="nonzero" stroke-linejoin="miter" stroke-miterlimit="10" stroke-dasharray="" stroke-dashoffset="0" style="mix-blend-mode: normal"><path d="M173.643,196.9065v-42.859h84.53297v42.859z" fill="#30d900" stroke="none" stroke-width="0" stroke-linecap="butt"/><path d="M186.23301,190.52323v-36.47575h71.94296v36.47575z" fill="#39ff00" stroke="none" stroke-width="0" stroke-linecap="butt"/><path d="M172.2594,153.31541c0.83651,-0.00629 84.64764,-1.36287 85.15999,-0.60403c1.06785,1.58161 1.19444,13.6565 1.63064,24.2466c0.11175,2.71306 -0.55071,19.65458 -3.43312,20.95495c-0.3499,0.15786 -26.20024,1.83601 -41.89179,1.45647c-21.34786,-0.51635 -41.3043,-1.02319 -41.30858,-1.28045c0,0 -0.99739,-44.76724 -0.15713,-44.77355z" fill="none" stroke="#080808" stroke-width="5" stroke-linecap="round"/><path d="M179.76571,188.89416c0,0 0,-23.03934 0,-26.79321c0,-0.51581 5.43822,-2.39573 10.69782,-2.25873c2.64627,0.06893 4.41304,9.49678 1.31254,13.81808c-2.66993,3.7212 -10.1135,1.00738 -10.1135,1.00738" fill="none" stroke="#080808" stroke-width="6" stroke-linecap="round"/><path d="M201.25644,159.57769l0.35658,28.3479" fill="none" stroke="#080808" stroke-width="6" stroke-linecap="round"/><g fill="none" stroke="#080808" stroke-width="6" stroke-linecap="round"><path d="M213.14438,187.42617c0,0 6.02068,-23.78904 7.25161,-28.65271c0.15009,-0.59305 5.76192,15.65373 5.9859,16.34148c2.00906,6.16909 3.74809,11.71871 3.74809,11.71871"/><path d="M233.48759,177.55082h-24.49086"/></g><g fill="none" stroke="#080808" stroke-width="6" stroke-linecap="round"><path d="M251.06571,159.77519l-9.87535,28.24349"/><path d="M246.52305,169.84805l-9.08532,-10.07285"/></g></g></g></svg>