<svg version="1.1" xmlns="http://www.w3.org/2000/svg" xmlns:xlink="http://www.w3.org/1999/xlink" width="84.297" height="32.718" viewBox="0,0,84.297,32.718"><defs><linearGradient x1="5.083" y1="189.967" x2="89.38" y2="189.967" gradientUnits="userSpaceOnUse" id="color-1"><stop offset="0" stop-color="#66b3e3"/><stop offset="1" stop-color="#1c75bc"/></linearGradient></defs><g transform="translate(-5.083,-173.608)"><g data-paper-data="{&quot;isPaintingLayer&quot;:true}" fill-rule="nonzero" stroke-width="1" stroke-linecap="butt" stroke-linejoin="miter" stroke-miterlimit="10" stroke-dasharray="" stroke-dashoffset="0" style="mix-blend-mode: normal"><g fill="#000000" stroke="none" font-family="Pixel" font-weight="normal" font-size="40" text-anchor="start"><text transform="translate(34.57498,198.88906) scale(0.5,0.5)" font-size="40" xml:space="preserve" fill="#000000" fill-rule="nonzero" stroke="none" stroke-width="1" stroke-linecap="butt" stroke-linejoin="miter" stroke-miterlimit="10" stroke-dasharray="" stroke-dashoffset="0" font-family="Pixel" font-weight="normal" text-anchor="start" style="mix-blend-mode: normal"><tspan x="0" dy="0">High</tspan></text><text transform="translate(35.62499,198.88906) scale(0.5,0.5)" font-size="40" xml:space="preserve" fill="#000000" fill-rule="nonzero" stroke="none" stroke-width="1" stroke-linecap="butt" stroke-linejoin="miter" stroke-miterlimit="10" stroke-dasharray="" stroke-dashoffset="0" font-family="Pixel" font-weight="normal" text-anchor="start" style="mix-blend-mode: normal"><tspan x="0" dy="0">High</tspan></text></g><path d="M89.38,177.15793v25.61883c0,1.95721 -2.33046,3.54924 -5.19871,3.54924h-73.90059c-2.86524,0 -5.1977,-1.59203 -5.1977,-3.54924v-25.61952c0,-1.95721 2.33246,-3.54924 5.1977,-3.54924h73.90059c2.86825,0 5.19871,1.59271 5.19871,3.54993z" fill="url(#color-1)" stroke="none"/><g><path d="M41.36939,201.56853c-0.25138,0.37358 -0.5656,0.70526 -0.93219,0.9706c-0.49926,0.36659 -1.10327,0.6843 -1.90279,0.99852c-0.4469,0.17457 -0.92521,0.26534 -1.40352,0.26534c-0.07332,0 -0.14314,0 -0.21646,-0.00349l-2.09481,-0.1187h-2.21701c-0.0803,0 -0.1641,-0.00349 -0.2444,-0.00699c-0.47831,-0.03142 -0.77857,-0.04888 -0.89379,-0.05586c-0.18504,-0.00698 -0.37357,-0.02793 -0.55512,-0.05935c-1.79805,-0.3247 -3.17014,-1.43844 -3.77066,-3.05493c-0.01746,-0.0419 -0.03142,-0.0803 -0.0419,-0.1187c-0.27931,-0.83094 -0.53767,-2.48584 0.84141,-4.27341c0.67034,-0.86935 1.41749,-1.36511 2.0599,-1.64791v-3.3482c-0.02095,-0.69129 -0.02095,-1.38956 0,-2.08085v-2.10528c-0.86236,-0.3631 -1.60602,-0.93918 -2.1786,-1.70727c-0.24789,-0.32819 -0.43991,-0.69129 -0.56909,-1.08232c-0.17457,-0.51672 -0.26185,-1.04042 -0.26185,-1.55714c0,-1.09629 0.42944,-4.72031 5.94926,-5.26496c1.02297,-0.10823 2.11576,-0.08728 3.13174,0.07332c0.53767,0.05586 1.08581,0.11172 1.64443,0.16759c3.28885,0.27232 4.12678,2.61153 4.30483,3.32377c0.01397,0.06633 0.02793,0.12918 0.0419,0.19202c0.06633,0.34913 0.10125,0.69827 0.10125,1.0474c0,1.87835 -1.02297,3.44596 -2.7023,4.25945v8.09644c0.21646,0.09427 0.42245,0.2025 0.62146,0.32819c0.06284,0.0384 0.1222,0.07681 0.18155,0.1187c0.72969,0.51672 1.64442,1.50827 1.87136,3.29933c0.00698,0.07681 0.01746,0.15362 0.02095,0.23043c0.09427,1.4524 -0.37707,2.49282 -0.78555,3.11428z" fill="#00cccc" stroke="none"/><path d="M38.29176,181.81378c0.02025,0.10265 0.03072,0.20494 0.03072,0.30724c0,0.49123 -0.32749,0.80894 -0.98247,0.95209c-0.55268,0.0412 -1.09559,0.09217 -1.62767,0.15327c-0.1641,0.02095 -0.23567,0.12324 -0.21472,0.30724c0.02025,0.1641 0.0405,0.32749 0.06145,0.49123c0,0.51218 0.02025,1.25898 0.06145,2.2418v11.54695c0.18609,0.0412 0.61099,0.0618 1.2733,0.0618c0.53837,-0.0206 0.92137,0.0412 1.14935,0.184c0.14489,0.10265 0.23846,0.31771 0.27966,0.6452c0.02025,0.30689 -0.03072,0.55268 -0.15292,0.73668c-0.2245,0.16444 -0.57083,0.33796 -1.03972,0.5223l-2.20235,-0.12324h-0.73423c-0.73423,0 -1.26457,0 -1.59101,0c-0.63263,-0.0405 -0.9685,-0.06145 -1.009,-0.06145c-0.44934,-0.08135 -0.73458,-0.28629 -0.85643,-0.61413c-0.0618,-0.18434 0.01816,-0.41931 0.23986,-0.7063c0.22135,-0.28629 0.45248,-0.46051 0.69338,-0.52196c0.56211,0.0206 1.28517,-0.04085 2.16848,-0.18435c0,-1.14621 0,-3.37823 0,-6.69466c-0.02095,-0.65498 -0.02095,-1.3103 0,-1.96563c0,-0.81872 0,-1.392 0,-1.71984v-2.0578c0.02025,-0.49123 -0.03072,-1.14621 -0.15362,-1.96528c-0.71678,0.1229 -1.17728,0.184 -1.38188,0.184c-0.63473,0 -1.10536,-0.20424 -1.4126,-0.61413c-0.0412,-0.12324 -0.06145,-0.23532 -0.06145,-0.33797c0,-0.79847 0.8292,-1.27923 2.48759,-1.44367c0.77787,-0.08135 1.52468,-0.06145 2.2418,0.0618c0.59353,0.06145 1.19788,0.1229 1.81166,0.184c0.55303,0.04225 0.86027,0.18504 0.92137,0.43083z" fill="#ffffff" stroke="#fbfbfb"/></g><g><path d="M65.42661,194.12201c-0.28391,0.2875 -0.66485,0.59657 -1.1608,0.86251c0.07188,0.56782 0.15453,1.2183 0.25157,1.94784c0.14375,0.37376 0.29829,0.8122 0.4636,1.34408c0.06828,0.22641 0.1186,0.45641 0.14735,0.69361c0.21203,1.71065 -0.48157,3.37459 -1.858,4.44195c-0.98111,0.76189 -2.16347,1.16799 -3.42131,1.16799c-0.95955,0 -1.84722,-0.24079 -2.60192,-0.69001c-1.06377,0.39173 -2.21379,0.59298 -3.43928,0.59298c-1.77534,0 -3.51475,-0.42766 -5.16071,-1.2758c-1.49862,-0.74032 -2.72051,-1.95503 -3.63694,-3.60459c-1.08533,-1.95863 -1.63518,-4.31617 -1.63518,-7.00793c0,-0.78345 0.04313,-1.47346 0.13656,-2.10597c0.06109,-0.43126 0.14016,-1.0458 0.24438,-1.84362c0.04313,-0.34141 0.13297,-0.67564 0.26235,-0.99189c0.14016,-0.67564 0.35219,-1.51299 0.64329,-2.54442c0.03953,-0.14375 0.08985,-0.28391 0.14375,-0.42407c1.22549,-3.00442 2.98286,-5.17149 5.2254,-6.43651c1.71065,-0.96673 3.54709,-1.45909 5.4554,-1.45909c0.75111,0 1.48065,0.07547 2.18863,0.23c0.73314,-0.4672 1.67112,-0.76908 2.83552,-0.76908c0.65407,0 1.2794,0.13297 1.86519,0.39173c1.5094,0.64329 2.5516,1.973 2.79958,3.59022c0.00719,0.05031 0.01438,0.10063 0.02156,0.15094c0.10063,0.8697 0.05031,1.94784 -0.16172,3.47162c-0.01438,0.70439 -0.14016,1.4519 -0.38454,2.27848c-0.04672,0.15813 -0.10422,0.31266 -0.1725,0.4636c0.23719,0.14016 0.46001,0.30547 0.66845,0.49595c1.06736,0.98111 1.65675,2.29644 1.65675,3.70162c0,1.25783 -0.48876,2.4402 -1.37643,3.32787z" fill="#00cccc" stroke="none"/><path d="M62.62883,191.33142c-0.21096,0.21096 -0.53727,0.32668 -0.98003,0.34752c0.29469,-0.02084 -0.06325,-0.04169 -1.07491,-0.06325c-0.06325,0.59046 -0.20053,1.3908 -0.41113,2.40282c0.1053,0.906 0.27385,2.22385 0.50565,3.95139c0.14735,0.3159 0.32668,0.81148 0.53763,1.48568c0.04169,0.33746 -0.07942,0.6167 -0.36369,0.83772c-0.28463,0.22138 -0.6167,0.33207 -0.99584,0.33207c-0.35866,0 -0.62173,-0.1053 -0.79028,-0.31626c-0.02156,-0.21024 -0.08445,-0.53727 -0.18975,-0.98003c-0.21096,-0.5901 -0.30583,-0.95883 -0.28427,-1.10653c0.02084,0 0,-0.04169 -0.06361,-0.1265c-1.18021,1.62332 -2.74998,2.43409 -4.70969,2.43409c-1.15936,0 -2.28674,-0.28463 -3.38249,-0.85353c-0.77986,-0.37951 -1.43321,-1.04328 -1.9597,-1.99169c-0.75865,-1.36996 -1.13816,-3.06624 -1.13816,-5.08955c0,-0.58974 0.03163,-1.10617 0.09488,-1.54893c0.06325,-0.44276 0.14735,-1.07455 0.253,-1.89645c0.04169,-0.04205 0.08374,-0.12686 0.1265,-0.253c0.1053,-0.61095 0.32632,-1.51731 0.66414,-2.71836c0.88516,-2.1703 2.05458,-3.66676 3.50864,-4.48867c1.11696,-0.63251 2.28638,-0.94841 3.509,-0.94841c1.4749,0 2.80281,0.48516 3.98338,1.45406c0.02084,-0.02084 0.04169,-0.11536 0.06325,-0.28463c-0.04241,-0.27349 -0.04241,-0.6742 0,-1.20105c0.08374,-0.3371 0.41113,-0.50601 0.98003,-0.50601c0.1053,0 0.20018,0.02156 0.28463,0.06361c0.27349,0.10566 0.43162,0.29505 0.47402,0.5689c0.06325,0.54806 0,1.46484 -0.18975,2.74998c0.02084,0.37951 -0.05247,0.85353 -0.22102,1.42243c-0.23216,0.253 -0.49559,0.37951 -0.79028,0.37951c-0.4636,0 -0.80106,-0.20018 -1.0113,-0.60053c0,-0.14735 -0.03163,-0.3371 -0.09488,-0.56926c-0.3371,-0.58974 -0.72703,-1.05335 -1.16978,-1.3908c-0.56926,-0.4424 -1.34912,-0.6954 -2.33957,-0.75829c-1.7067,-0.14735 -3.06624,0.49523 -4.0779,1.92808c-0.71661,1.05406 -1.22225,2.30759 -1.51731,3.762c-0.06325,0.18939 -0.14771,0.48516 -0.253,0.88516c-0.23216,1.28551 -0.34788,2.44487 -0.34788,3.47701c0,1.45441 0.2318,2.84522 0.69576,4.17277c0.27385,0.77986 0.83197,1.41237 1.67543,1.89645c0.7795,0.46396 1.5802,0.69576 2.40246,0.69576c0.5477,0 1.09575,-0.11572 1.64381,-0.34788c0.37951,-0.14699 0.95883,-0.83197 1.73869,-2.05494c0.16855,-0.27349 0.30547,-0.58974 0.41113,-0.94841c0.1265,-0.48445 0.21024,-0.79028 0.25264,-0.91678c0.16855,-0.39999 0.25804,-0.91139 0.26882,-1.53312c0.01006,-0.62137 0.05786,-1.06952 0.14231,-1.34337c-0.52685,-0.04205 -1.24346,0 -2.14946,0.1265c-1.22225,0.18939 -1.84434,0.28427 -1.86483,0.28427c-0.6954,0 -1.19063,-0.27349 -1.48568,-0.82154c-0.08445,-0.18975 -0.10566,-0.38993 -0.06325,-0.60088c0.08374,-0.25264 0.26307,-0.47402 0.53727,-0.66378c0.42119,-0.31626 1.12702,-0.43162 2.11819,-0.34788c1.4961,0.14771 2.69715,0.22102 3.60351,0.22102c0.1265,0 0.47402,-0.01006 1.04292,-0.03163c0.50601,-0.02084 0.88516,-0.02084 1.13816,0c0.31626,-0.02084 0.68462,0.01078 1.10653,0.09524c0.25264,0.23216 0.37915,0.49523 0.37915,0.78992c-0.00108,0.21132 -0.07511,0.39065 -0.2221,0.53799z" fill="#ffffff" stroke="#ffffff"/></g><g><path d="M86.7499,201.51974c-0.56801,0.61678 -1.61225,1.34545 -3.3794,1.34545h-0.48482c-0.29835,0.01721 -0.53072,0.02582 -0.7258,0.02582c-0.11762,0 -0.24098,0.00861 -0.3672,0.02008c-0.09754,0.03443 -0.29262,0.10328 -0.63974,0.23811c-0.94382,0.37868 -1.67536,0.5508 -2.37533,0.5508c-0.98112,0 -1.90486,-0.34999 -2.66795,-1.00981c-0.4504,-0.38728 -0.79752,-0.85202 -1.02989,-1.36553c-0.36433,-0.02869 -0.8262,-0.07172 -1.41717,-0.12336h-1.49463c-0.06885,0 -0.13483,-0.00287 -0.20081,-0.00861c-0.74588,-0.0459 -1.46594,-0.26106 -2.13436,-0.63974c-1.24217,-0.70285 -1.98231,-1.91347 -1.98231,-3.23883c0,-1.44586 0.80899,-2.73393 2.16591,-3.44825c0.04303,-0.02582 0.08893,-0.04877 0.13483,-0.06885c0.09754,-0.0459 0.19508,-0.08606 0.29262,-0.12623c0.00287,-0.07172 0.00287,-0.14631 0.00574,-0.22089v-2.0483c0,-0.08606 0.00287,-0.16926 0.00861,-0.25245c-0.16065,-0.67416 -0.14344,-1.36266 0.05164,-1.99953c0,-0.03729 0,-0.08606 -0.00287,-0.14918c-0.00574,-0.06311 -0.00574,-0.12622 -0.00574,-0.18647c0,-0.21803 0.01434,-0.47048 0.05451,-0.84055c0.00861,-0.09467 0.01722,-0.16926 0.02008,-0.2295c-0.00287,-0.06885 -0.02008,-0.38728 -0.10902,-1.40569c-1.68396,-0.65121 -2.50156,-2.10281 -2.68516,-3.39088c-0.08893,-0.61965 0.00861,-1.25652 0.28401,-1.82166c0.77743,-1.60364 2.35813,-2.56181 4.22856,-2.56181c0.11475,0 0.2295,0.00574 0.34138,0.01721c0.12049,0.01147 0.49056,0.04303 1.10448,0.09467c0.52785,0.0459 0.8176,0.05451 0.97251,0.05451h0.10328c0.04877,-0.00574 0.08606,-0.00861 0.13483,-0.01147c0.53072,-0.02869 0.88645,-0.04877 1.06431,-0.06024c0.01147,0 0.02582,-0.00287 0.03729,-0.00287c0.06024,-0.06024 0.12336,-0.12049 0.18934,-0.17786c0.918,-0.80612 2.06551,-1.22783 3.31916,-1.22783c0.43318,0 0.76022,0.00574 1.00407,0.01721c0.19508,0.00861 0.35285,0.02295 0.49916,0.04303c0.03443,0.00287 0.07172,0.00861 0.10902,0.01721h1.16472c0.05451,-0.00574 0.12622,-0.01435 0.21802,-0.02295c0.3586,-0.03729 0.64261,-0.05451 0.89219,-0.05451c1.79298,0 3.23597,0.88071 3.88717,2.36673c0.24958,0.54219 0.37867,1.10448 0.37867,1.67249c0,1.33397 -0.74014,2.75115 -2.34952,3.42531c0.05164,1.0471 0.07746,2.07125 0.07746,3.06958v6.59815c0.00574,0.05738 0.01721,0.12623 0.02869,0.20655c0.00287,0.02008 0.00574,0.04303 0.00861,0.06311c0.02869,0.20655 0.05164,0.4131 0.06885,0.61965c1.30529,0.56515 2.18887,1.75569 2.30648,3.27613c0.06311,0.75449 -0.08606,1.86757 -1.10447,2.97204z" fill="#00cccc" stroke="none"/><path d="M84.70849,198.80187c0.01664,0.16782 -0.07602,0.36146 -0.2777,0.58006c-0.20196,0.2186 -0.55539,0.32819 -1.05972,0.32819c-0.1179,0 -0.31155,0 -0.58035,0c-0.26909,0.01664 -0.47937,0.02525 -0.63084,0.02525c-0.31958,0 -0.64777,0.02525 -0.98399,0.07602c-0.18532,0.03328 -0.58035,0.16782 -1.18624,0.40364c-0.53847,0.21831 -0.9421,0.32819 -1.21119,0.32819c-0.21889,0 -0.42085,-0.08004 -0.6056,-0.23983c-0.18532,-0.16008 -0.27741,-0.34942 -0.27741,-0.56773c0,-0.35314 0.41195,-0.63055 1.23644,-0.83251c1.19426,-0.30294 1.80818,-0.46273 1.84203,-0.47937c-0.03385,-1.07636 -0.07573,-2.3128 -0.12594,-3.7096c-0.05049,-1.31217 -0.07602,-1.93441 -0.07602,-1.86728v-1.41315c0,-0.01693 0,-0.14286 0,-0.37868c0.01693,-0.18504 0.01693,-0.31901 0,-0.40364c-0.01693,-0.15118 -0.07574,-0.24356 -0.17643,-0.27741c-0.01693,-0.01693 -0.26909,-0.02553 -0.75707,-0.02553c-0.84141,0.01721 -1.81679,0.13512 -2.927,0.35314c-0.42085,0.10127 -1.05169,0.24442 -1.89281,0.42916v3.60833c0.01664,0.06742 0.02524,0.3956 0.02524,0.98427c0,0.47134 0.05078,0.75707 0.15147,0.85776c0.08406,0.03385 0.52986,0.06741 1.33742,0.10127c0.55511,0.01693 0.89965,0.21889 1.03448,0.60531c0.03328,0.10127 -0.00459,0.25245 -0.1136,0.45441c-0.10959,0.20167 -0.22291,0.32819 -0.34081,0.37839c-0.26909,0.10098 -0.45413,0.15118 -0.55511,0.15118c-0.37036,-0.01693 -1.28693,-0.09266 -2.75057,-0.22692h-1.64036c-0.26909,-0.01721 -0.52986,-0.09725 -0.78231,-0.23983c-0.25245,-0.14286 -0.37839,-0.30667 -0.37839,-0.49228c0,-0.2688 0.15979,-0.48741 0.47937,-0.6558c0.25245,-0.11762 0.53015,-0.17672 0.8328,-0.17672c0.11733,0 0.32819,0.00459 0.63056,0.01262c0.30294,0.00861 0.52125,0.00459 0.65608,-0.01262c-0.03385,-0.65322 -0.03385,-1.6504 0,-2.99155c0,0.01721 0,-0.67846 0,-2.08588c0,-0.0502 0.02094,-0.15491 0.0634,-0.31441c0.04188,-0.15922 0.06312,-0.28086 0.06312,-0.36434c-0.06742,-0.06713 -0.13512,-0.16754 -0.20196,-0.30179c-0.03385,-0.13397 -0.03385,-0.25102 0,-0.35228c0.11762,-0.26823 0.15979,-0.68678 0.12594,-1.2568c0,-0.10041 0.01291,-0.27196 0.03815,-0.51495c0.02525,-0.24299 0.03787,-0.42343 0.03787,-0.54076c0,-0.21774 -0.04217,-0.7958 -0.12623,-1.73446v-2.08645c0,-0.10012 -0.03299,-0.25933 -0.09897,-0.47736c-0.46244,0.05049 -0.80125,0.07574 -1.01554,0.07574c-0.95817,0 -1.48659,-0.34454 -1.58528,-1.03448c0.25217,-0.52097 0.71461,-0.78231 1.38791,-0.78231c-0.01721,0 0.37839,0.03385 1.18595,0.10098c0.75707,0.06742 1.30357,0.08434 1.64036,0.05049c0.94182,-0.05049 1.36266,-0.07574 1.2614,-0.07574c0.92518,0 1.33742,0.2777 1.23672,0.8328c-0.08434,0.40364 -0.47134,0.6142 -1.16099,0.63055c-0.52154,0.01721 -1.03419,0.03385 -1.53909,0.05049c0.08836,0.58924 0.14717,1.24533 0.17672,1.96826c0,0.45413 0,1.10218 0,1.94302c0,0.90825 0,1.56434 0,1.96797c0.01664,0.01721 0.04188,0.03385 0.07574,0.05049c0.26909,0.01721 0.53818,0.02524 0.80727,0.02524c0.62224,0 1.42147,-0.05049 2.39714,-0.15118c1.31217,-0.15118 2.11055,-0.23524 2.39685,-0.25245c0.08406,-0.53818 0.12622,-1.17734 0.12622,-1.91777c0,-1.39623 -0.1179,-2.96056 -0.35314,-4.69358c0.01664,0 -0.31958,0 -1.00952,0c-0.35314,0 -0.67301,-0.06455 -0.95903,-0.19422c-0.28601,-0.12967 -0.42888,-0.3936 -0.42888,-0.79178c0,-0.17299 0.05881,-0.31126 0.17672,-0.41482c0.33622,-0.29405 0.74818,-0.44122 1.23644,-0.44122c0.90854,0 1.27832,0.02525 1.11021,0.07574h1.74105c0.06684,0 0.22262,-0.01262 0.46675,-0.03787c0.24385,-0.02525 0.43318,-0.03787 0.56773,-0.03787c0.53818,0 0.87469,0.16897 1.00952,0.50548c0.06684,0.13512 0.10098,0.26163 0.10098,0.37896c0,0.37064 -0.34483,0.58982 -1.03448,0.65724c-0.50461,0.01721 -1.00952,0.03385 -1.51385,0.05049c0.18504,2.0044 0.2777,3.93336 0.2777,5.78658v6.69655c0,0.10127 0.02151,0.2952 0.06512,0.58121c0.05738,0.43806 0.08635,0.86751 0.08635,1.28865c-0.01693,0.75821 -0.01693,1.34803 0,1.76917c0.03357,0.05049 0.06684,0.09209 0.10098,0.12594c0.82419,-0.1179 1.22783,-0.17643 1.21148,-0.17643c0.6056,0.00057 0.92489,0.24413 0.95874,0.7324z" fill="#ffffff" stroke="#ffffff"/></g><g><path d="M24.8749,201.51974c-0.56801,0.61678 -1.61225,1.34545 -3.3794,1.34545h-0.48482c-0.29835,0.01721 -0.53072,0.02582 -0.7258,0.02582c-0.11762,0 -0.24098,0.00861 -0.3672,0.02008c-0.09754,0.03443 -0.29262,0.10328 -0.63974,0.23811c-0.94382,0.37868 -1.67536,0.5508 -2.37533,0.5508c-0.98112,0 -1.90486,-0.34999 -2.66795,-1.00981c-0.4504,-0.38728 -0.79752,-0.85202 -1.02989,-1.36553c-0.36433,-0.02869 -0.8262,-0.07172 -1.41717,-0.12336h-1.49463c-0.06885,0 -0.13483,-0.00287 -0.20081,-0.00861c-0.74588,-0.0459 -1.46594,-0.26106 -2.13436,-0.63974c-1.24217,-0.70285 -1.98231,-1.91347 -1.98231,-3.23883c0,-1.44586 0.80899,-2.73393 2.16591,-3.44825c0.04303,-0.02582 0.08893,-0.04877 0.13483,-0.06885c0.09754,-0.0459 0.19508,-0.08606 0.29262,-0.12623c0.00287,-0.07172 0.00287,-0.14631 0.00574,-0.22089v-2.0483c0,-0.08606 0.00287,-0.16926 0.00861,-0.25245c-0.16065,-0.67416 -0.14344,-1.36266 0.05164,-1.99953c0,-0.03729 0,-0.08606 -0.00287,-0.14918c-0.00574,-0.06311 -0.00574,-0.12622 -0.00574,-0.18647c0,-0.21803 0.01434,-0.47048 0.05451,-0.84055c0.00861,-0.09467 0.01722,-0.16926 0.02008,-0.2295c-0.00287,-0.06885 -0.02008,-0.38728 -0.10902,-1.40569c-1.68396,-0.65121 -2.50156,-2.10281 -2.68516,-3.39088c-0.08893,-0.61965 0.00861,-1.25652 0.28401,-1.82166c0.77743,-1.60364 2.35813,-2.56181 4.22856,-2.56181c0.11475,0 0.2295,0.00574 0.34138,0.01721c0.12049,0.01147 0.49056,0.04303 1.10448,0.09467c0.52785,0.0459 0.8176,0.05451 0.97251,0.05451h0.10328c0.04877,-0.00574 0.08606,-0.00861 0.13483,-0.01147c0.53072,-0.02869 0.88645,-0.04877 1.06431,-0.06024c0.01147,0 0.02582,-0.00287 0.03729,-0.00287c0.06024,-0.06024 0.12336,-0.12049 0.18934,-0.17786c0.918,-0.80612 2.06551,-1.22783 3.31916,-1.22783c0.43318,0 0.76022,0.00574 1.00407,0.01721c0.19508,0.00861 0.35285,0.02295 0.49916,0.04303c0.03443,0.00287 0.07172,0.00861 0.10902,0.01721h1.16472c0.05451,-0.00574 0.12622,-0.01435 0.21802,-0.02295c0.3586,-0.03729 0.64261,-0.05451 0.89219,-0.05451c1.79298,0 3.23597,0.88071 3.88717,2.36673c0.24958,0.54219 0.37867,1.10448 0.37867,1.67249c0,1.33397 -0.74014,2.75115 -2.34952,3.42531c0.05164,1.0471 0.07746,2.07125 0.07746,3.06958v6.59815c0.00574,0.05738 0.01721,0.12623 0.02869,0.20655c0.00287,0.02008 0.00574,0.04303 0.00861,0.06311c0.02869,0.20655 0.05164,0.4131 0.06885,0.61965c1.30529,0.56515 2.18887,1.75569 2.30648,3.27613c0.06311,0.75449 -0.08606,1.86757 -1.10447,2.97204z" fill="#00cccc" stroke="none"/><path d="M22.83349,198.80187c0.01664,0.16782 -0.07602,0.36146 -0.2777,0.58006c-0.20196,0.2186 -0.55539,0.32819 -1.05972,0.32819c-0.1179,0 -0.31155,0 -0.58035,0c-0.26909,0.01664 -0.47937,0.02525 -0.63084,0.02525c-0.31958,0 -0.64777,0.02525 -0.98399,0.07602c-0.18532,0.03328 -0.58035,0.16782 -1.18624,0.40364c-0.53847,0.21831 -0.9421,0.32819 -1.21119,0.32819c-0.21889,0 -0.42085,-0.08004 -0.6056,-0.23983c-0.18532,-0.16008 -0.27741,-0.34942 -0.27741,-0.56773c0,-0.35314 0.41195,-0.63055 1.23644,-0.83251c1.19426,-0.30294 1.80818,-0.46273 1.84203,-0.47937c-0.03385,-1.07636 -0.07573,-2.3128 -0.12594,-3.7096c-0.05049,-1.31217 -0.07602,-1.93441 -0.07602,-1.86728v-1.41315c0,-0.01693 0,-0.14286 0,-0.37868c0.01693,-0.18504 0.01693,-0.31901 0,-0.40364c-0.01693,-0.15118 -0.07574,-0.24356 -0.17643,-0.27741c-0.01693,-0.01693 -0.26909,-0.02553 -0.75707,-0.02553c-0.84141,0.01721 -1.81679,0.13512 -2.927,0.35314c-0.42085,0.10127 -1.05169,0.24442 -1.89281,0.42916v3.60833c0.01664,0.06742 0.02524,0.3956 0.02524,0.98427c0,0.47134 0.05078,0.75707 0.15147,0.85776c0.08406,0.03385 0.52986,0.06741 1.33742,0.10127c0.55511,0.01693 0.89965,0.21889 1.03448,0.60531c0.03328,0.10127 -0.00459,0.25245 -0.1136,0.45441c-0.10959,0.20167 -0.22291,0.32819 -0.34081,0.37839c-0.26909,0.10098 -0.45413,0.15118 -0.55511,0.15118c-0.37036,-0.01693 -1.28693,-0.09266 -2.75057,-0.22692h-1.64036c-0.26909,-0.01721 -0.52986,-0.09725 -0.78231,-0.23983c-0.25245,-0.14286 -0.37839,-0.30667 -0.37839,-0.49228c0,-0.2688 0.15979,-0.48741 0.47937,-0.6558c0.25245,-0.11762 0.53015,-0.17672 0.8328,-0.17672c0.11733,0 0.32819,0.00459 0.63056,0.01262c0.30294,0.00861 0.52125,0.00459 0.65608,-0.01262c-0.03385,-0.65322 -0.03385,-1.6504 0,-2.99155c0,0.01721 0,-0.67846 0,-2.08588c0,-0.0502 0.02094,-0.15491 0.0634,-0.31441c0.04188,-0.15922 0.06312,-0.28086 0.06312,-0.36434c-0.06742,-0.06713 -0.13512,-0.16754 -0.20196,-0.30179c-0.03385,-0.13397 -0.03385,-0.25102 0,-0.35228c0.11762,-0.26823 0.15979,-0.68678 0.12594,-1.2568c0,-0.10041 0.01291,-0.27196 0.03815,-0.51495c0.02525,-0.24299 0.03787,-0.42343 0.03787,-0.54076c0,-0.21774 -0.04217,-0.7958 -0.12623,-1.73446v-2.08645c0,-0.10012 -0.03299,-0.25933 -0.09897,-0.47736c-0.46244,0.05049 -0.80125,0.07574 -1.01554,0.07574c-0.95817,0 -1.48659,-0.34454 -1.58528,-1.03448c0.25217,-0.52097 0.71461,-0.78231 1.38791,-0.78231c-0.01721,0 0.37839,0.03385 1.18595,0.10098c0.75707,0.06742 1.30357,0.08434 1.64036,0.05049c0.94182,-0.05049 1.36266,-0.07574 1.2614,-0.07574c0.92518,0 1.33742,0.2777 1.23672,0.8328c-0.08434,0.40364 -0.47134,0.6142 -1.16099,0.63055c-0.52154,0.01721 -1.03419,0.03385 -1.53909,0.05049c0.08836,0.58924 0.14717,1.24533 0.17672,1.96826c0,0.45413 0,1.10218 0,1.94302c0,0.90825 0,1.56434 0,1.96797c0.01664,0.01721 0.04188,0.03385 0.07574,0.05049c0.26909,0.01721 0.53818,0.02524 0.80727,0.02524c0.62224,0 1.42147,-0.05049 2.39714,-0.15118c1.31217,-0.15118 2.11055,-0.23524 2.39685,-0.25245c0.08406,-0.53818 0.12622,-1.17734 0.12622,-1.91777c0,-1.39623 -0.1179,-2.96056 -0.35314,-4.69358c0.01664,0 -0.31958,0 -1.00952,0c-0.35314,0 -0.67301,-0.06455 -0.95903,-0.19422c-0.28601,-0.12967 -0.42888,-0.3936 -0.42888,-0.79178c0,-0.17299 0.05881,-0.31126 0.17672,-0.41482c0.33622,-0.29405 0.74818,-0.44122 1.23644,-0.44122c0.90854,0 1.27832,0.02525 1.11021,0.07574h1.74105c0.06684,0 0.22262,-0.01262 0.46675,-0.03787c0.24385,-0.02525 0.43318,-0.03787 0.56773,-0.03787c0.53818,0 0.87469,0.16897 1.00952,0.50548c0.06684,0.13512 0.10098,0.26163 0.10098,0.37896c0,0.37064 -0.34483,0.58982 -1.03448,0.65724c-0.50461,0.01721 -1.00952,0.03385 -1.51385,0.05049c0.18504,2.0044 0.2777,3.93336 0.2777,5.78658v6.69655c0,0.10127 0.02151,0.2952 0.06512,0.58121c0.05738,0.43806 0.08635,0.86751 0.08635,1.28865c-0.01693,0.75821 -0.01693,1.34803 0,1.76917c0.03357,0.05049 0.06684,0.09209 0.10098,0.12594c0.82419,-0.1179 1.22783,-0.17643 1.21148,-0.17643c0.6056,0.00057 0.92489,0.24413 0.95874,0.7324z" fill="#ffffff" stroke="#ffffff"/></g></g></g></svg>