<svg version="1.1" xmlns="http://www.w3.org/2000/svg" xmlns:xlink="http://www.w3.org/1999/xlink" width="2551.20999" height="2717.75474" viewBox="0,0,2551.20999,2717.75474"><g transform="translate(689.70152,159.79673)"><g data-paper-data="{&quot;isPaintingLayer&quot;:true}" fill-rule="nonzero" stroke-linejoin="miter" stroke-miterlimit="10" stroke-dasharray="" stroke-dashoffset="0" style="mix-blend-mode: normal"><path d="M1171.22916,-21.4558v-115.61562c0,0 91.75051,0.91423 142.64264,37.53754c50.89213,36.62331 -142.64264,78.07808 -142.64264,78.07808z" fill="#1f372f" stroke="#1f372f" stroke-width="45" stroke-linecap="butt"/><path d="M1272.39364,-106.64869c0,0 4.55979,70.96982 7.41448,115.40091c3.90233,60.7369 13.85517,215.64552 13.85517,215.64552" fill="none" stroke="#1f372f" stroke-width="45" stroke-linecap="round"/><path d="M154.54727,774.31576l-130.30071,-63.74518l147.38263,-290.19288l124.16205,60.11383z" fill="#8c8c8c" stroke="none" stroke-width="0" stroke-linecap="butt"/><path d="M148.09103,763.39781l-120.00193,-58.70686l138.2479,-276.62994l115.41709,62.11784z" fill="#636363" stroke="none" stroke-width="0" stroke-linecap="butt"/><path d="M18.41409,716.85969c0,0 151.97367,-302.90907 156.39617,-300.59965c26.77559,13.98216 121.09218,63.56568 119.30911,67.31268c-21.32934,44.82246 -141.60296,297.26044 -144.31695,295.96436c-15.0812,-7.20206 -131.38833,-62.67739 -131.38833,-62.67739" fill="none" stroke="#000000" stroke-width="6" stroke-linecap="round"/><path d="M-687.20151,2555.45801v-1872.85087h2546.20999v1872.85087z" fill="#14f418" stroke="#000000" stroke-width="5" stroke-linecap="butt"/><path d="M314.0859,360.775v-183.99017l473.70551,6.17037l-7.64573,172.97194z" fill="#ffbd00" stroke="none" stroke-width="0" stroke-linecap="butt"/><path d="M326.47449,347.33347v-169.44784l443.22593,3.32251l-7.27926,166.12533z" fill="#e6a800" stroke="none" stroke-width="0" stroke-linecap="butt"/><path d="M309.43485,173.64507c0,0 1.92353,0.01724 5.52724,0.05119c23.75115,0.22365 89.33266,-0.28649 189.37048,1.21915c124.74823,1.87753 285.78628,6.08035 285.68964,9.36902c-1.12543,38.30052 -5.51232,173.39829 -11.39913,173.45529c-70.4192,0.68193 -467.10899,4.35415 -467.14933,0.53952c-0.22417,-21.19725 -2.03886,-184.63416 -2.03886,-184.63416" fill="none" stroke="#000000" stroke-width="6" stroke-linecap="round"/><path d="M-175.62521,121.35026v-145.05766l325.43798,4.86471l0.56431,137.9477z" fill="#8c8c8c" stroke="none" stroke-width="0" stroke-linecap="butt"/><path d="M-168.65514,110.75296v-133.59251l309.24059,2.61947l-5.07877,130.97304z" fill="#636363" stroke="none" stroke-width="0" stroke-linecap="butt"/><path d="M-183.83758,-26.18279c0,0 338.87806,3.4006 338.74703,8.38806c-0.79327,30.19609 -3.88542,136.70704 -8.0348,136.75198c-49.63572,0.53763 -329.24669,3.43281 -329.27512,0.42536c-0.15801,-16.71189 -1.43711,-145.56539 -1.43711,-145.56539" fill="none" stroke="#000000" stroke-width="6" stroke-linecap="round"/><path d="M1046.35827,258.67289v-183.99017l473.70551,6.17037l-7.64573,172.97194z" fill="#ffbd00" stroke="none" stroke-width="0" stroke-linecap="butt"/><path d="M1058.74686,245.23136v-169.44784l443.22593,3.32251l-7.27926,166.12533z" fill="#e6a800" stroke="none" stroke-width="0" stroke-linecap="butt"/><path d="M1041.70721,71.54296c0,0 1.92353,0.01724 5.52724,0.05119c23.75115,0.22365 89.33266,-0.28649 189.37048,1.21915c124.74823,1.87753 285.78628,6.08035 285.68964,9.36902c-1.12543,38.30052 -5.51232,173.39829 -11.39913,173.45529c-70.4192,0.68193 -467.10899,4.35415 -467.14933,0.53952c-0.22417,-21.19725 -2.03886,-184.63416 -2.03886,-184.63416" fill="none" stroke="#000000" stroke-width="6" stroke-linecap="round"/></g></g></svg>