<svg version="1.1" xmlns="http://www.w3.org/2000/svg" xmlns:xlink="http://www.w3.org/1999/xlink" width="442.11595" height="347.79927" viewBox="0,0,442.11595,347.79927"><defs><radialGradient cx="260.10636" cy="230.67273" r="117.41192" gradientTransform="translate(-118.49484,-203.55287) scale(0.83041,0.83041)" gradientUnits="userSpaceOnUse" id="color-1"><stop offset="0" stop-color="#ffffff"/><stop offset="1" stop-color="#ffffff" stop-opacity="0"/></radialGradient><radialGradient cx="240.09558" cy="100.00595" r="20.42994" gradientUnits="userSpaceOnUse" id="color-2"><stop offset="0" stop-color="#0064d6"/><stop offset="1" stop-color="#0064d6" stop-opacity="0"/></radialGradient><radialGradient cx="262.47861" cy="82.09556" r="13.70254" gradientUnits="userSpaceOnUse" id="color-3"><stop offset="0" stop-color="#0064d6"/><stop offset="1" stop-color="#0064d6" stop-opacity="0"/></radialGradient><radialGradient cx="239.5475" cy="84.76359" r="19.88404" gradientUnits="userSpaceOnUse" id="color-4"><stop offset="0" stop-color="#0064d6"/><stop offset="1" stop-color="#0064d6" stop-opacity="0"/></radialGradient><radialGradient cx="263.30831" cy="100.17326" r="22.44297" gradientUnits="userSpaceOnUse" id="color-5"><stop offset="0" stop-color="#0064d6"/><stop offset="1" stop-color="#0064d6" stop-opacity="0"/></radialGradient><radialGradient cx="244.44573" cy="154.48159" r="45.0779" gradientUnits="userSpaceOnUse" id="color-6"><stop offset="0" stop-color="#0064d6"/><stop offset="1" stop-color="#0064d6" stop-opacity="0"/></radialGradient><radialGradient cx="216.45224" cy="137.50641" r="50.14039" gradientUnits="userSpaceOnUse" id="color-7"><stop offset="0" stop-color="#0064d6"/><stop offset="1" stop-color="#0064d6" stop-opacity="0"/></radialGradient><radialGradient cx="216.96514" cy="135.85334" r="36.62115" gradientUnits="userSpaceOnUse" id="color-8"><stop offset="0" stop-color="#0064d6"/><stop offset="1" stop-color="#0064d6" stop-opacity="0"/></radialGradient></defs><g transform="translate(-18.69443,6.64302)"><g data-paper-data="{&quot;isPaintingLayer&quot;:true}" fill-rule="nonzero" stroke="none" stroke-linecap="butt" stroke-linejoin="miter" stroke-miterlimit="10" stroke-dasharray="" stroke-dashoffset="0" style="mix-blend-mode: normal"><text transform="translate(142.69443,245.12343) scale(1.20422,1.20422)" font-size="40" xml:space="preserve" fill="url(#color-1)" fill-rule="nonzero" stroke="none" stroke-width="1" stroke-linecap="butt" stroke-linejoin="miter" stroke-miterlimit="10" stroke-dasharray="" stroke-dashoffset="0" font-family="Pixel" font-weight="normal" text-anchor="start" style="mix-blend-mode: normal"><tspan x="0" dy="0">Loading...</tspan></text><g stroke-width="1"><path d="M255.6681,90.26099c0,0 5.37336,21.12914 4.81703,22.38861c-1.41034,-0.76999 -25.09861,-9.51609 -25.09861,-9.51609l-15.72087,-15.77121z" fill="url(#color-2)"/><path d="M273.24368,92.18922c0,0 -9.98767,-3.93264 -11.24083,-4.79124c-2.69626,-1.83836 -13.01474,-8.49751 -13.22392,-9.62305c-0.11013,-0.67761 3.00564,-5.46287 3.1871,-5.77301l24.21513,14.6695c-0.22776,0.68933 -2.93748,5.5178 -2.93748,5.5178z" fill="url(#color-3)"/><path d="M219.66346,87.36603l29.10234,-9.5687c0,0 9.88812,10.30083 10.66573,13.91824c-5.4746,0.30416 -39.76807,-4.34954 -39.76807,-4.34954z" fill="url(#color-4)"/><path d="M277.89682,122.61623c-1.35981,-0.56488 -15.67188,-6.33925 -15.67188,-6.33925l-6.54172,-6.87329c0,0 -4.98856,-22.52408 -6.96343,-31.67342c2.25363,0.43454 24.52609,14.45519 24.52609,14.45519c0,0 4.56885,25.65035 4.65095,30.43076z" fill="url(#color-5)"/><path d="M232.44706,199.55949l-21.45243,-11.92454l10.01447,-41.49696l34.67412,-36.7343l22.21361,13.21254c0,0 -28.4866,49.35657 -33.83259,58.08219c-2.19867,3.5864 -11.61717,18.86106 -11.61717,18.86106z" fill="url(#color-6)"/><path d="M210.99773,187.6468c0,0 -9.4482,-5.64337 -11.38269,-6.88054c-4.18005,-2.6714 -8.41228,-5.22788 -12.62731,-7.83948c-2.09334,-1.30002 -4.09303,-2.72581 -6.15986,-4.04544c-1.08355,-0.69415 -3.60659,-2.24559 -3.60659,-2.24559c0,0 2.74278,-5.33078 3.40492,-6.53964c1.24221,-2.26886 2.53391,-4.49372 3.72664,-6.80659c4.80421,-9.30845 32.51689,-61.69719 35.31065,-65.92349c4.73072,2.6475 36.01974,22.03766 36.01974,22.03766z" fill="url(#color-7)"/><path d="M210.50539,172.47449c0,0 -5.97132,-3.579 -7.19029,-4.36745c-2.63316,-1.70615 -5.31069,-3.3279 -7.9701,-4.98921c-1.31958,-0.82223 -2.57266,-1.74097 -3.87539,-2.58343c-0.68499,-0.4409 -2.00202,-0.83029 -2.00407,-1.88981c-0.0015,-1.06046 30.26983,-56.37355 32.25346,-59.41239c3.0003,1.67017 22.74575,14.00039 22.74575,14.00039z" fill="url(#color-8)"/></g><text transform="translate(148.69443,243.76958) scale(1.13243,1.13243)" font-size="40" xml:space="preserve" fill="#ffffff" fill-rule="nonzero" stroke="none" stroke-width="1" stroke-linecap="butt" stroke-linejoin="miter" stroke-miterlimit="10" stroke-dasharray="" stroke-dashoffset="0" font-family="Pixel" font-weight="normal" text-anchor="start" style="mix-blend-mode: normal"><tspan x="0" dy="0">Loading...</tspan></text><text transform="translate(32.69443,23.53124) scale(0.59751,0.59751)" font-size="40" xml:space="preserve" fill="#ffffff" fill-rule="nonzero" stroke="none" stroke-width="1" stroke-linecap="butt" stroke-linejoin="miter" stroke-miterlimit="10" stroke-dasharray="" stroke-dashoffset="0" font-family="Pixel" font-weight="normal" text-anchor="start" style="mix-blend-mode: normal"><tspan x="0" dy="0">Tip:be a epic gamer and drink your </tspan><tspan x="0" dy="46.150000000000006px">                             milk</tspan></text><path d="M253.50378,92.69592c0,0 4.76847,18.75057 4.27476,19.86826c-1.25157,-0.68331 -22.27319,-8.44484 -22.27319,-8.44484l-13.95113,-13.9958z" fill="#005cc5" stroke-width="1"/><path d="M269.10083,94.40708c0,0 -8.86333,-3.48993 -9.97542,-4.25188c-2.39273,-1.63141 -11.54963,-7.54092 -11.73527,-8.53976c-0.09773,-0.60133 2.66729,-4.8479 2.82832,-5.12313l21.48916,13.01811c-0.20212,0.61173 -2.6068,4.89665 -2.6068,4.89665z" fill="#0064d6" stroke-width="1"/><path d="M221.55229,90.12685l25.82621,-8.49152c0,0 8.77499,9.14124 9.46506,12.35142c-4.85831,0.26992 -35.29127,-3.8599 -35.29127,-3.8599z" fill="#0064d6" stroke-width="1"/><path d="M273.23015,121.40884c-1.20673,-0.50129 -13.90765,-5.62562 -13.90765,-5.62562l-5.8053,-6.09954c0,0 -4.42698,-19.98848 -6.17954,-28.10785c1.99993,0.38562 21.76512,12.82793 21.76512,12.82793c0,0 4.05452,22.76282 4.12738,27.00508z" fill="#0078ff" stroke-width="1"/><path d="M232.8968,189.69038l-19.03747,-10.58216l8.88711,-36.82553l30.77076,-32.59902l19.71296,11.72517c0,0 -25.27978,43.80036 -30.02396,51.54371c-1.95116,3.18267 -10.30939,16.73782 -10.30939,16.73782z" fill="#0064d6" stroke-width="1"/><path d="M213.86208,179.11873c0,0 -8.38459,-5.00808 -10.10131,-6.10598c-3.70949,-2.37067 -7.46529,-4.63936 -11.20582,-6.95697c-1.85769,-1.15367 -3.63227,-2.41896 -5.46643,-3.59003c-0.96157,-0.61601 -3.20059,-1.9928 -3.20059,-1.9928c0,0 2.43402,-4.73068 3.02162,-5.80345c1.10237,-2.01345 2.24866,-3.98785 3.30712,-6.04035c4.26339,-8.26057 28.85637,-54.75176 31.33563,-58.5023c4.19817,2.34946 31.9649,19.55682 31.9649,19.55682z" fill="#0078ff" stroke-width="1"/><path d="M213.42517,165.65441c0,0 -5.29911,-3.1761 -6.38086,-3.87579c-2.33674,-1.51408 -4.71285,-2.95327 -7.07288,-4.42756c-1.17103,-0.72967 -2.28305,-1.54498 -3.43913,-2.29261c-0.60788,-0.39127 -1.77665,-0.73682 -1.77847,-1.67707c-0.00133,-0.94108 26.86227,-50.02742 28.6226,-52.72417c2.66255,1.48215 20.1852,12.42433 20.1852,12.42433z" fill="#ffffff" stroke-width="1"/><g fill="#ffffff" stroke-width="0"><path d="M417.69443,341.15624c-57.82653,0 -368,0 -368,0v-84c0,0 314.85117,0 371,0c16.49031,0 32,32.11547 32,41.26316c0,11.22482 0,0.53616 0,8.84211c0,12.39877 -17.16647,33.89474 -35,33.89474z" data-paper-data="{&quot;index&quot;:null}"/><path d="M18.69443,307.2615c0,-8.30595 0,2.38271 0,-8.84211c0,-9.14769 15.50969,-41.26316 32,-41.26316c56.14883,0 371,0 371,0v84c0,0 -310.17347,0 -368,0c-17.83353,0 -35,-21.49597 -35,-33.89474z"/></g></g></g></svg>