<svg version="1.1" xmlns="http://www.w3.org/2000/svg" xmlns:xlink="http://www.w3.org/1999/xlink" width="90.24409" height="35.74051" viewBox="0,0,90.24409,35.74051"><defs><linearGradient x1="-45.39671" y1="229.467" x2="44.84738" y2="229.467" gradientUnits="userSpaceOnUse" id="color-1"><stop offset="0" stop-color="#66b3e3"/><stop offset="1" stop-color="#1c75bc"/></linearGradient></defs><g transform="translate(45.39671,-210.08549)"><g data-paper-data="{&quot;isPaintingLayer&quot;:true}" fill-rule="nonzero" stroke-width="1" stroke-linecap="butt" stroke-linejoin="miter" stroke-miterlimit="10" stroke-dasharray="" stroke-dashoffset="0" style="mix-blend-mode: normal"><text transform="translate(-20.0143,235.33549) scale(0.5,0.5)" font-size="40" xml:space="preserve" fill="#000000" fill-rule="nonzero" stroke="none" stroke-width="1" stroke-linecap="butt" stroke-linejoin="miter" stroke-miterlimit="10" stroke-dasharray="" stroke-dashoffset="0" font-family="Pixel" font-weight="normal" text-anchor="start" style="mix-blend-mode: normal"><tspan x="0" dy="0">Low</tspan></text><text transform="translate(-18.96429,235.33549) scale(0.5,0.5)" font-size="40" xml:space="preserve" fill="#000000" fill-rule="nonzero" stroke="none" stroke-width="1" stroke-linecap="butt" stroke-linejoin="miter" stroke-miterlimit="10" stroke-dasharray="" stroke-dashoffset="0" font-family="Pixel" font-weight="normal" text-anchor="start" style="mix-blend-mode: normal"><tspan x="0" dy="0">Low</tspan></text><path d="M44.84738,216.65793v25.61883c0,1.95721 -2.49487,3.54924 -5.56548,3.54924h-79.11422c-3.06738,0 -5.56439,-1.59203 -5.56439,-3.54924v-25.61952c0,-1.95721 2.49702,-3.54924 5.56439,-3.54924h79.11422c3.0706,0 5.56548,1.59271 5.56548,3.54993z" fill="url(#color-1)" stroke="none"/><g><path d="M-18.99525,240.80054c-1.05441,0.75195 -2.34408,1.18464 -3.82698,1.27286c-0.61332,0.03781 -1.20985,0.07141 -1.78536,0.09662c-0.31506,0.021 -1.73495,0.13023 -6.49872,0.5083c-0.03361,0.0042 -0.07141,0.0042 -0.10922,0.0084c-0.82337,0.04621 -2.22225,0.17644 -4.16305,0.39068c-1.4955,0.27306 -1.88618,0.31926 -2.33988,0.31926c-2.00381,0 -3.81017,-0.78976 -5.07883,-2.21805c-0.63433,-0.71415 -1.02921,-1.60893 -1.13843,-2.55412c-0.07982,-0.72255 -0.24365,-2.17604 0.59652,-3.61273c0.43689,-0.76035 1.26026,-1.82317 2.70115,-2.52471v-1.83997c0,-0.75195 -0.06721,-2.34408 -0.39068,-5.66695c-1.56272,-0.61753 -2.73055,-1.80637 -3.27246,-3.38169c-0.0084,-0.02521 -0.0168,-0.05041 -0.02521,-0.07982c-0.22685,-0.68894 -0.34027,-1.38628 -0.34027,-2.07522c0,-2.13823 1.43249,-5.75937 6.80118,-5.75937c0.4957,0 1.07122,0.05041 1.84417,0.15963c0.05881,0.0042 0.10922,0.0042 0.15963,0.0042c0.57972,-0.06721 1.60473,-0.13443 4.10843,-0.16383h0.05881c2.23485,0 3.59593,0.94939 4.34788,1.75176c0.9872,1.05021 1.52911,2.4491 1.52911,3.9362c0,2.09623 -1.01661,3.9152 -2.72215,4.89399c-0.32767,0.18904 -0.67634,0.34867 -1.04181,0.4789c0.0168,0.25205 0.03781,0.5083 0.05881,0.77716c0.0084,0.11342 0.0126,0.22685 0.0126,0.34027v1.76016c0.0084,0.18064 0.05461,0.89478 0.32767,3.61693c0.04621,-0.0042 0.09242,-0.0084 0.13863,-0.0126c-0.02941,-0.15963 -0.05881,-0.31086 -0.08822,-0.46209c-0.22265,-1.12583 -0.0168,-2.28526 0.56291,-3.25986c0.44109,-0.91579 1.15944,-1.70975 2.10463,-2.28526c0.9956,-0.60912 2.14244,-0.93259 3.30607,-0.93259c0.983,0 1.93659,0.25625 2.76416,0.73515c0.91579,0.53351 2.09623,1.59212 2.65494,3.65054c0.27726,1.02921 0.35707,2.01641 0.24365,2.949c-0.0126,0.12603 -0.03361,0.66373 0.14283,1.9576c0.10922,0.21844 0.21004,0.44529 0.31086,0.69314c0.09662,0.23525 0.17644,0.4747 0.23105,0.71835c0.52511,2.24746 -0.31506,4.47391 -2.18444,5.80978z" fill="#00cccc" stroke="none"/><path d="M-21.31034,236.03971c0.09746,0.41925 -0.02563,0.75195 -0.3701,0.9977c-0.34447,0.24659 -0.81875,0.38816 -1.42283,0.42513c-0.60408,0.03697 -1.188,0.06805 -1.75512,0.09242c-0.36926,0.0231 -2.57428,0.19576 -6.61382,0.51713c-0.93637,0.05209 -2.46338,0.19534 -4.58187,0.42891c-0.98552,0.18274 -1.53961,0.27306 -1.6627,0.27306c-0.6902,0 -1.23211,-0.22181 -1.62573,-0.66542c-0.04957,-0.44361 -0.04957,-0.70196 0,-0.7759c0.29532,-0.54149 0.84941,-0.84983 1.6627,-0.92377c0.665,-0.04915 1.31781,-0.09788 1.95844,-0.14787c0.02436,0 0.04873,-0.02479 0.07394,-0.07436c0.04915,-1.00947 -0.07394,-2.16722 -0.36968,-3.47327v-2.06934c0,-1.28084 -0.14787,-3.4237 -0.44361,-6.42983c-0.04957,-0.73893 -0.12351,-1.81057 -0.22138,-3.21449c-0.14787,-0.09788 -0.34531,-0.13485 -0.59106,-0.1109c-0.32053,0.04957 -0.51713,0.06133 -0.59106,0.03697c-0.36968,-0.05083 -0.75195,-0.10082 -1.14599,-0.15165c-0.49276,-0.10166 -0.80068,-0.32977 -0.92335,-0.68474c-0.07436,-0.22811 -0.11132,-0.44361 -0.11132,-0.64609c0,-0.76077 0.72633,-1.14095 2.18024,-1.14095c0.29532,0 0.76287,0.04957 1.40393,0.14787c0.51713,0.02521 0.86244,0.02521 1.03467,0c0.51713,-0.07394 1.761,-0.12309 3.73246,-0.14787c0.46755,0 0.79438,0.0983 0.9788,0.2949c0.18484,0.19702 0.27726,0.45495 0.27726,0.77422c0,0.44319 -0.13569,0.73809 -0.40664,0.88512c-0.36926,0.22138 -0.94855,0.31968 -1.73663,0.2949c-0.98594,-0.02436 -1.61397,-0.01218 -1.8845,0.03697c0.04915,1.18044 0.16005,2.93766 0.33271,5.27249v1.80721c0,0.39362 0.14787,2.04035 0.44361,4.94104c0.07394,0.66415 0.17181,1.70849 0.29532,3.13426c0.04915,0.08654 0.11132,0.12939 0.18484,0.12939c0.88638,0.13569 1.69967,0.17896 2.4386,0.12939c0.91117,-0.07394 1.83493,-0.14787 2.77172,-0.22138c0.59106,-0.02436 1.18212,-0.06133 1.7736,-0.11132c0.7885,-0.04873 1.56398,-0.17181 2.32769,-0.36926c0,-0.27096 -0.06133,-0.71415 -0.18442,-1.33041c-0.14787,-0.76287 -0.23483,-1.20649 -0.25835,-1.32999c0.02394,-0.24617 0.03697,-0.60366 0.03697,-1.07206c-0.0983,-0.63979 -0.19786,-1.20649 -0.29532,-1.69967c0.02394,0 0.07394,-0.03697 0.14787,-0.1109c-0.02563,-0.22138 0.10418,-0.41841 0.38816,-0.59106c0.2823,-0.17223 0.58434,-0.25877 0.90486,-0.25877c0.17223,0 0.32011,0.03697 0.44319,0.11132c0.22223,0.12351 0.39404,0.41252 0.51755,0.8679c0.12309,0.45621 0.16005,0.85613 0.1109,1.20102c-0.0983,0.88638 0,2.22981 0.29532,4.02736c0.14703,0.1987 0.30708,0.5062 0.48016,0.92461z" fill="#ffffff" stroke="#ffffff"/></g><path d="M43.82943,219.36919c0,2.20525 -1.31297,3.97285 -3.35198,4.5055c-0.06446,0.01696 -0.13232,0.03393 -0.19678,0.05089c-0.06785,0.54283 -0.15267,1.13316 -0.25106,1.77777l-0.49873,3.5284c-0.17303,1.38422 -0.62086,4.0407 -1.37065,8.12211c-0.00339,0.01357 -0.00679,0.02375 -0.00679,0.03732c-0.19338,0.99406 -0.28838,1.36726 -0.43427,1.74045c-0.00679,0.01696 -0.01357,0.03053 -0.02036,0.04411c-0.49533,1.20441 -1.40458,2.14758 -2.62595,2.72773c-0.50212,0.2341 -1.04834,0.35623 -1.59796,0.35623c-0.10517,0 -0.20695,-0.00339 -0.31213,-0.01018c-0.24427,-0.02036 -0.48176,-0.04411 -0.70907,-0.06446c-0.04411,-0.00339 -0.08821,-0.00679 -0.13232,-0.01357c-1.46564,-0.18321 -2.38167,-0.84478 -2.91093,-1.41475c-0.14928,-0.15946 -0.28838,-0.3257 -0.4173,-0.50551c-0.30195,0.26802 -0.6039,0.46819 -0.8821,0.62086c-0.32231,0.17981 -0.67175,0.30874 -1.03477,0.38337c-0.39016,0.08142 -0.95335,0.19678 -1.69296,0.33927c-0.67515,0.13232 -1.37743,0.07464 -2.02205,-0.16624c-0.66836,-0.25106 -1.28922,-0.66836 -1.89652,-1.27565c-0.42748,-0.42748 -0.74639,-0.95335 -0.92621,-1.5335c-0.64122,-2.06954 -1.46904,-5.1094 -2.53095,-9.2892c-0.00679,-0.03732 -0.01696,-0.07125 -0.02375,-0.10857c-0.11196,-0.49873 -0.28499,-1.23833 -0.51908,-2.21204c-0.15946,-0.49194 -0.35963,-1.1162 -0.59711,-1.87616c-1.22476,-0.29856 -2.06954,-0.93638 -2.61238,-1.49957c-0.51569,-0.53265 -1.12977,-1.4419 -1.24173,-2.82612c-0.01018,-0.09839 -0.01357,-0.20017 -0.01357,-0.30195c0,-1.14334 0.3732,-2.1849 1.07548,-3.0195c0.73282,-0.88889 1.53011,-1.45207 2.43935,-1.7201c0.73282,-0.2341 1.581,-0.36641 2.58184,-0.39355c0.51908,-0.01357 1.03816,-0.01018 1.54368,-0.02375c0.45123,-0.05768 1.04834,-0.13232 1.79813,-0.22053c0.10517,-0.01357 0.21374,-0.02036 0.32231,-0.02375c0.14249,-0.00679 0.28159,-0.00679 0.41052,-0.00679c0.89567,0 1.61492,0.09839 2.25954,0.31552c0.02036,0.00339 0.03732,0.01018 0.05768,0.01696c0.32909,0.11535 0.63783,0.26463 0.92281,0.43766c0.30534,-0.11535 0.62426,-0.20356 0.96013,-0.26463c0.12553,-0.02036 0.25106,-0.03732 0.37998,-0.04411c0.60051,-0.04411 1.20101,0.01018 1.78795,0.15606c0.91264,-0.98388 2.21543,-1.54028 3.69465,-1.54028c0.41052,0 0.88549,0.05428 1.59117,0.17642c0.03393,0.00339 0.06785,0.01018 0.09839,0.01696c0.00339,0 0.00339,0 0.00339,0c0.44784,-0.03053 0.95335,-0.01018 1.7167,0.05768c0.54283,0.04071 1.09245,0.07803 1.64885,0.11535c1.05852,0.06446 1.96437,0.24767 2.7413,0.5564c0.06785,0.02714 0.13232,0.05428 0.19678,0.08482c1.62849,0.75996 2.59881,2.32739 2.59881,4.18659z" fill="#00cccc" stroke="none"/><path d="M39.65098,218.56445c0.29856,0.13944 0.4475,0.40814 0.4475,0.80577c0,0.49771 -0.18931,0.79627 -0.56692,0.89533c-0.37829,0.09975 -0.7162,0.13944 -1.01476,0.11976c-0.04003,0 -0.29822,-0.06955 -0.77591,-0.20899c-0.37795,-0.09941 -0.69652,-0.13876 -0.9547,-0.11942c-0.02002,0.02002 -0.02986,0.55742 -0.02986,1.61153c-0.05971,0.89533 -0.19915,2.05903 -0.41764,3.49142c-0.29856,2.10924 -0.46785,3.30245 -0.50721,3.58133c-0.15946,1.2933 -0.60729,3.93892 -1.34283,7.93789c-0.11976,0.61611 -0.19915,0.97438 -0.23885,1.07447c-0.13944,0.33791 -0.3983,0.59678 -0.77591,0.77557c-0.23851,-0.02002 -0.46751,-0.04003 -0.686,-0.05971c-0.31857,-0.04003 -0.5374,-0.1296 -0.65683,-0.26836c-0.21917,-0.21917 -0.37795,-0.58694 -0.47735,-1.10432c-0.19915,-0.8156 -0.29856,-1.23358 -0.29856,-1.25326c-0.15946,-0.49737 -0.55708,-1.93994 -1.19389,-4.32738c-0.33825,-1.31297 -0.8553,-3.31263 -1.55148,-5.99829c-0.13944,0.7162 -0.27888,1.63155 -0.41764,2.74537c-0.1598,1.55182 -0.33859,2.98455 -0.5374,4.29753c-0.09975,0.8553 -0.26836,2.04919 -0.50721,3.58133c-0.15946,0.75623 -0.43766,1.24308 -0.83562,1.46225c-0.37795,0.07905 -0.92519,0.18897 -1.64139,0.32841c-0.15946,-0.05971 -0.34809,-0.19915 -0.56692,-0.41764c-0.61679,-1.98914 -1.44257,-5.02356 -2.47701,-9.10192c-0.11942,-0.53706 -0.30874,-1.34283 -0.56692,-2.4173c-0.25886,-0.79559 -0.63715,-1.98914 -1.13418,-3.58133c-0.04003,-0.23851 -0.15946,-0.56692 -0.35827,-0.98456c-0.59678,0.09975 -0.99508,0.14894 -1.19389,0.14894c-0.61679,0 -1.09448,-0.1788 -1.4324,-0.53706c-0.11976,-0.11942 -0.18965,-0.29856 -0.20899,-0.53706c0,-0.25852 0.06955,-0.46717 0.20899,-0.62697c0.25818,-0.3179 0.47735,-0.49703 0.65649,-0.53706c0.39796,-0.13876 0.93503,-0.21883 1.61153,-0.23885c0.57676,0 1.15352,-0.0095 1.73095,-0.02986c0.45767,-0.05971 1.10432,-0.13876 1.93994,-0.23851c0.61645,-0.01968 1.07447,0.02002 1.37268,0.11942c0.39796,0.13944 0.59711,0.42816 0.59711,0.86548c0,0.19915 -0.04003,0.34843 -0.11976,0.4475c-0.23851,0.25886 -0.5771,0.41764 -1.01442,0.47735c-0.35827,0.04003 -0.72672,0.07023 -1.10432,0.08991c-0.11942,0.02002 -0.29822,0.05971 -0.53706,0.11942c-0.15946,0.09975 -0.22901,0.31823 -0.20865,0.65649c0.01968,0.33859 0.19847,0.9849 0.53706,1.93994c0.15912,0.45801 0.60661,2.31789 1.34283,5.58065c0.31823,1.09448 0.79559,2.77523 1.43274,5.04324c-0.02036,0 0.0095,0.04003 0.08957,0.11942c0.2782,-1.05411 0.53706,-2.46683 0.77591,-4.23748c0.15912,-1.21323 0.3179,-2.42713 0.47735,-3.6407c0.03936,-0.37761 0.09941,-0.93503 0.1788,-1.67124c0.07905,-0.43732 0.17913,-1.12366 0.29856,-2.05903c0,-0.61611 0.06955,-1.5318 0.20865,-2.74571c0.07939,-0.35793 0.34775,-0.57642 0.80577,-0.65649c0.27854,-0.01968 0.55708,0.02002 0.83562,0.11942c0.35827,0.13944 0.5374,0.33859 0.5374,0.59711c0,0.73622 0.11942,1.59151 0.35793,2.56624c0.19881,0.5771 0.43766,1.3927 0.7162,2.44715c0.05971,0.31823 0.80577,3.2329 2.23816,8.74366c0.03969,0.11942 0.09941,0.22901 0.17913,0.32807c0.2782,-1.03409 0.47735,-1.91959 0.59678,-2.6558c0.35827,-2.10856 0.82544,-5.38116 1.40288,-9.81812c0.01968,-0.03936 0.0095,-0.57642 -0.03019,-1.61119c-0.04003,-0.06005 -0.08957,-0.09941 -0.14894,-0.11976c-0.53706,-0.11942 -1.08431,-0.23851 -1.64139,-0.35827c-0.7162,-0.15878 -1.07413,-0.38779 -1.07413,-0.686c0,-0.07905 0.02986,-0.16896 0.08957,-0.2687c0.19847,-0.43732 0.5866,-0.65649 1.16403,-0.65649c0.1788,0 0.49703,0.04003 0.9547,0.11942c0.39762,0.07973 0.69618,0.1045 0.89533,0.07464c0.19881,-0.02986 0.61645,-0.01493 1.25326,0.04478c0.55674,0.04003 1.12366,0.07973 1.7011,0.11942c0.67549,0.03902 1.21255,0.13808 1.61085,0.2972z" fill="#ffffff" stroke="#ffffff"/><g><path d="M12.50073,226.12577v1.68445c0,0.99884 -0.23927,2.4188 -0.7513,4.46868c-0.21055,0.9536 -0.61252,1.93504 -1.19155,2.91995c-0.00957,0.01392 -0.01914,0.02436 -0.02393,0.03828c-1.02885,1.68794 -2.72286,3.16009 -5.03896,4.37471c-2.46924,1.29119 -5.02461,1.94548 -7.6039,1.94548c-1.0432,0 -2.03855,-0.11833 -2.9717,-0.34803c-3.30667,-0.7761 -5.91946,-2.25174 -7.76182,-4.38515c-0.39718,-0.46984 -0.78958,-1.05104 -1.27769,-1.90023c-0.00957,-0.02088 -0.01914,-0.03829 -0.0335,-0.05917c-0.60295,-1.09977 -0.92357,-1.98028 -1.00971,-2.77378c-0.01436,-0.13573 -0.06699,-0.46288 -0.23927,-1.10325c-0.06221,-0.24014 -0.09571,-0.48376 -0.09571,-0.72738v-1.48956c-0.21055,-0.58817 -0.2297,-1.2181 -0.02393,-1.84107c0.07657,-0.24014 0.18663,-0.47332 0.32062,-0.6891c0,-0.42459 0.10049,-0.84919 0.29191,-1.2529c0.05264,-0.17401 0.12442,-0.34455 0.21055,-0.51508c0.00479,-0.00348 0.09092,-0.18097 0.21055,-0.67169c0.14356,-0.60209 0.41154,-1.37819 0.81351,-2.35615c0.00479,-0.01044 0.00957,-0.02436 0.01436,-0.0348c0.78001,-1.82367 2.35439,-3.55337 4.81405,-5.28655c0.01914,-0.01392 0.0335,-0.02436 0.05264,-0.0348c1.24419,-0.85615 2.67979,-1.39907 4.26852,-1.62181c0.28712,-0.03828 0.57903,-0.05917 0.87572,-0.06613c0.18184,-0.00348 0.66516,-0.02436 1.45474,-0.05568c0.02871,0 0.05742,-0.00348 0.08614,-0.00348c2.33046,-0.06961 4.5365,0.29234 6.57984,1.06844c2.35917,0.87703 4.22545,2.19606 5.55099,3.92228c0.62688,0.81786 1.16284,1.80975 1.64137,3.04176c0.55988,1.39559 0.83743,2.62413 0.83743,3.75174z" fill="#00cccc" stroke="none"/><path d="M8.35194,227.97009c0,0.75522 -0.25597,2.03109 -0.76518,3.82657c-0.15923,0.65325 -0.47769,1.33712 -0.95647,2.05128c-0.73366,1.06149 -1.98359,2.00047 -3.75198,2.81659c-1.76893,0.81613 -3.48188,1.22436 -5.13886,1.22436c-0.54182,0 -1.03581,-0.05081 -1.48199,-0.15278c-2.42216,-0.48968 -4.30195,-1.41821 -5.64046,-2.78596c-0.25597,-0.26485 -0.59019,-0.71415 -1.0043,-1.34687c-0.44617,-0.71415 -0.6929,-1.26508 -0.74072,-1.65313c-0.04782,-0.38735 -0.16738,-0.89756 -0.35868,-1.53028v-2.26566c0.12717,-0.04037 0.06359,-0.10163 -0.19129,-0.18341h0.28694c0,-0.10197 0.06304,-0.29582 0.19129,-0.58155c0.12662,-0.28573 0.19129,-0.50012 0.19129,-0.64316c0,-0.1225 -0.04782,-0.23457 -0.14347,-0.33689c0.12662,0 0.23857,-0.03063 0.33422,-0.09188c-0.03206,-0.04072 -0.11195,-0.06125 -0.23857,-0.06125c0.03152,-0.02018 0.0875,-0.05081 0.16738,-0.09188c0.07934,-0.04072 0.13532,-0.07135 0.16793,-0.09188c-0.03261,-0.02053 -0.07173,-0.03584 -0.1201,-0.04629c-0.04782,-0.00975 -0.08804,-0.02506 -0.11956,-0.04594c0.19184,-0.32645 0.36628,-0.77541 0.52606,-1.34687c0.12662,-0.46914 0.38259,-1.11195 0.76463,-1.92842c0.57388,-1.18329 1.88034,-2.40801 3.9199,-3.67378c0.57388,-0.34664 1.19505,-0.56102 1.86458,-0.64281c0.09565,0 0.71681,-0.02053 1.86458,-0.0616c1.5934,-0.04037 3.0906,0.17367 4.49324,0.64316c1.626,0.53074 2.89985,1.32668 3.82426,2.38782c0.47878,0.55093 0.92441,1.29605 1.33852,2.23469c0.47878,1.0406 0.71735,1.93886 0.71735,2.69374v1.68411zM5.19721,224.57229c-0.19021,-0.28538 -0.41302,-0.6529 -0.66681,-1.1022c-0.31846,-0.91845 -1.26352,-1.76485 -2.83518,-2.54095c-1.5722,-0.77541 -3.02484,-1.12204 -4.35901,-1.0406c-0.60323,0.04107 -1.62002,0.68422 -3.04984,1.92877c-0.69888,0.592 -1.39721,1.77564 -2.09554,3.55093c-0.63529,1.65313 -0.93745,2.92866 -0.90484,3.82657c0.06304,1.14292 0.15869,1.93886 0.28585,2.38747c0.22173,0.83701 0.69833,1.60232 1.42873,2.29629c0.69888,0.61218 1.23907,1.00998 1.62002,1.19408c1.42873,0.65325 2.77811,0.97935 4.04924,0.97935c0.28531,0 0.55541,-0.02018 0.80974,-0.06125c0.60323,-0.06125 1.31732,-0.31601 2.14337,-0.76531c0.69888,-0.40824 1.22276,-0.7855 1.57274,-1.13283c0.47606,-0.50986 0.92115,-1.27517 1.33417,-2.29594c0.63475,-1.48956 0.95321,-3.07135 0.95321,-4.74502c0.00109,-0.89756 -0.09456,-1.72413 -0.28585,-2.47935z" fill="#ffffff" stroke="#ffffff"/></g></g></g></svg>